<svg width="1607" height="844" viewBox="0 0 1607 844" fill="none" xmlns="http://www.w3.org/2000/svg">
<rect width="1607" height="844" fill="white"/>
<path d="M585.064 168.384C582.504 168.384 580.136 167.968 577.96 167.136C575.816 166.272 573.944 165.072 572.344 163.536C570.776 161.968 569.544 160.144 568.648 158.064C567.752 155.984 567.304 153.696 567.304 151.2C567.304 148.704 567.752 146.416 568.648 144.336C569.544 142.256 570.792 140.448 572.392 138.912C573.992 137.344 575.864 136.144 578.008 135.312C580.184 134.448 582.552 134.016 585.112 134.016C587.704 134.016 590.088 134.464 592.264 135.36C594.472 136.224 596.344 137.52 597.88 139.248L594.76 142.272C593.48 140.928 592.04 139.936 590.44 139.296C588.84 138.624 587.128 138.288 585.304 138.288C583.416 138.288 581.656 138.608 580.024 139.248C578.424 139.888 577.032 140.784 575.848 141.936C574.664 143.088 573.736 144.464 573.064 146.064C572.424 147.632 572.104 149.344 572.104 151.2C572.104 153.056 572.424 154.784 573.064 156.384C573.736 157.952 574.664 159.312 575.848 160.464C577.032 161.616 578.424 162.512 580.024 163.152C581.656 163.792 583.416 164.112 585.304 164.112C587.128 164.112 588.84 163.792 590.44 163.152C592.04 162.48 593.48 161.456 594.76 160.08L597.88 163.104C596.344 164.832 594.472 166.144 592.264 167.04C590.088 167.936 587.688 168.384 585.064 168.384ZM598.843 168L614.059 134.4H618.811L634.075 168H629.035L615.451 137.088H617.371L603.787 168H598.843ZM605.323 159.6L606.619 155.76H625.531L626.923 159.6H605.323ZM639.087 168V134.4H653.247C656.831 134.4 659.983 135.104 662.703 136.512C665.455 137.92 667.583 139.888 669.087 142.416C670.623 144.944 671.391 147.872 671.391 151.2C671.391 154.528 670.623 157.456 669.087 159.984C667.583 162.512 665.455 164.48 662.703 165.888C659.983 167.296 656.831 168 653.247 168H639.087ZM643.887 163.824H652.959C655.743 163.824 658.143 163.296 660.159 162.24C662.207 161.184 663.791 159.712 664.911 157.824C666.031 155.904 666.591 153.696 666.591 151.2C666.591 148.672 666.031 146.464 664.911 144.576C663.791 142.688 662.207 141.216 660.159 140.16C658.143 139.104 655.743 138.576 652.959 138.576H643.887V163.824Z" fill="black"/>
<path d="M96.064 184.384C93.504 184.384 91.136 183.968 88.96 183.136C86.816 182.272 84.944 181.072 83.344 179.536C81.776 177.968 80.544 176.144 79.648 174.064C78.752 171.984 78.304 169.696 78.304 167.2C78.304 164.704 78.752 162.416 79.648 160.336C80.544 158.256 81.792 156.448 83.392 154.912C84.992 153.344 86.864 152.144 89.008 151.312C91.184 150.448 93.552 150.016 96.112 150.016C98.704 150.016 101.088 150.464 103.264 151.36C105.472 152.224 107.344 153.52 108.88 155.248L105.76 158.272C104.48 156.928 103.04 155.936 101.44 155.296C99.84 154.624 98.128 154.288 96.304 154.288C94.416 154.288 92.656 154.608 91.024 155.248C89.424 155.888 88.032 156.784 86.848 157.936C85.664 159.088 84.736 160.464 84.064 162.064C83.424 163.632 83.104 165.344 83.104 167.2C83.104 169.056 83.424 170.784 84.064 172.384C84.736 173.952 85.664 175.312 86.848 176.464C88.032 177.616 89.424 178.512 91.024 179.152C92.656 179.792 94.416 180.112 96.304 180.112C98.128 180.112 99.84 179.792 101.44 179.152C103.04 178.48 104.48 177.456 105.76 176.08L108.88 179.104C107.344 180.832 105.472 182.144 103.264 183.04C101.088 183.936 98.688 184.384 96.064 184.384ZM109.843 184L125.059 150.4H129.811L145.075 184H140.035L126.451 153.088H128.371L114.787 184H109.843ZM116.323 175.6L117.619 171.76H136.531L137.923 175.6H116.323ZM150.087 184V150.4H164.247C167.831 150.4 170.983 151.104 173.703 152.512C176.455 153.92 178.583 155.888 180.087 158.416C181.623 160.944 182.391 163.872 182.391 167.2C182.391 170.528 181.623 173.456 180.087 175.984C178.583 178.512 176.455 180.48 173.703 181.888C170.983 183.296 167.831 184 164.247 184H150.087ZM154.887 179.824H163.959C166.743 179.824 169.143 179.296 171.159 178.24C173.207 177.184 174.791 175.712 175.911 173.824C177.031 171.904 177.591 169.696 177.591 167.2C177.591 164.672 177.031 162.464 175.911 160.576C174.791 158.688 173.207 157.216 171.159 156.16C169.143 155.104 166.743 154.576 163.959 154.576H154.887V179.824Z" fill="black"/>
<path d="M385.752 160.512C382.339 160.512 379.181 159.957 376.28 158.848C373.421 157.696 370.925 156.096 368.792 154.048C366.701 151.957 365.059 149.525 363.864 146.752C362.669 143.979 362.072 140.928 362.072 137.6C362.072 134.272 362.669 131.221 363.864 128.448C365.059 125.675 366.723 123.264 368.856 121.216C370.989 119.125 373.485 117.525 376.344 116.416C379.245 115.264 382.403 114.688 385.816 114.688C389.272 114.688 392.451 115.285 395.352 116.48C398.296 117.632 400.792 119.36 402.84 121.664L398.68 125.696C396.973 123.904 395.053 122.581 392.92 121.728C390.787 120.832 388.504 120.384 386.072 120.384C383.555 120.384 381.208 120.811 379.032 121.664C376.899 122.517 375.043 123.712 373.464 125.248C371.885 126.784 370.648 128.619 369.752 130.752C368.899 132.843 368.472 135.125 368.472 137.6C368.472 140.075 368.899 142.379 369.752 144.512C370.648 146.603 371.885 148.416 373.464 149.952C375.043 151.488 376.899 152.683 379.032 153.536C381.208 154.389 383.555 154.816 386.072 154.816C388.504 154.816 390.787 154.389 392.92 153.536C395.053 152.64 396.973 151.275 398.68 149.44L402.84 153.472C400.792 155.776 398.296 157.525 395.352 158.72C392.451 159.915 389.251 160.512 385.752 160.512ZM404.123 160L424.412 115.2H430.748L451.1 160H444.38L426.268 118.784H428.828L410.716 160H404.123ZM412.764 148.8L414.492 143.68H439.708L441.564 148.8H412.764ZM457.783 160V115.2H476.663C481.441 115.2 485.644 116.139 489.271 118.016C492.94 119.893 495.777 122.517 497.783 125.888C499.831 129.259 500.855 133.163 500.855 137.6C500.855 142.037 499.831 145.941 497.783 149.312C495.777 152.683 492.94 155.307 489.271 157.184C485.644 159.061 481.441 160 476.663 160H457.783ZM464.183 154.432H476.279C479.991 154.432 483.191 153.728 485.879 152.32C488.609 150.912 490.721 148.949 492.215 146.432C493.708 143.872 494.455 140.928 494.455 137.6C494.455 134.229 493.708 131.285 492.215 128.768C490.721 126.251 488.609 124.288 485.879 122.88C483.191 121.472 479.991 120.768 476.279 120.768H464.183V154.432Z" fill="black"/>
<path d="M567.24 129L582.696 95.4H585.144L600.6 129H597.96L583.368 96.936H584.424L569.88 129H567.24ZM572.904 119.544L573.72 117.48H593.832L594.648 119.544H572.904ZM605.932 129V103.944H608.236V110.808L607.996 110.04C608.7 108.024 609.884 106.472 611.548 105.384C613.212 104.296 615.292 103.752 617.788 103.752V106.104C617.692 106.104 617.596 106.104 617.5 106.104C617.404 106.072 617.308 106.056 617.212 106.056C614.428 106.056 612.252 106.936 610.684 108.696C609.116 110.424 608.332 112.84 608.332 115.944V129H605.932ZM632.822 129.192C630.614 129.192 628.918 128.584 627.734 127.368C626.582 126.152 626.006 124.488 626.006 122.376V98.472H628.406V122.136C628.406 123.736 628.806 124.968 629.606 125.832C630.406 126.696 631.558 127.128 633.062 127.128C634.63 127.128 635.926 126.664 636.95 125.736L637.958 127.416C637.318 128.024 636.534 128.472 635.606 128.76C634.71 129.048 633.782 129.192 632.822 129.192ZM621.398 106.008V103.944H636.374V106.008H621.398Z" fill="black"/>
<path d="M80.24 143L95.696 109.4H98.144L113.6 143H110.96L96.368 110.936H97.424L82.88 143H80.24ZM85.904 133.544L86.72 131.48H106.832L107.648 133.544H85.904ZM118.932 143V117.944H121.236V124.808L120.996 124.04C121.7 122.024 122.884 120.472 124.548 119.384C126.212 118.296 128.292 117.752 130.788 117.752V120.104C130.692 120.104 130.596 120.104 130.5 120.104C130.404 120.072 130.308 120.056 130.212 120.056C127.428 120.056 125.252 120.936 123.684 122.696C122.116 124.424 121.332 126.84 121.332 129.944V143H118.932ZM145.822 143.192C143.614 143.192 141.918 142.584 140.734 141.368C139.582 140.152 139.006 138.488 139.006 136.376V112.472H141.406V136.136C141.406 137.736 141.806 138.968 142.606 139.832C143.406 140.696 144.558 141.128 146.062 141.128C147.63 141.128 148.926 140.664 149.95 139.736L150.958 141.416C150.318 142.024 149.534 142.472 148.606 142.76C147.71 143.048 146.782 143.192 145.822 143.192ZM134.398 120.008V117.944H149.374V120.008H134.398Z" fill="#2C2C2C"/>
<rect x="568.5" y="12.5" width="154" height="155" stroke="black"/>
<rect x="-0.25" y="0.25" width="47.5" height="76.5" transform="matrix(-1 0 0 1 128.5 639)" stroke="black" stroke-width="0.5"/>
<path d="M195.107 125.5C195.383 125.5 195.607 125.276 195.607 125L195.607 120.5C195.607 120.224 195.383 120 195.107 120C194.831 120 194.607 120.224 194.607 120.5L194.607 124.5L190.607 124.5C190.331 124.5 190.107 124.724 190.107 125C190.107 125.276 190.331 125.5 190.607 125.5L195.107 125.5ZM184.396 114.996L194.754 125.354L195.461 124.646L185.104 114.289L184.396 114.996Z" fill="#8C2525"/>
<path d="M162.647 114.289C162.451 114.485 162.451 114.801 162.647 114.996L165.829 118.178C166.024 118.374 166.34 118.374 166.536 118.178C166.731 117.983 166.731 117.667 166.536 117.471L163.707 114.643L166.536 111.814C166.731 111.619 166.731 111.303 166.536 111.107C166.34 110.912 166.024 110.912 165.829 111.107L162.647 114.289ZM184.608 114.143L163 114.143L163 115.143L184.608 115.143L184.608 114.143Z" fill="#8C2525"/>
<path d="M185.104 95.6464C184.908 95.4512 184.592 95.4512 184.396 95.6464L181.214 98.8284C181.019 99.0237 181.019 99.3402 181.214 99.5355C181.41 99.7308 181.726 99.7308 181.922 99.5355L184.75 96.7071L187.578 99.5355C187.774 99.7308 188.09 99.7308 188.286 99.5355C188.481 99.3402 188.481 99.0237 188.286 98.8284L185.104 95.6464ZM185.25 114.643L185.25 96L184.25 96L184.25 114.643L185.25 114.643Z" fill="#8C2525"/>
<line x1="81.1668" y1="639.814" x2="129.167" y2="682.814" stroke="black" stroke-width="0.5"/>
<line x1="99.1661" y1="656.187" x2="81.1661" y2="672.187" stroke="black" stroke-width="0.5"/>
<line x1="128.949" y1="682.245" x2="80.949" y2="672.245" stroke="black" stroke-width="0.5"/>
<line x1="81.1689" y1="671.816" x2="129.169" y2="715.816" stroke="black" stroke-width="0.5"/>
<line x1="80.8311" y1="715.816" x2="104.831" y2="693.816" stroke="black" stroke-width="0.5"/>
<rect x="-0.25" y="0.25" width="47.5" height="76.5" transform="matrix(-1 0 0 1 187.5 640)" stroke="black" stroke-width="0.5"/>
<line x1="140.167" y1="640.814" x2="188.167" y2="683.814" stroke="black" stroke-width="0.5"/>
<line x1="158.166" y1="657.187" x2="140.166" y2="673.187" stroke="black" stroke-width="0.5"/>
<line x1="187.949" y1="683.245" x2="139.949" y2="673.245" stroke="black" stroke-width="0.5"/>
<line x1="140.169" y1="672.816" x2="188.169" y2="716.816" stroke="black" stroke-width="0.5"/>
<line x1="139.831" y1="716.816" x2="163.831" y2="694.816" stroke="black" stroke-width="0.5"/>
<path d="M276.5 161.5H296.424L276.5 188.96V161.5ZM353.5 160.5H298.385L353.5 84.5405V160.5Z" stroke="black"/>
<line x1="87" y1="300.5" x2="134" y2="300.5" stroke="black"/>
<line x1="257" y1="300.5" x2="304" y2="300.5" stroke="black"/>
<line x1="415" y1="300.5" x2="462" y2="300.5" stroke="black"/>
<line x1="555" y1="300.5" x2="602" y2="300.5" stroke="black"/>
<line x1="87.5" y1="301" x2="87.5" y2="348" stroke="black"/>
<line x1="415.5" y1="301" x2="415.5" y2="348" stroke="black"/>
<line x1="257.5" y1="301" x2="257.5" y2="348" stroke="black"/>
<line x1="555.5" y1="301" x2="555.5" y2="348" stroke="black"/>
<line x1="462.5" y1="301" x2="462.5" y2="348" stroke="black"/>
<line x1="134.5" y1="301" x2="134.5" y2="348" stroke="black"/>
<line x1="304.5" y1="301" x2="304.5" y2="348" stroke="black"/>
<line x1="509.5" y1="301" x2="509.5" y2="348" stroke="black"/>
<line x1="602.5" y1="301" x2="602.5" y2="348" stroke="black"/>
<line x1="181.5" y1="301" x2="181.5" y2="348" stroke="black"/>
<line x1="509.5" y1="346" x2="509.5" y2="393" stroke="black"/>
<line x1="351.5" y1="301" x2="351.5" y2="348" stroke="black"/>
<line x1="649.5" y1="301" x2="649.5" y2="348" stroke="black"/>
<line x1="462.5" y1="346" x2="462.5" y2="393" stroke="black"/>
<line x1="181.5" y1="346" x2="181.5" y2="393" stroke="black"/>
<line x1="351.5" y1="346" x2="351.5" y2="393" stroke="black"/>
<line x1="415.5" y1="346" x2="415.5" y2="393" stroke="black"/>
<line x1="649.5" y1="346" x2="649.5" y2="393" stroke="black"/>
<line x1="134.5" y1="346" x2="134.5" y2="393" stroke="black"/>
<line x1="415" y1="346.5" x2="462" y2="346.5" stroke="black"/>
<line x1="895.757" y1="194.563" x2="949.757" y2="164.563" stroke="black"/>
<line x1="1004.24" y1="134.437" x2="950.243" y2="164.437" stroke="black"/>
<line y1="-0.5" x2="61.7738" y2="-0.5" transform="matrix(0.874157 0.485643 0.485643 -0.874157 950 165)" stroke="black"/>
<line y1="-0.5" x2="61.7738" y2="-0.5" transform="matrix(-0.874157 -0.485643 -0.485643 0.874157 950 164)" stroke="black"/>
<line y1="-0.5" x2="61.7738" y2="-0.5" transform="matrix(-4.37114e-08 -1 -1 4.37114e-08 950 163.774)" stroke="black"/>
<line x1="934.773" y1="132.894" x2="948.773" y2="102.894" stroke="black" stroke-width="0.5"/>
<line x1="934.013" y1="133.25" x2="895.013" y2="135.25" stroke="black" stroke-width="0.5"/>
<line x1="949.778" y1="164.115" x2="933.778" y2="133.115" stroke="black" stroke-width="0.5"/>
<line y1="-0.5" x2="61.7738" y2="-0.5" transform="matrix(-4.37114e-08 -1 -1 4.37114e-08 950 227.774)" stroke="black"/>
<line x1="1113.76" y1="187.563" x2="1167.76" y2="157.563" stroke="black"/>
<line y1="-0.5" x2="61.7738" y2="-0.5" transform="matrix(0.874157 0.485643 0.485643 -0.874157 1168 158)" stroke="black"/>
<line y1="-0.5" x2="61.7738" y2="-0.5" transform="matrix(-0.874157 -0.485643 -0.485643 0.874157 1168 157)" stroke="black"/>
<line y1="-0.5" x2="61.7738" y2="-0.5" transform="matrix(-4.37114e-08 -1 -1 4.37114e-08 1168 156.774)" stroke="black"/>
<line x1="1152.77" y1="125.894" x2="1166.77" y2="95.8943" stroke="black" stroke-width="0.5"/>
<line x1="1152.01" y1="126.25" x2="1113.01" y2="128.25" stroke="black" stroke-width="0.5"/>
<line x1="1167.78" y1="157.115" x2="1151.78" y2="126.115" stroke="black" stroke-width="0.5"/>
<line y1="-0.5" x2="61.7738" y2="-0.5" transform="matrix(-4.37114e-08 -1 -1 4.37114e-08 1168 220.774)" stroke="black"/>
<line x1="304.5" y1="346" x2="304.5" y2="393" stroke="black"/>
<line x1="602.5" y1="346" x2="602.5" y2="393" stroke="black"/>
<line x1="415" y1="392.5" x2="462" y2="392.5" stroke="black"/>
<line x1="87.5" y1="346" x2="87.5" y2="393" stroke="black"/>
<line x1="257.5" y1="346" x2="257.5" y2="393" stroke="black"/>
<line x1="462" y1="300.5" x2="509" y2="300.5" stroke="black"/>
<line x1="555.5" y1="346" x2="555.5" y2="393" stroke="black"/>
<line x1="87" y1="346.5" x2="134" y2="346.5" stroke="black"/>
<line x1="462" y1="346.5" x2="509" y2="346.5" stroke="black"/>
<line x1="257" y1="346.5" x2="304" y2="346.5" stroke="black"/>
<line x1="555" y1="346.5" x2="602" y2="346.5" stroke="black"/>
<line x1="462" y1="392.5" x2="509" y2="392.5" stroke="black"/>
<line x1="87" y1="392.5" x2="134" y2="392.5" stroke="black"/>
<line x1="257" y1="392.5" x2="304" y2="392.5" stroke="black"/>
<circle cx="415" cy="301" r="11.5" fill="white" stroke="black"/>
<line x1="555" y1="392.5" x2="602" y2="392.5" stroke="black"/>
<line x1="134" y1="300.5" x2="181" y2="300.5" stroke="black"/>
<circle cx="462" cy="301" r="11.5" fill="white" stroke="black"/>
<line x1="304" y1="300.5" x2="351" y2="300.5" stroke="black"/>
<line x1="602" y1="300.5" x2="649" y2="300.5" stroke="black"/>
<circle cx="509" cy="301" r="11.5" fill="white" stroke="black"/>
<line x1="134" y1="346.5" x2="181" y2="346.5" stroke="black"/>
<line x1="304" y1="346.5" x2="351" y2="346.5" stroke="black"/>
<circle cx="415" cy="347" r="11.5" fill="white" stroke="black"/>
<line x1="602" y1="346.5" x2="649" y2="346.5" stroke="black"/>
<line x1="134" y1="392.5" x2="181" y2="392.5" stroke="black"/>
<circle cx="462" cy="347" r="11.5" fill="white" stroke="black"/>
<line x1="304" y1="392.5" x2="351" y2="392.5" stroke="black"/>
<line x1="602" y1="392.5" x2="649" y2="392.5" stroke="black"/>
<circle cx="934" cy="133" r="6" fill="black"/>
<circle cx="984" cy="166" r="6" fill="black"/>
<circle cx="933" cy="196" r="6" fill="black"/>
<circle cx="1152" cy="126" r="6" fill="black"/>
<circle cx="1202" cy="159" r="6" fill="black"/>
<circle cx="1151" cy="189" r="6" fill="black"/>
<circle cx="509" cy="347" r="11.5" fill="white" stroke="black"/>
<circle cx="87" cy="301" r="12" fill="#D9D9D9"/>
<circle cx="257" cy="301" r="11.5" fill="white" stroke="black"/>
<circle cx="415" cy="393" r="11.5" fill="white" stroke="black"/>
<circle cx="555" cy="301" r="11.5" fill="white" stroke="black"/>
<circle cx="134" cy="301" r="12" fill="#D9D9D9"/>
<circle cx="462" cy="393" r="11.5" fill="white" stroke="black"/>
<circle cx="439" cy="322" r="6" fill="black"/>
<circle cx="486" cy="322" r="6" fill="black"/>
<circle cx="439" cy="368" r="6" fill="black"/>
<circle cx="486" cy="368" r="6" fill="black"/>
<circle cx="304" cy="301" r="12" fill="white"/>
<circle cx="602" cy="301" r="11.5" fill="white" stroke="black"/>
<circle cx="509" cy="393" r="11.5" fill="white" stroke="black"/>
<circle cx="181" cy="301" r="12" fill="#D9D9D9"/>
<circle cx="351" cy="301" r="12" fill="white"/>
<path d="M416.96 305V303.096L416.928 302.808V299.672C416.928 298.893 416.715 298.301 416.288 297.896C415.872 297.491 415.259 297.288 414.448 297.288C413.872 297.288 413.333 297.389 412.832 297.592C412.341 297.784 411.92 298.035 411.568 298.344L411.168 297.768C411.584 297.395 412.085 297.107 412.672 296.904C413.259 296.691 413.872 296.584 414.512 296.584C415.547 296.584 416.341 296.845 416.896 297.368C417.451 297.891 417.728 298.669 417.728 299.704V305H416.96ZM413.952 305.064C413.333 305.064 412.795 304.968 412.336 304.776C411.888 304.573 411.541 304.291 411.296 303.928C411.061 303.565 410.944 303.149 410.944 302.68C410.944 302.253 411.04 301.869 411.232 301.528C411.435 301.176 411.765 300.893 412.224 300.68C412.683 300.456 413.296 300.344 414.064 300.344H417.136V300.968H414.08C413.216 300.968 412.608 301.128 412.256 301.448C411.915 301.768 411.744 302.168 411.744 302.648C411.744 303.181 411.947 303.608 412.352 303.928C412.757 304.248 413.328 304.408 414.064 304.408C414.768 304.408 415.36 304.248 415.84 303.928C416.331 303.608 416.693 303.144 416.928 302.536L417.152 303.08C416.928 303.688 416.544 304.173 416 304.536C415.467 304.888 414.784 305.064 413.952 305.064Z" fill="black"/>
<circle cx="649" cy="301" r="11.5" fill="white" stroke="black"/>
<circle cx="87" cy="347" r="12" fill="#D9D9D9"/>
<path d="M415.008 351.064C414.197 351.064 413.472 350.883 412.832 350.52C412.203 350.157 411.701 349.656 411.328 349.016C410.965 348.376 410.784 347.645 410.784 346.824C410.784 345.992 410.965 345.256 411.328 344.616C411.701 343.976 412.203 343.48 412.832 343.128C413.472 342.765 414.197 342.584 415.008 342.584C415.68 342.584 416.288 342.712 416.832 342.968C417.387 343.224 417.835 343.608 418.176 344.12L417.584 344.552C417.285 344.125 416.912 343.811 416.464 343.608C416.016 343.405 415.531 343.304 415.008 343.304C414.357 343.304 413.771 343.453 413.248 343.752C412.736 344.04 412.331 344.451 412.032 344.984C411.744 345.507 411.6 346.12 411.6 346.824C411.6 347.528 411.744 348.147 412.032 348.68C412.331 349.203 412.736 349.613 413.248 349.912C413.771 350.2 414.357 350.344 415.008 350.344C415.531 350.344 416.016 350.243 416.464 350.04C416.912 349.837 417.285 349.523 417.584 349.096L418.176 349.528C417.835 350.04 417.387 350.424 416.832 350.68C416.288 350.936 415.68 351.064 415.008 351.064Z" fill="black"/>
<circle cx="257" cy="347" r="12" fill="white"/>
<circle cx="555" cy="347" r="11.5" fill="white" stroke="black"/>
<path d="M460.696 305V296.648H461.464V298.936L461.384 298.68C461.619 298.008 462.013 297.491 462.568 297.128C463.123 296.765 463.816 296.584 464.648 296.584V297.368C464.616 297.368 464.584 297.368 464.552 297.368C464.52 297.357 464.488 297.352 464.456 297.352C463.528 297.352 462.803 297.645 462.28 298.232C461.757 298.808 461.496 299.613 461.496 300.648V305H460.696Z" fill="black"/>
<circle cx="134" cy="347" r="12" fill="#D9D9D9"/>
<circle cx="304" cy="347" r="12" fill="white"/>
<path d="M464.96 351V349.096L464.928 348.808V345.672C464.928 344.893 464.715 344.301 464.288 343.896C463.872 343.491 463.259 343.288 462.448 343.288C461.872 343.288 461.333 343.389 460.832 343.592C460.341 343.784 459.92 344.035 459.568 344.344L459.168 343.768C459.584 343.395 460.085 343.107 460.672 342.904C461.259 342.691 461.872 342.584 462.512 342.584C463.547 342.584 464.341 342.845 464.896 343.368C465.451 343.891 465.728 344.669 465.728 345.704V351H464.96ZM461.952 351.064C461.333 351.064 460.795 350.968 460.336 350.776C459.888 350.573 459.541 350.291 459.296 349.928C459.061 349.565 458.944 349.149 458.944 348.68C458.944 348.253 459.04 347.869 459.232 347.528C459.435 347.176 459.765 346.893 460.224 346.68C460.683 346.456 461.296 346.344 462.064 346.344H465.136V346.968H462.08C461.216 346.968 460.608 347.128 460.256 347.448C459.915 347.768 459.744 348.168 459.744 348.648C459.744 349.181 459.947 349.608 460.352 349.928C460.757 350.248 461.328 350.408 462.064 350.408C462.768 350.408 463.36 350.248 463.84 349.928C464.331 349.608 464.693 349.144 464.928 348.536L465.152 349.08C464.928 349.688 464.544 350.173 464 350.536C463.467 350.888 462.784 351.064 461.952 351.064Z" fill="black"/>
<circle cx="602" cy="347" r="11.5" fill="white" stroke="black"/>
<circle cx="181" cy="347" r="12" fill="#D9D9D9"/>
<path d="M895.007 134.039L949.5 102.577L1003.99 134.039V196.961L949.5 228.423L895.007 196.961V134.039Z" stroke="black"/>
<path d="M510.128 305.064C509.392 305.064 508.827 304.861 508.432 304.456C508.048 304.051 507.856 303.496 507.856 302.792V294.824H508.656V302.712C508.656 303.245 508.789 303.656 509.056 303.944C509.323 304.232 509.707 304.376 510.208 304.376C510.731 304.376 511.163 304.221 511.504 303.912L511.84 304.472C511.627 304.675 511.365 304.824 511.056 304.92C510.757 305.016 510.448 305.064 510.128 305.064ZM506.32 297.336V296.648H511.312V297.336H506.32Z" fill="black"/>
<circle cx="351" cy="347" r="12" fill="white"/>
<circle cx="649" cy="347" r="11.5" fill="white" stroke="black"/>
<path d="M508.912 351.064C508.133 351.064 507.429 350.888 506.8 350.536C506.181 350.173 505.691 349.672 505.328 349.032C504.965 348.392 504.784 347.656 504.784 346.824C504.784 345.981 504.965 345.245 505.328 344.616C505.691 343.976 506.181 343.48 506.8 343.128C507.429 342.765 508.133 342.584 508.912 342.584C509.648 342.584 510.309 342.755 510.896 343.096C511.493 343.437 511.963 343.923 512.304 344.552C512.656 345.181 512.832 345.939 512.832 346.824C512.832 347.688 512.661 348.44 512.32 349.08C511.979 349.72 511.509 350.211 510.912 350.552C510.325 350.893 509.659 351.064 508.912 351.064ZM508.96 350.344C509.6 350.344 510.171 350.2 510.672 349.912C511.184 349.613 511.584 349.197 511.872 348.664C512.171 348.131 512.32 347.517 512.32 346.824C512.32 346.12 512.171 345.507 511.872 344.984C511.584 344.451 511.184 344.04 510.672 343.752C510.171 343.453 509.6 343.304 508.96 343.304C508.32 343.304 507.744 343.453 507.232 343.752C506.731 344.04 506.331 344.451 506.032 344.984C505.744 345.507 505.6 346.12 505.6 346.824C505.6 347.517 505.744 348.131 506.032 348.664C506.331 349.197 506.731 349.613 507.232 349.912C507.744 350.2 508.32 350.344 508.96 350.344ZM512.336 351V348.264L512.48 346.808L512.32 345.352V339.128H513.12V351H512.336Z" fill="black"/>
<circle cx="87" cy="393" r="12" fill="#D9D9D9"/>
<circle cx="950" cy="102" r="11.5" fill="white" stroke="black"/>
<circle cx="896" cy="134" r="11.5" fill="white" stroke="black"/>
<circle cx="896" cy="195" r="11.5" fill="white" stroke="black"/>
<circle cx="950" cy="229" r="11.5" fill="white" stroke="black"/>
<circle cx="1003" cy="195" r="11.5" fill="white" stroke="black"/>
<circle cx="950" cy="165" r="11.5" fill="white" stroke="black"/>
<circle cx="1003" cy="134" r="11.5" fill="white" stroke="black"/>
<circle cx="1168" cy="95" r="11.5" fill="white" stroke="black"/>
<circle cx="1114" cy="127" r="11.5" fill="white" stroke="#21B5D6"/>
<circle cx="1114" cy="188" r="11.5" fill="white" stroke="black"/>
<circle cx="1168" cy="222" r="11.5" fill="white" stroke="black"/>
<circle cx="1221" cy="188" r="12" fill="url(#paint0_radial_1_2)"/>
<circle cx="257" cy="393" r="12" fill="white"/>
<circle cx="555" cy="393" r="12" fill="white"/>
<circle cx="134" cy="393" r="12" fill="#D9D9D9"/>
<circle cx="304" cy="393" r="12" fill="white"/>
<circle cx="602" cy="393" r="12" fill="white"/>
<circle cx="579" cy="322" r="6" fill="black"/>
<circle cx="1168" cy="158" r="11.5" fill="url(#paint1_radial_1_2)" stroke="black"/>
<circle cx="626" cy="322" r="6" fill="black"/>
<circle cx="579" cy="368" r="6" fill="black"/>
<circle cx="626" cy="368" r="6" fill="black"/>
<circle cx="181" cy="393" r="12" fill="#D9D9D9"/>
<circle cx="351" cy="393" r="12" fill="white"/>
<circle cx="649" cy="393" r="12" fill="white"/>
<path d="M897.96 138V136.096L897.928 135.808V132.672C897.928 131.893 897.715 131.301 897.288 130.896C896.872 130.491 896.259 130.288 895.448 130.288C894.872 130.288 894.333 130.389 893.832 130.592C893.341 130.784 892.92 131.035 892.568 131.344L892.168 130.768C892.584 130.395 893.085 130.107 893.672 129.904C894.259 129.691 894.872 129.584 895.512 129.584C896.547 129.584 897.341 129.845 897.896 130.368C898.451 130.891 898.728 131.669 898.728 132.704V138H897.96ZM894.952 138.064C894.333 138.064 893.795 137.968 893.336 137.776C892.888 137.573 892.541 137.291 892.296 136.928C892.061 136.565 891.944 136.149 891.944 135.68C891.944 135.253 892.04 134.869 892.232 134.528C892.435 134.176 892.765 133.893 893.224 133.68C893.683 133.456 894.296 133.344 895.064 133.344H898.136V133.968H895.08C894.216 133.968 893.608 134.128 893.256 134.448C892.915 134.768 892.744 135.168 892.744 135.648C892.744 136.181 892.947 136.608 893.352 136.928C893.757 137.248 894.328 137.408 895.064 137.408C895.768 137.408 896.36 137.248 896.84 136.928C897.331 136.608 897.693 136.144 897.928 135.536L898.152 136.08C897.928 136.688 897.544 137.173 897 137.536C896.467 137.888 895.784 138.064 894.952 138.064Z" fill="black"/>
<path d="M948.696 106V97.648H949.464V99.936L949.384 99.68C949.619 99.008 950.013 98.4907 950.568 98.128C951.123 97.7653 951.816 97.584 952.648 97.584V98.368C952.616 98.368 952.584 98.368 952.552 98.368C952.52 98.3573 952.488 98.352 952.456 98.352C951.528 98.352 950.803 98.6453 950.28 99.232C949.757 99.808 949.496 100.613 949.496 101.648V106H948.696Z" fill="black"/>
<path d="M1004.13 139.064C1003.39 139.064 1002.83 138.861 1002.43 138.456C1002.05 138.051 1001.86 137.496 1001.86 136.792V128.824H1002.66V136.712C1002.66 137.245 1002.79 137.656 1003.06 137.944C1003.32 138.232 1003.71 138.376 1004.21 138.376C1004.73 138.376 1005.16 138.221 1005.5 137.912L1005.84 138.472C1005.63 138.675 1005.37 138.824 1005.06 138.92C1004.76 139.016 1004.45 139.064 1004.13 139.064ZM1000.32 131.336V130.648H1005.31V131.336H1000.32Z" fill="black"/>
<path d="M1003.01 199.064C1002.2 199.064 1001.47 198.883 1000.83 198.52C1000.2 198.157 999.701 197.656 999.328 197.016C998.965 196.376 998.784 195.645 998.784 194.824C998.784 193.992 998.965 193.256 999.328 192.616C999.701 191.976 1000.2 191.48 1000.83 191.128C1001.47 190.765 1002.2 190.584 1003.01 190.584C1003.68 190.584 1004.29 190.712 1004.83 190.968C1005.39 191.224 1005.83 191.608 1006.18 192.12L1005.58 192.552C1005.29 192.125 1004.91 191.811 1004.46 191.608C1004.02 191.405 1003.53 191.304 1003.01 191.304C1002.36 191.304 1001.77 191.453 1001.25 191.752C1000.74 192.04 1000.33 192.451 1000.03 192.984C999.744 193.507 999.6 194.12 999.6 194.824C999.6 195.528 999.744 196.147 1000.03 196.68C1000.33 197.203 1000.74 197.613 1001.25 197.912C1001.77 198.2 1002.36 198.344 1003.01 198.344C1003.53 198.344 1004.02 198.243 1004.46 198.04C1004.91 197.837 1005.29 197.523 1005.58 197.096L1006.18 197.528C1005.83 198.04 1005.39 198.424 1004.83 198.68C1004.29 198.936 1003.68 199.064 1003.01 199.064Z" fill="black"/>
<path d="M951.96 234V232.096L951.928 231.808V228.672C951.928 227.893 951.715 227.301 951.288 226.896C950.872 226.491 950.259 226.288 949.448 226.288C948.872 226.288 948.333 226.389 947.832 226.592C947.341 226.784 946.92 227.035 946.568 227.344L946.168 226.768C946.584 226.395 947.085 226.107 947.672 225.904C948.259 225.691 948.872 225.584 949.512 225.584C950.547 225.584 951.341 225.845 951.896 226.368C952.451 226.891 952.728 227.669 952.728 228.704V234H951.96ZM948.952 234.064C948.333 234.064 947.795 233.968 947.336 233.776C946.888 233.573 946.541 233.291 946.296 232.928C946.061 232.565 945.944 232.149 945.944 231.68C945.944 231.253 946.04 230.869 946.232 230.528C946.435 230.176 946.765 229.893 947.224 229.68C947.683 229.456 948.296 229.344 949.064 229.344H952.136V229.968H949.08C948.216 229.968 947.608 230.128 947.256 230.448C946.915 230.768 946.744 231.168 946.744 231.648C946.744 232.181 946.947 232.608 947.352 232.928C947.757 233.248 948.328 233.408 949.064 233.408C949.768 233.408 950.36 233.248 950.84 232.928C951.331 232.608 951.693 232.144 951.928 231.536L952.152 232.08C951.928 232.688 951.544 233.173 951 233.536C950.467 233.888 949.784 234.064 948.952 234.064Z" fill="black"/>
<path d="M894.912 200.064C894.133 200.064 893.429 199.888 892.8 199.536C892.181 199.173 891.691 198.672 891.328 198.032C890.965 197.392 890.784 196.656 890.784 195.824C890.784 194.981 890.965 194.245 891.328 193.616C891.691 192.976 892.181 192.48 892.8 192.128C893.429 191.765 894.133 191.584 894.912 191.584C895.648 191.584 896.309 191.755 896.896 192.096C897.493 192.437 897.963 192.923 898.304 193.552C898.656 194.181 898.832 194.939 898.832 195.824C898.832 196.688 898.661 197.44 898.32 198.08C897.979 198.72 897.509 199.211 896.912 199.552C896.325 199.893 895.659 200.064 894.912 200.064ZM894.96 199.344C895.6 199.344 896.171 199.2 896.672 198.912C897.184 198.613 897.584 198.197 897.872 197.664C898.171 197.131 898.32 196.517 898.32 195.824C898.32 195.12 898.171 194.507 897.872 193.984C897.584 193.451 897.184 193.04 896.672 192.752C896.171 192.453 895.6 192.304 894.96 192.304C894.32 192.304 893.744 192.453 893.232 192.752C892.731 193.04 892.331 193.451 892.032 193.984C891.744 194.507 891.6 195.12 891.6 195.824C891.6 196.517 891.744 197.131 892.032 197.664C892.331 198.197 892.731 198.613 893.232 198.912C893.744 199.2 894.32 199.344 894.96 199.344ZM898.336 200V197.264L898.48 195.808L898.32 194.352V188.128H899.12V200H898.336Z" fill="black"/>
<path d="M1115.96 131V129.096L1115.93 128.808V125.672C1115.93 124.893 1115.71 124.301 1115.29 123.896C1114.87 123.491 1114.26 123.288 1113.45 123.288C1112.87 123.288 1112.33 123.389 1111.83 123.592C1111.34 123.784 1110.92 124.035 1110.57 124.344L1110.17 123.768C1110.58 123.395 1111.09 123.107 1111.67 122.904C1112.26 122.691 1112.87 122.584 1113.51 122.584C1114.55 122.584 1115.34 122.845 1115.9 123.368C1116.45 123.891 1116.73 124.669 1116.73 125.704V131H1115.96ZM1112.95 131.064C1112.33 131.064 1111.79 130.968 1111.34 130.776C1110.89 130.573 1110.54 130.291 1110.3 129.928C1110.06 129.565 1109.94 129.149 1109.94 128.68C1109.94 128.253 1110.04 127.869 1110.23 127.528C1110.43 127.176 1110.77 126.893 1111.22 126.68C1111.68 126.456 1112.3 126.344 1113.06 126.344H1116.14V126.968H1113.08C1112.22 126.968 1111.61 127.128 1111.26 127.448C1110.91 127.768 1110.74 128.168 1110.74 128.648C1110.74 129.181 1110.95 129.608 1111.35 129.928C1111.76 130.248 1112.33 130.408 1113.06 130.408C1113.77 130.408 1114.36 130.248 1114.84 129.928C1115.33 129.608 1115.69 129.144 1115.93 128.536L1116.15 129.08C1115.93 129.688 1115.54 130.173 1115 130.536C1114.47 130.888 1113.78 131.064 1112.95 131.064Z" fill="black"/>
<path d="M1166.7 99V90.648H1167.46V92.936L1167.38 92.68C1167.62 92.008 1168.01 91.4907 1168.57 91.128C1169.12 90.7653 1169.82 90.584 1170.65 90.584V91.368C1170.62 91.368 1170.58 91.368 1170.55 91.368C1170.52 91.3573 1170.49 91.352 1170.46 91.352C1169.53 91.352 1168.8 91.6453 1168.28 92.232C1167.76 92.808 1167.5 93.6133 1167.5 94.648V99H1166.7Z" fill="black"/>
<path d="M1221.01 192.064C1220.2 192.064 1219.47 191.883 1218.83 191.52C1218.2 191.157 1217.7 190.656 1217.33 190.016C1216.97 189.376 1216.78 188.645 1216.78 187.824C1216.78 186.992 1216.97 186.256 1217.33 185.616C1217.7 184.976 1218.2 184.48 1218.83 184.128C1219.47 183.765 1220.2 183.584 1221.01 183.584C1221.68 183.584 1222.29 183.712 1222.83 183.968C1223.39 184.224 1223.83 184.608 1224.18 185.12L1223.58 185.552C1223.29 185.125 1222.91 184.811 1222.46 184.608C1222.02 184.405 1221.53 184.304 1221.01 184.304C1220.36 184.304 1219.77 184.453 1219.25 184.752C1218.74 185.04 1218.33 185.451 1218.03 185.984C1217.74 186.507 1217.6 187.12 1217.6 187.824C1217.6 188.528 1217.74 189.147 1218.03 189.68C1218.33 190.203 1218.74 190.613 1219.25 190.912C1219.77 191.2 1220.36 191.344 1221.01 191.344C1221.53 191.344 1222.02 191.243 1222.46 191.04C1222.91 190.837 1223.29 190.523 1223.58 190.096L1224.18 190.528C1223.83 191.04 1223.39 191.424 1222.83 191.68C1222.29 191.936 1221.68 192.064 1221.01 192.064Z" fill="black"/>
<path d="M1169.96 227V225.096L1169.93 224.808V221.672C1169.93 220.893 1169.71 220.301 1169.29 219.896C1168.87 219.491 1168.26 219.288 1167.45 219.288C1166.87 219.288 1166.33 219.389 1165.83 219.592C1165.34 219.784 1164.92 220.035 1164.57 220.344L1164.17 219.768C1164.58 219.395 1165.09 219.107 1165.67 218.904C1166.26 218.691 1166.87 218.584 1167.51 218.584C1168.55 218.584 1169.34 218.845 1169.9 219.368C1170.45 219.891 1170.73 220.669 1170.73 221.704V227H1169.96ZM1166.95 227.064C1166.33 227.064 1165.79 226.968 1165.34 226.776C1164.89 226.573 1164.54 226.291 1164.3 225.928C1164.06 225.565 1163.94 225.149 1163.94 224.68C1163.94 224.253 1164.04 223.869 1164.23 223.528C1164.43 223.176 1164.77 222.893 1165.22 222.68C1165.68 222.456 1166.3 222.344 1167.06 222.344H1170.14V222.968H1167.08C1166.22 222.968 1165.61 223.128 1165.26 223.448C1164.91 223.768 1164.74 224.168 1164.74 224.648C1164.74 225.181 1164.95 225.608 1165.35 225.928C1165.76 226.248 1166.33 226.408 1167.06 226.408C1167.77 226.408 1168.36 226.248 1168.84 225.928C1169.33 225.608 1169.69 225.144 1169.93 224.536L1170.15 225.08C1169.93 225.688 1169.54 226.173 1169 226.536C1168.47 226.888 1167.78 227.064 1166.95 227.064Z" fill="black"/>
<path d="M1112.91 193.064C1112.13 193.064 1111.43 192.888 1110.8 192.536C1110.18 192.173 1109.69 191.672 1109.33 191.032C1108.97 190.392 1108.78 189.656 1108.78 188.824C1108.78 187.981 1108.97 187.245 1109.33 186.616C1109.69 185.976 1110.18 185.48 1110.8 185.128C1111.43 184.765 1112.13 184.584 1112.91 184.584C1113.65 184.584 1114.31 184.755 1114.9 185.096C1115.49 185.437 1115.96 185.923 1116.3 186.552C1116.66 187.181 1116.83 187.939 1116.83 188.824C1116.83 189.688 1116.66 190.44 1116.32 191.08C1115.98 191.72 1115.51 192.211 1114.91 192.552C1114.33 192.893 1113.66 193.064 1112.91 193.064ZM1112.96 192.344C1113.6 192.344 1114.17 192.2 1114.67 191.912C1115.18 191.613 1115.58 191.197 1115.87 190.664C1116.17 190.131 1116.32 189.517 1116.32 188.824C1116.32 188.12 1116.17 187.507 1115.87 186.984C1115.58 186.451 1115.18 186.04 1114.67 185.752C1114.17 185.453 1113.6 185.304 1112.96 185.304C1112.32 185.304 1111.74 185.453 1111.23 185.752C1110.73 186.04 1110.33 186.451 1110.03 186.984C1109.74 187.507 1109.6 188.12 1109.6 188.824C1109.6 189.517 1109.74 190.131 1110.03 190.664C1110.33 191.197 1110.73 191.613 1111.23 191.912C1111.74 192.2 1112.32 192.344 1112.96 192.344ZM1116.34 193V190.264L1116.48 188.808L1116.32 187.352V181.128H1117.12V193H1116.34Z" fill="black"/>
<path d="M88.96 305V303.096L88.928 302.808V299.672C88.928 298.893 88.7147 298.301 88.288 297.896C87.872 297.491 87.2587 297.288 86.448 297.288C85.872 297.288 85.3333 297.389 84.832 297.592C84.3413 297.784 83.92 298.035 83.568 298.344L83.168 297.768C83.584 297.395 84.0853 297.107 84.672 296.904C85.2587 296.691 85.872 296.584 86.512 296.584C87.5467 296.584 88.3413 296.845 88.896 297.368C89.4507 297.891 89.728 298.669 89.728 299.704V305H88.96ZM85.952 305.064C85.3333 305.064 84.7947 304.968 84.336 304.776C83.888 304.573 83.5413 304.291 83.296 303.928C83.0613 303.565 82.944 303.149 82.944 302.68C82.944 302.253 83.04 301.869 83.232 301.528C83.4347 301.176 83.7653 300.893 84.224 300.68C84.6827 300.456 85.296 300.344 86.064 300.344H89.136V300.968H86.08C85.216 300.968 84.608 301.128 84.256 301.448C83.9147 301.768 83.744 302.168 83.744 302.648C83.744 303.181 83.9467 303.608 84.352 303.928C84.7573 304.248 85.328 304.408 86.064 304.408C86.768 304.408 87.36 304.248 87.84 303.928C88.3307 303.608 88.6933 303.144 88.928 302.536L89.152 303.08C88.928 303.688 88.544 304.173 88 304.536C87.4667 304.888 86.784 305.064 85.952 305.064Z" fill="black"/>
<path d="M258.96 305V303.096L258.928 302.808V299.672C258.928 298.893 258.715 298.301 258.288 297.896C257.872 297.491 257.259 297.288 256.448 297.288C255.872 297.288 255.333 297.389 254.832 297.592C254.341 297.784 253.92 298.035 253.568 298.344L253.168 297.768C253.584 297.395 254.085 297.107 254.672 296.904C255.259 296.691 255.872 296.584 256.512 296.584C257.547 296.584 258.341 296.845 258.896 297.368C259.451 297.891 259.728 298.669 259.728 299.704V305H258.96ZM255.952 305.064C255.333 305.064 254.795 304.968 254.336 304.776C253.888 304.573 253.541 304.291 253.296 303.928C253.061 303.565 252.944 303.149 252.944 302.68C252.944 302.253 253.04 301.869 253.232 301.528C253.435 301.176 253.765 300.893 254.224 300.68C254.683 300.456 255.296 300.344 256.064 300.344H259.136V300.968H256.08C255.216 300.968 254.608 301.128 254.256 301.448C253.915 301.768 253.744 302.168 253.744 302.648C253.744 303.181 253.947 303.608 254.352 303.928C254.757 304.248 255.328 304.408 256.064 304.408C256.768 304.408 257.36 304.248 257.84 303.928C258.331 303.608 258.693 303.144 258.928 302.536L259.152 303.08C258.928 303.688 258.544 304.173 258 304.536C257.467 304.888 256.784 305.064 255.952 305.064Z" fill="black"/>
<path d="M556.96 305V303.096L556.928 302.808V299.672C556.928 298.893 556.715 298.301 556.288 297.896C555.872 297.491 555.259 297.288 554.448 297.288C553.872 297.288 553.333 297.389 552.832 297.592C552.341 297.784 551.92 298.035 551.568 298.344L551.168 297.768C551.584 297.395 552.085 297.107 552.672 296.904C553.259 296.691 553.872 296.584 554.512 296.584C555.547 296.584 556.341 296.845 556.896 297.368C557.451 297.891 557.728 298.669 557.728 299.704V305H556.96ZM553.952 305.064C553.333 305.064 552.795 304.968 552.336 304.776C551.888 304.573 551.541 304.291 551.296 303.928C551.061 303.565 550.944 303.149 550.944 302.68C550.944 302.253 551.04 301.869 551.232 301.528C551.435 301.176 551.765 300.893 552.224 300.68C552.683 300.456 553.296 300.344 554.064 300.344H557.136V300.968H554.08C553.216 300.968 552.608 301.128 552.256 301.448C551.915 301.768 551.744 302.168 551.744 302.648C551.744 303.181 551.947 303.608 552.352 303.928C552.757 304.248 553.328 304.408 554.064 304.408C554.768 304.408 555.36 304.248 555.84 303.928C556.331 303.608 556.693 303.144 556.928 302.536L557.152 303.08C556.928 303.688 556.544 304.173 556 304.536C555.467 304.888 554.784 305.064 553.952 305.064Z" fill="black"/>
<path d="M87.008 351.064C86.1973 351.064 85.472 350.883 84.832 350.52C84.2027 350.157 83.7013 349.656 83.328 349.016C82.9653 348.376 82.784 347.645 82.784 346.824C82.784 345.992 82.9653 345.256 83.328 344.616C83.7013 343.976 84.2027 343.48 84.832 343.128C85.472 342.765 86.1973 342.584 87.008 342.584C87.68 342.584 88.288 342.712 88.832 342.968C89.3867 343.224 89.8347 343.608 90.176 344.12L89.584 344.552C89.2853 344.125 88.912 343.811 88.464 343.608C88.016 343.405 87.5307 343.304 87.008 343.304C86.3573 343.304 85.7707 343.453 85.248 343.752C84.736 344.04 84.3307 344.451 84.032 344.984C83.744 345.507 83.6 346.12 83.6 346.824C83.6 347.528 83.744 348.147 84.032 348.68C84.3307 349.203 84.736 349.613 85.248 349.912C85.7707 350.2 86.3573 350.344 87.008 350.344C87.5307 350.344 88.016 350.243 88.464 350.04C88.912 349.837 89.2853 349.523 89.584 349.096L90.176 349.528C89.8347 350.04 89.3867 350.424 88.832 350.68C88.288 350.936 87.68 351.064 87.008 351.064Z" fill="black"/>
<path d="M257.008 351.064C256.197 351.064 255.472 350.883 254.832 350.52C254.203 350.157 253.701 349.656 253.328 349.016C252.965 348.376 252.784 347.645 252.784 346.824C252.784 345.992 252.965 345.256 253.328 344.616C253.701 343.976 254.203 343.48 254.832 343.128C255.472 342.765 256.197 342.584 257.008 342.584C257.68 342.584 258.288 342.712 258.832 342.968C259.387 343.224 259.835 343.608 260.176 344.12L259.584 344.552C259.285 344.125 258.912 343.811 258.464 343.608C258.016 343.405 257.531 343.304 257.008 343.304C256.357 343.304 255.771 343.453 255.248 343.752C254.736 344.04 254.331 344.451 254.032 344.984C253.744 345.507 253.6 346.12 253.6 346.824C253.6 347.528 253.744 348.147 254.032 348.68C254.331 349.203 254.736 349.613 255.248 349.912C255.771 350.2 256.357 350.344 257.008 350.344C257.531 350.344 258.016 350.243 258.464 350.04C258.912 349.837 259.285 349.523 259.584 349.096L260.176 349.528C259.835 350.04 259.387 350.424 258.832 350.68C258.288 350.936 257.68 351.064 257.008 351.064Z" fill="black"/>
<path d="M555.008 351.064C554.197 351.064 553.472 350.883 552.832 350.52C552.203 350.157 551.701 349.656 551.328 349.016C550.965 348.376 550.784 347.645 550.784 346.824C550.784 345.992 550.965 345.256 551.328 344.616C551.701 343.976 552.203 343.48 552.832 343.128C553.472 342.765 554.197 342.584 555.008 342.584C555.68 342.584 556.288 342.712 556.832 342.968C557.387 343.224 557.835 343.608 558.176 344.12L557.584 344.552C557.285 344.125 556.912 343.811 556.464 343.608C556.016 343.405 555.531 343.304 555.008 343.304C554.357 343.304 553.771 343.453 553.248 343.752C552.736 344.04 552.331 344.451 552.032 344.984C551.744 345.507 551.6 346.12 551.6 346.824C551.6 347.528 551.744 348.147 552.032 348.68C552.331 349.203 552.736 349.613 553.248 349.912C553.771 350.2 554.357 350.344 555.008 350.344C555.531 350.344 556.016 350.243 556.464 350.04C556.912 349.837 557.285 349.523 557.584 349.096L558.176 349.528C557.835 350.04 557.387 350.424 556.832 350.68C556.288 350.936 555.68 351.064 555.008 351.064Z" fill="black"/>
<path d="M132.696 305V296.648H133.464V298.936L133.384 298.68C133.619 298.008 134.013 297.491 134.568 297.128C135.123 296.765 135.816 296.584 136.648 296.584V297.368C136.616 297.368 136.584 297.368 136.552 297.368C136.52 297.357 136.488 297.352 136.456 297.352C135.528 297.352 134.803 297.645 134.28 298.232C133.757 298.808 133.496 299.613 133.496 300.648V305H132.696Z" fill="black"/>
<path d="M302.696 305V296.648H303.464V298.936L303.384 298.68C303.619 298.008 304.013 297.491 304.568 297.128C305.123 296.765 305.816 296.584 306.648 296.584V297.368C306.616 297.368 306.584 297.368 306.552 297.368C306.52 297.357 306.488 297.352 306.456 297.352C305.528 297.352 304.803 297.645 304.28 298.232C303.757 298.808 303.496 299.613 303.496 300.648V305H302.696Z" fill="black"/>
<path d="M600.696 305V296.648H601.464V298.936L601.384 298.68C601.619 298.008 602.013 297.491 602.568 297.128C603.123 296.765 603.816 296.584 604.648 296.584V297.368C604.616 297.368 604.584 297.368 604.552 297.368C604.52 297.357 604.488 297.352 604.456 297.352C603.528 297.352 602.803 297.645 602.28 298.232C601.757 298.808 601.496 299.613 601.496 300.648V305H600.696Z" fill="black"/>
<path d="M136.96 351V349.096L136.928 348.808V345.672C136.928 344.893 136.715 344.301 136.288 343.896C135.872 343.491 135.259 343.288 134.448 343.288C133.872 343.288 133.333 343.389 132.832 343.592C132.341 343.784 131.92 344.035 131.568 344.344L131.168 343.768C131.584 343.395 132.085 343.107 132.672 342.904C133.259 342.691 133.872 342.584 134.512 342.584C135.547 342.584 136.341 342.845 136.896 343.368C137.451 343.891 137.728 344.669 137.728 345.704V351H136.96ZM133.952 351.064C133.333 351.064 132.795 350.968 132.336 350.776C131.888 350.573 131.541 350.291 131.296 349.928C131.061 349.565 130.944 349.149 130.944 348.68C130.944 348.253 131.04 347.869 131.232 347.528C131.435 347.176 131.765 346.893 132.224 346.68C132.683 346.456 133.296 346.344 134.064 346.344H137.136V346.968H134.08C133.216 346.968 132.608 347.128 132.256 347.448C131.915 347.768 131.744 348.168 131.744 348.648C131.744 349.181 131.947 349.608 132.352 349.928C132.757 350.248 133.328 350.408 134.064 350.408C134.768 350.408 135.36 350.248 135.84 349.928C136.331 349.608 136.693 349.144 136.928 348.536L137.152 349.08C136.928 349.688 136.544 350.173 136 350.536C135.467 350.888 134.784 351.064 133.952 351.064Z" fill="black"/>
<path d="M306.96 351V349.096L306.928 348.808V345.672C306.928 344.893 306.715 344.301 306.288 343.896C305.872 343.491 305.259 343.288 304.448 343.288C303.872 343.288 303.333 343.389 302.832 343.592C302.341 343.784 301.92 344.035 301.568 344.344L301.168 343.768C301.584 343.395 302.085 343.107 302.672 342.904C303.259 342.691 303.872 342.584 304.512 342.584C305.547 342.584 306.341 342.845 306.896 343.368C307.451 343.891 307.728 344.669 307.728 345.704V351H306.96ZM303.952 351.064C303.333 351.064 302.795 350.968 302.336 350.776C301.888 350.573 301.541 350.291 301.296 349.928C301.061 349.565 300.944 349.149 300.944 348.68C300.944 348.253 301.04 347.869 301.232 347.528C301.435 347.176 301.765 346.893 302.224 346.68C302.683 346.456 303.296 346.344 304.064 346.344H307.136V346.968H304.08C303.216 346.968 302.608 347.128 302.256 347.448C301.915 347.768 301.744 348.168 301.744 348.648C301.744 349.181 301.947 349.608 302.352 349.928C302.757 350.248 303.328 350.408 304.064 350.408C304.768 350.408 305.36 350.248 305.84 349.928C306.331 349.608 306.693 349.144 306.928 348.536L307.152 349.08C306.928 349.688 306.544 350.173 306 350.536C305.467 350.888 304.784 351.064 303.952 351.064Z" fill="black"/>
<path d="M604.96 351V349.096L604.928 348.808V345.672C604.928 344.893 604.715 344.301 604.288 343.896C603.872 343.491 603.259 343.288 602.448 343.288C601.872 343.288 601.333 343.389 600.832 343.592C600.341 343.784 599.92 344.035 599.568 344.344L599.168 343.768C599.584 343.395 600.085 343.107 600.672 342.904C601.259 342.691 601.872 342.584 602.512 342.584C603.547 342.584 604.341 342.845 604.896 343.368C605.451 343.891 605.728 344.669 605.728 345.704V351H604.96ZM601.952 351.064C601.333 351.064 600.795 350.968 600.336 350.776C599.888 350.573 599.541 350.291 599.296 349.928C599.061 349.565 598.944 349.149 598.944 348.68C598.944 348.253 599.04 347.869 599.232 347.528C599.435 347.176 599.765 346.893 600.224 346.68C600.683 346.456 601.296 346.344 602.064 346.344H605.136V346.968H602.08C601.216 346.968 600.608 347.128 600.256 347.448C599.915 347.768 599.744 348.168 599.744 348.648C599.744 349.181 599.947 349.608 600.352 349.928C600.757 350.248 601.328 350.408 602.064 350.408C602.768 350.408 603.36 350.248 603.84 349.928C604.331 349.608 604.693 349.144 604.928 348.536L605.152 349.08C604.928 349.688 604.544 350.173 604 350.536C603.467 350.888 602.784 351.064 601.952 351.064Z" fill="black"/>
<path d="M182.128 305.064C181.392 305.064 180.827 304.861 180.432 304.456C180.048 304.051 179.856 303.496 179.856 302.792V294.824H180.656V302.712C180.656 303.245 180.789 303.656 181.056 303.944C181.323 304.232 181.707 304.376 182.208 304.376C182.731 304.376 183.163 304.221 183.504 303.912L183.84 304.472C183.627 304.675 183.365 304.824 183.056 304.92C182.757 305.016 182.448 305.064 182.128 305.064ZM178.32 297.336V296.648H183.312V297.336H178.32Z" fill="black"/>
<path d="M352.128 305.064C351.392 305.064 350.827 304.861 350.432 304.456C350.048 304.051 349.856 303.496 349.856 302.792V294.824H350.656V302.712C350.656 303.245 350.789 303.656 351.056 303.944C351.323 304.232 351.707 304.376 352.208 304.376C352.731 304.376 353.163 304.221 353.504 303.912L353.84 304.472C353.627 304.675 353.365 304.824 353.056 304.92C352.757 305.016 352.448 305.064 352.128 305.064ZM348.32 297.336V296.648H353.312V297.336H348.32Z" fill="black"/>
<path d="M650.128 305.064C649.392 305.064 648.827 304.861 648.432 304.456C648.048 304.051 647.856 303.496 647.856 302.792V294.824H648.656V302.712C648.656 303.245 648.789 303.656 649.056 303.944C649.323 304.232 649.707 304.376 650.208 304.376C650.731 304.376 651.163 304.221 651.504 303.912L651.84 304.472C651.627 304.675 651.365 304.824 651.056 304.92C650.757 305.016 650.448 305.064 650.128 305.064ZM646.32 297.336V296.648H651.312V297.336H646.32Z" fill="black"/>
<path d="M180.912 351.064C180.133 351.064 179.429 350.888 178.8 350.536C178.181 350.173 177.691 349.672 177.328 349.032C176.965 348.392 176.784 347.656 176.784 346.824C176.784 345.981 176.965 345.245 177.328 344.616C177.691 343.976 178.181 343.48 178.8 343.128C179.429 342.765 180.133 342.584 180.912 342.584C181.648 342.584 182.309 342.755 182.896 343.096C183.493 343.437 183.963 343.923 184.304 344.552C184.656 345.181 184.832 345.939 184.832 346.824C184.832 347.688 184.661 348.44 184.32 349.08C183.979 349.72 183.509 350.211 182.912 350.552C182.325 350.893 181.659 351.064 180.912 351.064ZM180.96 350.344C181.6 350.344 182.171 350.2 182.672 349.912C183.184 349.613 183.584 349.197 183.872 348.664C184.171 348.131 184.32 347.517 184.32 346.824C184.32 346.12 184.171 345.507 183.872 344.984C183.584 344.451 183.184 344.04 182.672 343.752C182.171 343.453 181.6 343.304 180.96 343.304C180.32 343.304 179.744 343.453 179.232 343.752C178.731 344.04 178.331 344.451 178.032 344.984C177.744 345.507 177.6 346.12 177.6 346.824C177.6 347.517 177.744 348.131 178.032 348.664C178.331 349.197 178.731 349.613 179.232 349.912C179.744 350.2 180.32 350.344 180.96 350.344ZM184.336 351V348.264L184.48 346.808L184.32 345.352V339.128H185.12V351H184.336Z" fill="black"/>
<path d="M350.912 351.064C350.133 351.064 349.429 350.888 348.8 350.536C348.181 350.173 347.691 349.672 347.328 349.032C346.965 348.392 346.784 347.656 346.784 346.824C346.784 345.981 346.965 345.245 347.328 344.616C347.691 343.976 348.181 343.48 348.8 343.128C349.429 342.765 350.133 342.584 350.912 342.584C351.648 342.584 352.309 342.755 352.896 343.096C353.493 343.437 353.963 343.923 354.304 344.552C354.656 345.181 354.832 345.939 354.832 346.824C354.832 347.688 354.661 348.44 354.32 349.08C353.979 349.72 353.509 350.211 352.912 350.552C352.325 350.893 351.659 351.064 350.912 351.064ZM350.96 350.344C351.6 350.344 352.171 350.2 352.672 349.912C353.184 349.613 353.584 349.197 353.872 348.664C354.171 348.131 354.32 347.517 354.32 346.824C354.32 346.12 354.171 345.507 353.872 344.984C353.584 344.451 353.184 344.04 352.672 343.752C352.171 343.453 351.6 343.304 350.96 343.304C350.32 343.304 349.744 343.453 349.232 343.752C348.731 344.04 348.331 344.451 348.032 344.984C347.744 345.507 347.6 346.12 347.6 346.824C347.6 347.517 347.744 348.131 348.032 348.664C348.331 349.197 348.731 349.613 349.232 349.912C349.744 350.2 350.32 350.344 350.96 350.344ZM354.336 351V348.264L354.48 346.808L354.32 345.352V339.128H355.12V351H354.336Z" fill="black"/>
<path d="M648.912 351.064C648.133 351.064 647.429 350.888 646.8 350.536C646.181 350.173 645.691 349.672 645.328 349.032C644.965 348.392 644.784 347.656 644.784 346.824C644.784 345.981 644.965 345.245 645.328 344.616C645.691 343.976 646.181 343.48 646.8 343.128C647.429 342.765 648.133 342.584 648.912 342.584C649.648 342.584 650.309 342.755 650.896 343.096C651.493 343.437 651.963 343.923 652.304 344.552C652.656 345.181 652.832 345.939 652.832 346.824C652.832 347.688 652.661 348.44 652.32 349.08C651.979 349.72 651.509 350.211 650.912 350.552C650.325 350.893 649.659 351.064 648.912 351.064ZM648.96 350.344C649.6 350.344 650.171 350.2 650.672 349.912C651.184 349.613 651.584 349.197 651.872 348.664C652.171 348.131 652.32 347.517 652.32 346.824C652.32 346.12 652.171 345.507 651.872 344.984C651.584 344.451 651.184 344.04 650.672 343.752C650.171 343.453 649.6 343.304 648.96 343.304C648.32 343.304 647.744 343.453 647.232 343.752C646.731 344.04 646.331 344.451 646.032 344.984C645.744 345.507 645.6 346.12 645.6 346.824C645.6 347.517 645.744 348.131 646.032 348.664C646.331 349.197 646.731 349.613 647.232 349.912C647.744 350.2 648.32 350.344 648.96 350.344ZM652.336 351V348.264L652.48 346.808L652.32 345.352V339.128H653.12V351H652.336Z" fill="black"/>
<line x1="1357.76" y1="190.563" x2="1411.76" y2="160.563" stroke="black"/>
<line x1="1466.24" y1="130.437" x2="1412.24" y2="160.437" stroke="black"/>
<line y1="-0.5" x2="61.7738" y2="-0.5" transform="matrix(0.874157 0.485643 0.485643 -0.874157 1412 161)" stroke="black"/>
<line y1="-0.5" x2="61.7738" y2="-0.5" transform="matrix(-0.874157 -0.485643 -0.485643 0.874157 1412 160)" stroke="black"/>
<line y1="-0.5" x2="61.7738" y2="-0.5" transform="matrix(-4.37114e-08 -1 -1 4.37114e-08 1412 159.774)" stroke="black"/>
<line y1="-0.5" x2="61.7738" y2="-0.5" transform="matrix(-4.37114e-08 -1 -1 4.37114e-08 1412 223.774)" stroke="black"/>
<circle cx="1394" cy="127" r="6" fill="black"/>
<circle cx="1447" cy="161" r="6" fill="black"/>
<circle cx="1394" cy="193" r="6" fill="black"/>
<path d="M1357.01 130.039L1411.5 98.5774L1465.99 130.039V192.961L1411.5 224.423L1357.01 192.961V130.039Z" stroke="black"/>
<circle cx="1412" cy="98" r="11.5" fill="white" stroke="black"/>
<circle cx="1358" cy="130" r="11.5" fill="white" stroke="black"/>
<circle cx="1358" cy="191" r="11.5" fill="white" stroke="black"/>
<circle cx="1412" cy="225" r="11.5" fill="white" stroke="black"/>
<circle cx="1465" cy="191" r="11.5" fill="white" stroke="black"/>
<circle cx="1412" cy="161" r="11.5" fill="white" stroke="black"/>
<circle cx="1465" cy="130" r="11.5" fill="white" stroke="black"/>
<path d="M1359.96 134V132.096L1359.93 131.808V128.672C1359.93 127.893 1359.71 127.301 1359.29 126.896C1358.87 126.491 1358.26 126.288 1357.45 126.288C1356.87 126.288 1356.33 126.389 1355.83 126.592C1355.34 126.784 1354.92 127.035 1354.57 127.344L1354.17 126.768C1354.58 126.395 1355.09 126.107 1355.67 125.904C1356.26 125.691 1356.87 125.584 1357.51 125.584C1358.55 125.584 1359.34 125.845 1359.9 126.368C1360.45 126.891 1360.73 127.669 1360.73 128.704V134H1359.96ZM1356.95 134.064C1356.33 134.064 1355.79 133.968 1355.34 133.776C1354.89 133.573 1354.54 133.291 1354.3 132.928C1354.06 132.565 1353.94 132.149 1353.94 131.68C1353.94 131.253 1354.04 130.869 1354.23 130.528C1354.43 130.176 1354.77 129.893 1355.22 129.68C1355.68 129.456 1356.3 129.344 1357.06 129.344H1360.14V129.968H1357.08C1356.22 129.968 1355.61 130.128 1355.26 130.448C1354.91 130.768 1354.74 131.168 1354.74 131.648C1354.74 132.181 1354.95 132.608 1355.35 132.928C1355.76 133.248 1356.33 133.408 1357.06 133.408C1357.77 133.408 1358.36 133.248 1358.84 132.928C1359.33 132.608 1359.69 132.144 1359.93 131.536L1360.15 132.08C1359.93 132.688 1359.54 133.173 1359 133.536C1358.47 133.888 1357.78 134.064 1356.95 134.064Z" fill="black"/>
<path d="M1410.7 102V93.648H1411.46V95.936L1411.38 95.68C1411.62 95.008 1412.01 94.4907 1412.57 94.128C1413.12 93.7653 1413.82 93.584 1414.65 93.584V94.368C1414.62 94.368 1414.58 94.368 1414.55 94.368C1414.52 94.3573 1414.49 94.352 1414.46 94.352C1413.53 94.352 1412.8 94.6453 1412.28 95.232C1411.76 95.808 1411.5 96.6133 1411.5 97.648V102H1410.7Z" fill="black"/>
<path d="M1466.13 135.064C1465.39 135.064 1464.83 134.861 1464.43 134.456C1464.05 134.051 1463.86 133.496 1463.86 132.792V124.824H1464.66V132.712C1464.66 133.245 1464.79 133.656 1465.06 133.944C1465.32 134.232 1465.71 134.376 1466.21 134.376C1466.73 134.376 1467.16 134.221 1467.5 133.912L1467.84 134.472C1467.63 134.675 1467.37 134.824 1467.06 134.92C1466.76 135.016 1466.45 135.064 1466.13 135.064ZM1462.32 127.336V126.648H1467.31V127.336H1462.32Z" fill="black"/>
<path d="M1465.01 195.064C1464.2 195.064 1463.47 194.883 1462.83 194.52C1462.2 194.157 1461.7 193.656 1461.33 193.016C1460.97 192.376 1460.78 191.645 1460.78 190.824C1460.78 189.992 1460.97 189.256 1461.33 188.616C1461.7 187.976 1462.2 187.48 1462.83 187.128C1463.47 186.765 1464.2 186.584 1465.01 186.584C1465.68 186.584 1466.29 186.712 1466.83 186.968C1467.39 187.224 1467.83 187.608 1468.18 188.12L1467.58 188.552C1467.29 188.125 1466.91 187.811 1466.46 187.608C1466.02 187.405 1465.53 187.304 1465.01 187.304C1464.36 187.304 1463.77 187.453 1463.25 187.752C1462.74 188.04 1462.33 188.451 1462.03 188.984C1461.74 189.507 1461.6 190.12 1461.6 190.824C1461.6 191.528 1461.74 192.147 1462.03 192.68C1462.33 193.203 1462.74 193.613 1463.25 193.912C1463.77 194.2 1464.36 194.344 1465.01 194.344C1465.53 194.344 1466.02 194.243 1466.46 194.04C1466.91 193.837 1467.29 193.523 1467.58 193.096L1468.18 193.528C1467.83 194.04 1467.39 194.424 1466.83 194.68C1466.29 194.936 1465.68 195.064 1465.01 195.064Z" fill="black"/>
<path d="M1413.96 230V228.096L1413.93 227.808V224.672C1413.93 223.893 1413.71 223.301 1413.29 222.896C1412.87 222.491 1412.26 222.288 1411.45 222.288C1410.87 222.288 1410.33 222.389 1409.83 222.592C1409.34 222.784 1408.92 223.035 1408.57 223.344L1408.17 222.768C1408.58 222.395 1409.09 222.107 1409.67 221.904C1410.26 221.691 1410.87 221.584 1411.51 221.584C1412.55 221.584 1413.34 221.845 1413.9 222.368C1414.45 222.891 1414.73 223.669 1414.73 224.704V230H1413.96ZM1410.95 230.064C1410.33 230.064 1409.79 229.968 1409.34 229.776C1408.89 229.573 1408.54 229.291 1408.3 228.928C1408.06 228.565 1407.94 228.149 1407.94 227.68C1407.94 227.253 1408.04 226.869 1408.23 226.528C1408.43 226.176 1408.77 225.893 1409.22 225.68C1409.68 225.456 1410.3 225.344 1411.06 225.344H1414.14V225.968H1411.08C1410.22 225.968 1409.61 226.128 1409.26 226.448C1408.91 226.768 1408.74 227.168 1408.74 227.648C1408.74 228.181 1408.95 228.608 1409.35 228.928C1409.76 229.248 1410.33 229.408 1411.06 229.408C1411.77 229.408 1412.36 229.248 1412.84 228.928C1413.33 228.608 1413.69 228.144 1413.93 227.536L1414.15 228.08C1413.93 228.688 1413.54 229.173 1413 229.536C1412.47 229.888 1411.78 230.064 1410.95 230.064Z" fill="black"/>
<path d="M1356.91 196.064C1356.13 196.064 1355.43 195.888 1354.8 195.536C1354.18 195.173 1353.69 194.672 1353.33 194.032C1352.97 193.392 1352.78 192.656 1352.78 191.824C1352.78 190.981 1352.97 190.245 1353.33 189.616C1353.69 188.976 1354.18 188.48 1354.8 188.128C1355.43 187.765 1356.13 187.584 1356.91 187.584C1357.65 187.584 1358.31 187.755 1358.9 188.096C1359.49 188.437 1359.96 188.923 1360.3 189.552C1360.66 190.181 1360.83 190.939 1360.83 191.824C1360.83 192.688 1360.66 193.44 1360.32 194.08C1359.98 194.72 1359.51 195.211 1358.91 195.552C1358.33 195.893 1357.66 196.064 1356.91 196.064ZM1356.96 195.344C1357.6 195.344 1358.17 195.2 1358.67 194.912C1359.18 194.613 1359.58 194.197 1359.87 193.664C1360.17 193.131 1360.32 192.517 1360.32 191.824C1360.32 191.12 1360.17 190.507 1359.87 189.984C1359.58 189.451 1359.18 189.04 1358.67 188.752C1358.17 188.453 1357.6 188.304 1356.96 188.304C1356.32 188.304 1355.74 188.453 1355.23 188.752C1354.73 189.04 1354.33 189.451 1354.03 189.984C1353.74 190.507 1353.6 191.12 1353.6 191.824C1353.6 192.517 1353.74 193.131 1354.03 193.664C1354.33 194.197 1354.73 194.613 1355.23 194.912C1355.74 195.2 1356.32 195.344 1356.96 195.344ZM1360.34 196V193.264L1360.48 191.808L1360.32 190.352V184.128H1361.12V196H1360.34Z" fill="black"/>
<path d="M158.5 657L187.5 683L140.5 673L158.5 657Z" fill="#FCF658"/>
<path d="M140.5 673.5L164 694.5L140.5 716V673.5Z" fill="#4844FF"/>
<path d="M188 640.5V683L140.5 640.5H188Z" fill="#FF3131"/>
<path d="M311.644 571C311.644 576.12 312.804 580.56 315.124 584.32C317.444 588 320.484 590.8 324.244 592.72C328.084 594.64 332.284 595.6 336.844 595.6C340.844 595.6 344.364 595.08 347.404 594.04C350.444 593 353.164 591.64 355.564 589.96C357.964 588.28 360.084 586.48 361.924 584.56V606.4C358.564 609.04 354.884 611.12 350.884 612.64C346.884 614.16 341.804 614.92 335.644 614.92C328.924 614.92 322.724 613.88 317.044 611.8C311.364 609.72 306.484 606.72 302.404 602.8C298.324 598.88 295.164 594.24 292.924 588.88C290.684 583.52 289.564 577.56 289.564 571C289.564 564.44 290.684 558.48 292.924 553.12C295.164 547.76 298.324 543.12 302.404 539.2C306.484 535.28 311.364 532.28 317.044 530.2C322.724 528.12 328.924 527.08 335.644 527.08C341.804 527.08 346.884 527.84 350.884 529.36C354.884 530.88 358.564 532.96 361.924 535.6V557.44C360.084 555.52 357.964 553.72 355.564 552.04C353.164 550.28 350.444 548.92 347.404 547.96C344.364 546.92 340.844 546.4 336.844 546.4C332.284 546.4 328.084 547.36 324.244 549.28C320.484 551.2 317.444 554 315.124 557.68C312.804 561.36 311.644 565.8 311.644 571ZM391.146 596.8L392.586 581.32H434.226L435.546 596.8H391.146ZM413.106 559.84L401.346 586.96L402.306 591.4L391.866 613H368.946L413.106 523.72L457.386 613H434.346L424.266 592.24L424.986 587.08L413.106 559.84ZM467.389 529H488.269V613H467.389V529ZM497.389 613H480.829V595H496.669C499.869 595 502.949 594.6 505.909 593.8C508.949 593 511.589 591.68 513.829 589.84C516.149 588 517.989 585.56 519.349 582.52C520.709 579.4 521.389 575.56 521.389 571C521.389 566.44 520.709 562.64 519.349 559.6C517.989 556.48 516.149 554 513.829 552.16C511.589 550.32 508.949 549 505.909 548.2C502.949 547.4 499.869 547 496.669 547H480.829V529H497.389C506.589 529 514.549 530.72 521.269 534.16C527.989 537.6 533.189 542.44 536.869 548.68C540.549 554.92 542.389 562.36 542.389 571C542.389 579.56 540.549 587 536.869 593.32C533.189 599.56 527.989 604.4 521.269 607.84C514.549 611.28 506.589 613 497.389 613Z" fill="#070505"/>
<rect x="0.25" y="0.25" width="89.5" height="186.5" transform="matrix(5.21518e-08 1 1 -3.6637e-08 81 528)" stroke="black" stroke-width="0.5"/>
<path d="M81.5 617.5L184 528.5" stroke="black" stroke-width="0.5"/>
<path d="M121.5 582.5L161.164 617.811" stroke="black" stroke-width="0.5"/>
<path d="M185 528L161 618" stroke="black" stroke-width="0.5"/>
<line x1="160.838" y1="617.81" x2="267.646" y2="526.643" stroke="black" stroke-width="0.5"/>
<line y1="-0.25" x2="70.4178" y2="-0.25" transform="matrix(-0.759925 -0.650011 0.812018 -0.583632 267.809 618.377)" stroke="black" stroke-width="0.5"/>
<path d="M122 582.915L185 528L160.769 617L122 582.915Z" fill="#FCF658"/>
<path d="M162 617L212.894 573L265 617L162 617Z" fill="#4844FF"/>
<path d="M81 528L184 528L81.5 617.5L81 528Z" fill="#FF3131"/>
<line x1="903.757" y1="388.563" x2="957.757" y2="358.563" stroke="black"/>
<line x1="1012.24" y1="328.437" x2="958.243" y2="358.437" stroke="black"/>
<line y1="-0.5" x2="61.7738" y2="-0.5" transform="matrix(0.874157 0.485643 0.485643 -0.874157 958 359)" stroke="black"/>
<line y1="-0.5" x2="61.7738" y2="-0.5" transform="matrix(-0.874157 -0.485643 -0.485643 0.874157 958 358)" stroke="black"/>
<line y1="-0.5" x2="61.7738" y2="-0.5" transform="matrix(-4.37114e-08 -1 -1 4.37114e-08 958 357.774)" stroke="black"/>
<line x1="942.773" y1="326.894" x2="956.773" y2="296.894" stroke="black" stroke-width="0.5"/>
<line x1="942.013" y1="327.25" x2="903.013" y2="329.25" stroke="black" stroke-width="0.5"/>
<line x1="957.778" y1="358.115" x2="941.778" y2="327.115" stroke="black" stroke-width="0.5"/>
<line y1="-0.5" x2="61.7738" y2="-0.5" transform="matrix(-4.37114e-08 -1 -1 4.37114e-08 958 421.774)" stroke="black"/>
<circle cx="942" cy="327" r="6" fill="black"/>
<circle cx="992" cy="360" r="6" fill="black"/>
<circle cx="941" cy="390" r="6" fill="black"/>
<g filter="url(#filter0_b_1_2)">
<path d="M903.007 328.039L957.5 296.577L1011.99 328.039V390.961L957.5 422.423L903.007 390.961V328.039Z" stroke="black"/>
</g>
<circle cx="958" cy="296" r="11.5" fill="white" stroke="black"/>
<circle cx="903.5" cy="328.5" r="15.5" fill="url(#paint2_radial_1_2)"/>
<circle cx="904" cy="389" r="11.5" fill="white" stroke="black"/>
<circle cx="958" cy="423" r="11.5" fill="white" stroke="black"/>
<circle cx="1011" cy="389" r="12" fill="url(#paint3_radial_1_2)"/>
<circle cx="958" cy="359" r="11.5" fill="white" stroke="black"/>
<circle cx="1011" cy="328" r="11.5" fill="white" stroke="black"/>
<path d="M905.96 332V330.096L905.928 329.808V326.672C905.928 325.893 905.715 325.301 905.288 324.896C904.872 324.491 904.259 324.288 903.448 324.288C902.872 324.288 902.333 324.389 901.832 324.592C901.341 324.784 900.92 325.035 900.568 325.344L900.168 324.768C900.584 324.395 901.085 324.107 901.672 323.904C902.259 323.691 902.872 323.584 903.512 323.584C904.547 323.584 905.341 323.845 905.896 324.368C906.451 324.891 906.728 325.669 906.728 326.704V332H905.96ZM902.952 332.064C902.333 332.064 901.795 331.968 901.336 331.776C900.888 331.573 900.541 331.291 900.296 330.928C900.061 330.565 899.944 330.149 899.944 329.68C899.944 329.253 900.04 328.869 900.232 328.528C900.435 328.176 900.765 327.893 901.224 327.68C901.683 327.456 902.296 327.344 903.064 327.344H906.136V327.968H903.08C902.216 327.968 901.608 328.128 901.256 328.448C900.915 328.768 900.744 329.168 900.744 329.648C900.744 330.181 900.947 330.608 901.352 330.928C901.757 331.248 902.328 331.408 903.064 331.408C903.768 331.408 904.36 331.248 904.84 330.928C905.331 330.608 905.693 330.144 905.928 329.536L906.152 330.08C905.928 330.688 905.544 331.173 905 331.536C904.467 331.888 903.784 332.064 902.952 332.064Z" fill="black"/>
<path d="M956.696 300V291.648H957.464V293.936L957.384 293.68C957.619 293.008 958.013 292.491 958.568 292.128C959.123 291.765 959.816 291.584 960.648 291.584V292.368C960.616 292.368 960.584 292.368 960.552 292.368C960.52 292.357 960.488 292.352 960.456 292.352C959.528 292.352 958.803 292.645 958.28 293.232C957.757 293.808 957.496 294.613 957.496 295.648V300H956.696Z" fill="black"/>
<path d="M1012.13 333.064C1011.39 333.064 1010.83 332.861 1010.43 332.456C1010.05 332.051 1009.86 331.496 1009.86 330.792V322.824H1010.66V330.712C1010.66 331.245 1010.79 331.656 1011.06 331.944C1011.32 332.232 1011.71 332.376 1012.21 332.376C1012.73 332.376 1013.16 332.221 1013.5 331.912L1013.84 332.472C1013.63 332.675 1013.37 332.824 1013.06 332.92C1012.76 333.016 1012.45 333.064 1012.13 333.064ZM1008.32 325.336V324.648H1013.31V325.336H1008.32Z" fill="black"/>
<path d="M1011.01 393.064C1010.2 393.064 1009.47 392.883 1008.83 392.52C1008.2 392.157 1007.7 391.656 1007.33 391.016C1006.97 390.376 1006.78 389.645 1006.78 388.824C1006.78 387.992 1006.97 387.256 1007.33 386.616C1007.7 385.976 1008.2 385.48 1008.83 385.128C1009.47 384.765 1010.2 384.584 1011.01 384.584C1011.68 384.584 1012.29 384.712 1012.83 384.968C1013.39 385.224 1013.83 385.608 1014.18 386.12L1013.58 386.552C1013.29 386.125 1012.91 385.811 1012.46 385.608C1012.02 385.405 1011.53 385.304 1011.01 385.304C1010.36 385.304 1009.77 385.453 1009.25 385.752C1008.74 386.04 1008.33 386.451 1008.03 386.984C1007.74 387.507 1007.6 388.12 1007.6 388.824C1007.6 389.528 1007.74 390.147 1008.03 390.68C1008.33 391.203 1008.74 391.613 1009.25 391.912C1009.77 392.2 1010.36 392.344 1011.01 392.344C1011.53 392.344 1012.02 392.243 1012.46 392.04C1012.91 391.837 1013.29 391.523 1013.58 391.096L1014.18 391.528C1013.83 392.04 1013.39 392.424 1012.83 392.68C1012.29 392.936 1011.68 393.064 1011.01 393.064Z" fill="black"/>
<path d="M959.96 428V426.096L959.928 425.808V422.672C959.928 421.893 959.715 421.301 959.288 420.896C958.872 420.491 958.259 420.288 957.448 420.288C956.872 420.288 956.333 420.389 955.832 420.592C955.341 420.784 954.92 421.035 954.568 421.344L954.168 420.768C954.584 420.395 955.085 420.107 955.672 419.904C956.259 419.691 956.872 419.584 957.512 419.584C958.547 419.584 959.341 419.845 959.896 420.368C960.451 420.891 960.728 421.669 960.728 422.704V428H959.96ZM956.952 428.064C956.333 428.064 955.795 427.968 955.336 427.776C954.888 427.573 954.541 427.291 954.296 426.928C954.061 426.565 953.944 426.149 953.944 425.68C953.944 425.253 954.04 424.869 954.232 424.528C954.435 424.176 954.765 423.893 955.224 423.68C955.683 423.456 956.296 423.344 957.064 423.344H960.136V423.968H957.08C956.216 423.968 955.608 424.128 955.256 424.448C954.915 424.768 954.744 425.168 954.744 425.648C954.744 426.181 954.947 426.608 955.352 426.928C955.757 427.248 956.328 427.408 957.064 427.408C957.768 427.408 958.36 427.248 958.84 426.928C959.331 426.608 959.693 426.144 959.928 425.536L960.152 426.08C959.928 426.688 959.544 427.173 959 427.536C958.467 427.888 957.784 428.064 956.952 428.064Z" fill="black"/>
<path d="M902.912 394.064C902.133 394.064 901.429 393.888 900.8 393.536C900.181 393.173 899.691 392.672 899.328 392.032C898.965 391.392 898.784 390.656 898.784 389.824C898.784 388.981 898.965 388.245 899.328 387.616C899.691 386.976 900.181 386.48 900.8 386.128C901.429 385.765 902.133 385.584 902.912 385.584C903.648 385.584 904.309 385.755 904.896 386.096C905.493 386.437 905.963 386.923 906.304 387.552C906.656 388.181 906.832 388.939 906.832 389.824C906.832 390.688 906.661 391.44 906.32 392.08C905.979 392.72 905.509 393.211 904.912 393.552C904.325 393.893 903.659 394.064 902.912 394.064ZM902.96 393.344C903.6 393.344 904.171 393.2 904.672 392.912C905.184 392.613 905.584 392.197 905.872 391.664C906.171 391.131 906.32 390.517 906.32 389.824C906.32 389.12 906.171 388.507 905.872 387.984C905.584 387.451 905.184 387.04 904.672 386.752C904.171 386.453 903.6 386.304 902.96 386.304C902.32 386.304 901.744 386.453 901.232 386.752C900.731 387.04 900.331 387.451 900.032 387.984C899.744 388.507 899.6 389.12 899.6 389.824C899.6 390.517 899.744 391.131 900.032 391.664C900.331 392.197 900.731 392.613 901.232 392.912C901.744 393.2 902.32 393.344 902.96 393.344ZM906.336 394V391.264L906.48 389.808L906.32 388.352V382.128H907.12V394H906.336Z" fill="black"/>
<line x1="1091.63" y1="395.674" x2="1168.83" y2="352.785" stroke="black"/>
<path d="M1169 352.5L1246.03 396.548" stroke="black"/>
<line x1="1168.5" y1="353" x2="1168.5" y2="263" stroke="black"/>
<ellipse cx="1169" cy="397.5" rx="13" ry="13.5" fill="black"/>
<ellipse cx="1208" cy="334.5" rx="13" ry="13.5" fill="black"/>
<ellipse cx="1133" cy="332.5" rx="13" ry="13.5" fill="black"/>
<path d="M1090.24 308.835L1168.36 263.733L1246.48 308.835V399.039L1168.36 444.141L1090.24 399.039V308.835Z" stroke="black"/>
<circle cx="1089.5" cy="305.5" r="15.5" fill="url(#paint4_radial_1_2)"/>
<circle cx="1244.84" cy="396.111" r="17.1556" fill="url(#paint5_radial_1_2)"/>
<circle cx="1090" cy="394" r="10.5" fill="white" stroke="black"/>
<circle cx="1168" cy="442" r="10.5" fill="white" stroke="black"/>
<circle cx="1248" cy="310" r="10.5" fill="white" stroke="black"/>
<circle cx="1168" cy="260" r="10.5" fill="white" stroke="black"/>
<path d="M1091.69 307.748V305.844L1091.65 305.556V302.42C1091.65 301.641 1091.44 301.049 1091.01 300.644C1090.6 300.239 1089.98 300.036 1089.17 300.036C1088.6 300.036 1088.06 300.137 1087.56 300.34C1087.07 300.532 1086.65 300.783 1086.29 301.092L1085.89 300.516C1086.31 300.143 1086.81 299.855 1087.4 299.652C1087.98 299.439 1088.6 299.332 1089.24 299.332C1090.27 299.332 1091.07 299.593 1091.62 300.116C1092.18 300.639 1092.45 301.417 1092.45 302.452V307.748H1091.69ZM1088.68 307.812C1088.06 307.812 1087.52 307.716 1087.06 307.524C1086.61 307.321 1086.27 307.039 1086.02 306.676C1085.79 306.313 1085.67 305.897 1085.67 305.428C1085.67 305.001 1085.77 304.617 1085.96 304.276C1086.16 303.924 1086.49 303.641 1086.95 303.428C1087.41 303.204 1088.02 303.092 1088.79 303.092H1091.86V303.716H1088.81C1087.94 303.716 1087.33 303.876 1086.98 304.196C1086.64 304.516 1086.47 304.916 1086.47 305.396C1086.47 305.929 1086.67 306.356 1087.08 306.676C1087.48 306.996 1088.05 307.156 1088.79 307.156C1089.49 307.156 1090.09 306.996 1090.57 306.676C1091.06 306.356 1091.42 305.892 1091.65 305.284L1091.88 305.828C1091.65 306.436 1091.27 306.921 1090.73 307.284C1090.19 307.636 1089.51 307.812 1088.68 307.812Z" fill="black"/>
<path d="M1165.48 264V255.648H1166.25V257.936L1166.17 257.68C1166.4 257.008 1166.8 256.491 1167.35 256.128C1167.91 255.765 1168.6 255.584 1169.43 255.584V256.368C1169.4 256.368 1169.37 256.368 1169.34 256.368C1169.31 256.357 1169.27 256.352 1169.24 256.352C1168.31 256.352 1167.59 256.645 1167.07 257.232C1166.54 257.808 1166.28 258.613 1166.28 259.648V264H1165.48Z" fill="black"/>
<path d="M1248.68 314.242C1247.95 314.242 1247.38 314.039 1246.99 313.634C1246.6 313.228 1246.41 312.674 1246.41 311.97V304.002H1247.21V311.89C1247.21 312.423 1247.34 312.834 1247.61 313.122C1247.88 313.41 1248.26 313.554 1248.76 313.554C1249.29 313.554 1249.72 313.399 1250.06 313.09L1250.4 313.65C1250.18 313.852 1249.92 314.002 1249.61 314.098C1249.31 314.194 1249 314.242 1248.68 314.242ZM1244.88 306.514V305.826H1249.87V306.514H1244.88Z" fill="black"/>
<path d="M1244.7 399.02C1243.89 399.02 1243.17 398.838 1242.53 398.476C1241.9 398.113 1241.4 397.612 1241.02 396.972C1240.66 396.332 1240.48 395.601 1240.48 394.78C1240.48 393.948 1240.66 393.212 1241.02 392.572C1241.4 391.932 1241.9 391.436 1242.53 391.084C1243.17 390.721 1243.89 390.54 1244.7 390.54C1245.38 390.54 1245.98 390.668 1246.53 390.924C1247.08 391.18 1247.53 391.564 1247.87 392.076L1247.28 392.508C1246.98 392.081 1246.61 391.766 1246.16 391.564C1245.71 391.361 1245.23 391.26 1244.7 391.26C1244.05 391.26 1243.47 391.409 1242.94 391.708C1242.43 391.996 1242.03 392.406 1241.73 392.94C1241.44 393.462 1241.3 394.076 1241.3 394.78C1241.3 395.484 1241.44 396.102 1241.73 396.636C1242.03 397.158 1242.43 397.569 1242.94 397.868C1243.47 398.156 1244.05 398.3 1244.7 398.3C1245.23 398.3 1245.71 398.198 1246.16 397.996C1246.61 397.793 1246.98 397.478 1247.28 397.052L1247.87 397.484C1247.53 397.996 1247.08 398.38 1246.53 398.636C1245.98 398.892 1245.38 399.02 1244.7 399.02Z" fill="black"/>
<path d="M1169.89 445.993V444.089L1169.85 443.801V440.665C1169.85 439.886 1169.64 439.294 1169.21 438.889C1168.8 438.483 1168.18 438.281 1167.37 438.281C1166.8 438.281 1166.26 438.382 1165.76 438.585C1165.27 438.777 1164.85 439.027 1164.49 439.337L1164.09 438.761C1164.51 438.387 1165.01 438.099 1165.6 437.897C1166.18 437.683 1166.8 437.577 1167.44 437.577C1168.47 437.577 1169.27 437.838 1169.82 438.361C1170.38 438.883 1170.65 439.662 1170.65 440.697V445.993H1169.89ZM1166.88 446.057C1166.26 446.057 1165.72 445.961 1165.26 445.769C1164.81 445.566 1164.47 445.283 1164.22 444.921C1163.99 444.558 1163.87 444.142 1163.87 443.673C1163.87 443.246 1163.97 442.862 1164.16 442.521C1164.36 442.169 1164.69 441.886 1165.15 441.673C1165.61 441.449 1166.22 441.337 1166.99 441.337H1170.06V441.961H1167.01C1166.14 441.961 1165.53 442.121 1165.18 442.441C1164.84 442.761 1164.67 443.161 1164.67 443.641C1164.67 444.174 1164.87 444.601 1165.28 444.921C1165.68 445.241 1166.25 445.401 1166.99 445.401C1167.69 445.401 1168.29 445.241 1168.77 444.921C1169.26 444.601 1169.62 444.137 1169.85 443.529L1170.08 444.073C1169.85 444.681 1169.47 445.166 1168.93 445.529C1168.39 445.881 1167.71 446.057 1166.88 446.057Z" fill="black"/>
<path d="M1089.91 398.064C1089.13 398.064 1088.43 397.888 1087.8 397.536C1087.18 397.173 1086.69 396.672 1086.33 396.032C1085.97 395.392 1085.78 394.656 1085.78 393.824C1085.78 392.981 1085.97 392.245 1086.33 391.616C1086.69 390.976 1087.18 390.48 1087.8 390.128C1088.43 389.765 1089.13 389.584 1089.91 389.584C1090.65 389.584 1091.31 389.755 1091.9 390.096C1092.49 390.437 1092.96 390.923 1093.3 391.552C1093.66 392.181 1093.83 392.939 1093.83 393.824C1093.83 394.688 1093.66 395.44 1093.32 396.08C1092.98 396.72 1092.51 397.211 1091.91 397.552C1091.33 397.893 1090.66 398.064 1089.91 398.064ZM1089.96 397.344C1090.6 397.344 1091.17 397.2 1091.67 396.912C1092.18 396.613 1092.58 396.197 1092.87 395.664C1093.17 395.131 1093.32 394.517 1093.32 393.824C1093.32 393.12 1093.17 392.507 1092.87 391.984C1092.58 391.451 1092.18 391.04 1091.67 390.752C1091.17 390.453 1090.6 390.304 1089.96 390.304C1089.32 390.304 1088.74 390.453 1088.23 390.752C1087.73 391.04 1087.33 391.451 1087.03 391.984C1086.74 392.507 1086.6 393.12 1086.6 393.824C1086.6 394.517 1086.74 395.131 1087.03 395.664C1087.33 396.197 1087.73 396.613 1088.23 396.912C1088.74 397.2 1089.32 397.344 1089.96 397.344ZM1093.34 398V395.264L1093.48 393.808L1093.32 392.352V386.128H1094.12V398H1093.34Z" fill="black"/>
<line x1="1361.76" y1="393.563" x2="1415.76" y2="363.563" stroke="black"/>
<line x1="1470.24" y1="333.437" x2="1416.24" y2="363.437" stroke="black"/>
<line y1="-0.5" x2="61.7738" y2="-0.5" transform="matrix(0.874157 0.485643 0.485643 -0.874157 1416 364)" stroke="black"/>
<line y1="-0.5" x2="61.7738" y2="-0.5" transform="matrix(-0.874157 -0.485643 -0.485643 0.874157 1416 363)" stroke="black"/>
<line y1="-0.5" x2="61.7738" y2="-0.5" transform="matrix(-4.37114e-08 -1 -1 4.37114e-08 1416 362.774)" stroke="black"/>
<line y1="-0.5" x2="61.7738" y2="-0.5" transform="matrix(-4.37114e-08 -1 -1 4.37114e-08 1416 426.774)" stroke="black"/>
<circle cx="1401" cy="332" r="9" fill="url(#paint6_radial_1_2)"/>
<circle cx="1398" cy="396" r="9" fill="url(#paint7_radial_1_2)"/>
<circle cx="1453" cy="365" r="9" fill="url(#paint8_radial_1_2)"/>
<path d="M1361.01 333.039L1415.5 301.577L1469.99 333.039V395.961L1415.5 427.423L1361.01 395.961V333.039Z" stroke="black"/>
<circle cx="1416" cy="301" r="11.5" fill="white" stroke="black"/>
<circle cx="1361.5" cy="333.5" r="15.5" fill="url(#paint9_radial_1_2)"/>
<circle cx="1416.5" cy="364.5" r="15.5" fill="url(#paint10_radial_1_2)"/>
<circle cx="1415.5" cy="299.5" r="15.5" fill="url(#paint11_radial_1_2)"/>
<circle cx="1468.5" cy="333.5" r="15.5" fill="url(#paint12_radial_1_2)"/>
<circle cx="1468.5" cy="394.5" r="15.5" fill="url(#paint13_radial_1_2)"/>
<circle cx="1416.5" cy="425.5" r="15.5" fill="url(#paint14_radial_1_2)"/>
<circle cx="1360.5" cy="395.5" r="15.5" fill="url(#paint15_radial_1_2)"/>
<path d="M1363.96 337V335.096L1363.93 334.808V331.672C1363.93 330.893 1363.71 330.301 1363.29 329.896C1362.87 329.491 1362.26 329.288 1361.45 329.288C1360.87 329.288 1360.33 329.389 1359.83 329.592C1359.34 329.784 1358.92 330.035 1358.57 330.344L1358.17 329.768C1358.58 329.395 1359.09 329.107 1359.67 328.904C1360.26 328.691 1360.87 328.584 1361.51 328.584C1362.55 328.584 1363.34 328.845 1363.9 329.368C1364.45 329.891 1364.73 330.669 1364.73 331.704V337H1363.96ZM1360.95 337.064C1360.33 337.064 1359.79 336.968 1359.34 336.776C1358.89 336.573 1358.54 336.291 1358.3 335.928C1358.06 335.565 1357.94 335.149 1357.94 334.68C1357.94 334.253 1358.04 333.869 1358.23 333.528C1358.43 333.176 1358.77 332.893 1359.22 332.68C1359.68 332.456 1360.3 332.344 1361.06 332.344H1364.14V332.968H1361.08C1360.22 332.968 1359.61 333.128 1359.26 333.448C1358.91 333.768 1358.74 334.168 1358.74 334.648C1358.74 335.181 1358.95 335.608 1359.35 335.928C1359.76 336.248 1360.33 336.408 1361.06 336.408C1361.77 336.408 1362.36 336.248 1362.84 335.928C1363.33 335.608 1363.69 335.144 1363.93 334.536L1364.15 335.08C1363.93 335.688 1363.54 336.173 1363 336.536C1362.47 336.888 1361.78 337.064 1360.95 337.064Z" fill="black"/>
<path d="M1414.7 305V296.648H1415.46V298.936L1415.38 298.68C1415.62 298.008 1416.01 297.491 1416.57 297.128C1417.12 296.765 1417.82 296.584 1418.65 296.584V297.368C1418.62 297.368 1418.58 297.368 1418.55 297.368C1418.52 297.357 1418.49 297.352 1418.46 297.352C1417.53 297.352 1416.8 297.645 1416.28 298.232C1415.76 298.808 1415.5 299.613 1415.5 300.648V305H1414.7Z" fill="black"/>
<path d="M1470.13 338.064C1469.39 338.064 1468.83 337.861 1468.43 337.456C1468.05 337.051 1467.86 336.496 1467.86 335.792V327.824H1468.66V335.712C1468.66 336.245 1468.79 336.656 1469.06 336.944C1469.32 337.232 1469.71 337.376 1470.21 337.376C1470.73 337.376 1471.16 337.221 1471.5 336.912L1471.84 337.472C1471.63 337.675 1471.37 337.824 1471.06 337.92C1470.76 338.016 1470.45 338.064 1470.13 338.064ZM1466.32 330.336V329.648H1471.31V330.336H1466.32Z" fill="black"/>
<path d="M1469.01 398.064C1468.2 398.064 1467.47 397.883 1466.83 397.52C1466.2 397.157 1465.7 396.656 1465.33 396.016C1464.97 395.376 1464.78 394.645 1464.78 393.824C1464.78 392.992 1464.97 392.256 1465.33 391.616C1465.7 390.976 1466.2 390.48 1466.83 390.128C1467.47 389.765 1468.2 389.584 1469.01 389.584C1469.68 389.584 1470.29 389.712 1470.83 389.968C1471.39 390.224 1471.83 390.608 1472.18 391.12L1471.58 391.552C1471.29 391.125 1470.91 390.811 1470.46 390.608C1470.02 390.405 1469.53 390.304 1469.01 390.304C1468.36 390.304 1467.77 390.453 1467.25 390.752C1466.74 391.04 1466.33 391.451 1466.03 391.984C1465.74 392.507 1465.6 393.12 1465.6 393.824C1465.6 394.528 1465.74 395.147 1466.03 395.68C1466.33 396.203 1466.74 396.613 1467.25 396.912C1467.77 397.2 1468.36 397.344 1469.01 397.344C1469.53 397.344 1470.02 397.243 1470.46 397.04C1470.91 396.837 1471.29 396.523 1471.58 396.096L1472.18 396.528C1471.83 397.04 1471.39 397.424 1470.83 397.68C1470.29 397.936 1469.68 398.064 1469.01 398.064Z" fill="black"/>
<path d="M1419.96 431V429.096L1419.93 428.808V425.672C1419.93 424.893 1419.71 424.301 1419.29 423.896C1418.87 423.491 1418.26 423.288 1417.45 423.288C1416.87 423.288 1416.33 423.389 1415.83 423.592C1415.34 423.784 1414.92 424.035 1414.57 424.344L1414.17 423.768C1414.58 423.395 1415.09 423.107 1415.67 422.904C1416.26 422.691 1416.87 422.584 1417.51 422.584C1418.55 422.584 1419.34 422.845 1419.9 423.368C1420.45 423.891 1420.73 424.669 1420.73 425.704V431H1419.96ZM1416.95 431.064C1416.33 431.064 1415.79 430.968 1415.34 430.776C1414.89 430.573 1414.54 430.291 1414.3 429.928C1414.06 429.565 1413.94 429.149 1413.94 428.68C1413.94 428.253 1414.04 427.869 1414.23 427.528C1414.43 427.176 1414.77 426.893 1415.22 426.68C1415.68 426.456 1416.3 426.344 1417.06 426.344H1420.14V426.968H1417.08C1416.22 426.968 1415.61 427.128 1415.26 427.448C1414.91 427.768 1414.74 428.168 1414.74 428.648C1414.74 429.181 1414.95 429.608 1415.35 429.928C1415.76 430.248 1416.33 430.408 1417.06 430.408C1417.77 430.408 1418.36 430.248 1418.84 429.928C1419.33 429.608 1419.69 429.144 1419.93 428.536L1420.15 429.08C1419.93 429.688 1419.54 430.173 1419 430.536C1418.47 430.888 1417.78 431.064 1416.95 431.064Z" fill="black"/>
<path d="M1360.91 399.064C1360.13 399.064 1359.43 398.888 1358.8 398.536C1358.18 398.173 1357.69 397.672 1357.33 397.032C1356.97 396.392 1356.78 395.656 1356.78 394.824C1356.78 393.981 1356.97 393.245 1357.33 392.616C1357.69 391.976 1358.18 391.48 1358.8 391.128C1359.43 390.765 1360.13 390.584 1360.91 390.584C1361.65 390.584 1362.31 390.755 1362.9 391.096C1363.49 391.437 1363.96 391.923 1364.3 392.552C1364.66 393.181 1364.83 393.939 1364.83 394.824C1364.83 395.688 1364.66 396.44 1364.32 397.08C1363.98 397.72 1363.51 398.211 1362.91 398.552C1362.33 398.893 1361.66 399.064 1360.91 399.064ZM1360.96 398.344C1361.6 398.344 1362.17 398.2 1362.67 397.912C1363.18 397.613 1363.58 397.197 1363.87 396.664C1364.17 396.131 1364.32 395.517 1364.32 394.824C1364.32 394.12 1364.17 393.507 1363.87 392.984C1363.58 392.451 1363.18 392.04 1362.67 391.752C1362.17 391.453 1361.6 391.304 1360.96 391.304C1360.32 391.304 1359.74 391.453 1359.23 391.752C1358.73 392.04 1358.33 392.451 1358.03 392.984C1357.74 393.507 1357.6 394.12 1357.6 394.824C1357.6 395.517 1357.74 396.131 1358.03 396.664C1358.33 397.197 1358.73 397.613 1359.23 397.912C1359.74 398.2 1360.32 398.344 1360.96 398.344ZM1364.34 399V396.264L1364.48 394.808L1364.32 393.352V387.128H1365.12V399H1364.34Z" fill="black"/>
<defs>
<filter id="filter0_b_1_2" x="898.507" y="292" width="117.985" height="135" filterUnits="userSpaceOnUse" color-interpolation-filters="sRGB">
<feFlood flood-opacity="0" result="BackgroundImageFix"/>
<feGaussianBlur in="BackgroundImageFix" stdDeviation="2"/>
<feComposite in2="SourceAlpha" operator="in" result="effect1_backgroundBlur_1_2"/>
<feBlend mode="normal" in="SourceGraphic" in2="effect1_backgroundBlur_1_2" result="shape"/>
</filter>
<radialGradient id="paint0_radial_1_2" cx="0" cy="0" r="1" gradientUnits="userSpaceOnUse" gradientTransform="translate(1221 188) rotate(90) scale(12)">
<stop stop-color="white"/>
<stop offset="1" stop-color="#4759FB"/>
</radialGradient>
<radialGradient id="paint1_radial_1_2" cx="0" cy="0" r="1" gradientUnits="userSpaceOnUse" gradientTransform="translate(1168 158) rotate(90) scale(26.5)">
<stop stop-color="#63F960"/>
<stop offset="1" stop-color="#7755FF"/>
</radialGradient>
<radialGradient id="paint2_radial_1_2" cx="0" cy="0" r="1" gradientUnits="userSpaceOnUse" gradientTransform="translate(903.5 328.5) rotate(98.1301) scale(13.7002)">
<stop stop-color="#FF5050"/>
<stop offset="1" stop-color="white" stop-opacity="0.99"/>
</radialGradient>
<radialGradient id="paint3_radial_1_2" cx="0" cy="0" r="1" gradientUnits="userSpaceOnUse" gradientTransform="translate(1011 389) rotate(90) scale(12)">
<stop stop-color="#4759FB"/>
<stop offset="1" stop-color="white"/>
</radialGradient>
<radialGradient id="paint4_radial_1_2" cx="0" cy="0" r="1" gradientUnits="userSpaceOnUse" gradientTransform="translate(1089.5 305.5) rotate(98.1301) scale(13.7002)">
<stop stop-color="#FF5050"/>
<stop offset="1" stop-color="white" stop-opacity="0.99"/>
</radialGradient>
<radialGradient id="paint5_radial_1_2" cx="0" cy="0" r="1" gradientUnits="userSpaceOnUse" gradientTransform="translate(1244.84 396.111) rotate(90) scale(17.1556)">
<stop stop-color="#4759FB"/>
<stop offset="1" stop-color="white"/>
</radialGradient>
<radialGradient id="paint6_radial_1_2" cx="0" cy="0" r="1" gradientUnits="userSpaceOnUse" gradientTransform="translate(1401 332) rotate(90) scale(11)">
<stop stop-color="#764BF2"/>
<stop offset="1" stop-color="white" stop-opacity="0.04"/>
</radialGradient>
<radialGradient id="paint7_radial_1_2" cx="0" cy="0" r="1" gradientUnits="userSpaceOnUse" gradientTransform="translate(1398 396) rotate(90) scale(11)">
<stop stop-color="#764BF2"/>
<stop offset="1" stop-color="white" stop-opacity="0.04"/>
</radialGradient>
<radialGradient id="paint8_radial_1_2" cx="0" cy="0" r="1" gradientUnits="userSpaceOnUse" gradientTransform="translate(1453 365) rotate(90) scale(11)">
<stop stop-color="#764BF2"/>
<stop offset="1" stop-color="white" stop-opacity="0.04"/>
</radialGradient>
<radialGradient id="paint9_radial_1_2" cx="0" cy="0" r="1" gradientUnits="userSpaceOnUse" gradientTransform="translate(1361.5 333.5) rotate(98.1301) scale(13.7002)">
<stop stop-color="#FF5050"/>
<stop offset="1" stop-color="white" stop-opacity="0.99"/>
</radialGradient>
<radialGradient id="paint10_radial_1_2" cx="0" cy="0" r="1" gradientUnits="userSpaceOnUse" gradientTransform="translate(1416.5 364.5) rotate(98.1301) scale(13.7002)">
<stop stop-color="#FF5050"/>
<stop offset="1" stop-color="white" stop-opacity="0.99"/>
</radialGradient>
<radialGradient id="paint11_radial_1_2" cx="0" cy="0" r="1" gradientUnits="userSpaceOnUse" gradientTransform="translate(1415.5 299.5) rotate(98.1301) scale(13.7002)">
<stop stop-color="#FF5050"/>
<stop offset="1" stop-color="white" stop-opacity="0.99"/>
</radialGradient>
<radialGradient id="paint12_radial_1_2" cx="0" cy="0" r="1" gradientUnits="userSpaceOnUse" gradientTransform="translate(1468.5 333.5) rotate(98.1301) scale(13.7002)">
<stop stop-color="#FF5050"/>
<stop offset="1" stop-color="white" stop-opacity="0.99"/>
</radialGradient>
<radialGradient id="paint13_radial_1_2" cx="0" cy="0" r="1" gradientUnits="userSpaceOnUse" gradientTransform="translate(1468.5 394.5) rotate(98.1301) scale(13.7002)">
<stop stop-color="#FF5050"/>
<stop offset="1" stop-color="white" stop-opacity="0.99"/>
</radialGradient>
<radialGradient id="paint14_radial_1_2" cx="0" cy="0" r="1" gradientUnits="userSpaceOnUse" gradientTransform="translate(1416.5 425.5) rotate(98.1301) scale(13.7002)">
<stop stop-color="#FF5050"/>
<stop offset="1" stop-color="white" stop-opacity="0.99"/>
</radialGradient>
<radialGradient id="paint15_radial_1_2" cx="0" cy="0" r="1" gradientUnits="userSpaceOnUse" gradientTransform="translate(1360.5 395.5) rotate(98.1301) scale(13.7002)">
<stop stop-color="#FF5050"/>
<stop offset="1" stop-color="white" stop-opacity="0.99"/>
</radialGradient>
</defs>
</svg>
