  0
SECTION
  2
HEADER
  9
$ACADVER
  1
AC1009
  9
$DWGCODEPAGE
  3
ansi_1252
  9
$INSBASE
 10
0.0
 20
0.0
 30
0.0
  9
$EXTMIN
 10
-3151.5
 20
3753.745630186722
 30
18.0
  9
$EXTMAX
 10
-943.2456301867187
 20
4714.254369813285
 30
553.0
  9
$LIMMIN
 10
0.0
 20
0.0
  9
$LIMMAX
 10
12.0
 20
9.0
  9
$ORTHOMODE
 70
     0
  9
$REGENMODE
 70
     1
  9
$FILLMODE
 70
     1
  9
$QTEXTMODE
 70
     0
  9
$MIRRTEXT
 70
     1
  9
$DRAGMODE
 70
     2
  9
$LTSCALE
 40
1.0
  9
$OSMODE
 70
    37
  9
$ATTMODE
 70
     1
  9
$TEXTSIZE
 40
0.2
  9
$TRACEWID
 40
0.05
  9
$TEXTSTYLE
  7
STANDARD
  9
$CLAYER
  8
DEFAULT
  9
$CELTYPE
  6
BYLAYER
  9
$CECOLOR
 62
   256
  9
$DIMSCALE
 40
1.0
  9
$DIMASZ
 40
0.18
  9
$DIMEXO
 40
0.0625
  9
$DIMDLI
 40
0.38
  9
$DIMRND
 40
0.0
  9
$DIMDLE
 40
0.0
  9
$DIMEXE
 40
0.18
  9
$DIMTP
 40
0.0
  9
$DIMTM
 40
0.0
  9
$DIMTXT
 40
0.18
  9
$DIMCEN
 40
0.09
  9
$DIMTSZ
 40
0.0
  9
$DIMTOL
 70
     0
  9
$DIMLIM
 70
     0
  9
$DIMTIH
 70
     1
  9
$DIMTOH
 70
     1
  9
$DIMSE1
 70
     0
  9
$DIMSE2
 70
     0
  9
$DIMTAD
 70
     0
  9
$DIMZIN
 70
     0
  9
$DIMBLK
  1

  9
$DIMASO
 70
     1
  9
$DIMSHO
 70
     1
  9
$DIMPOST
  1

  9
$DIMAPOST
  1

  9
$DIMALT
 70
     0
  9
$DIMALTD
 70
     2
  9
$DIMALTF
 40
25.4
  9
$DIMLFAC
 40
1.0
  9
$DIMTOFL
 70
     0
  9
$DIMTVP
 40
0.0
  9
$DIMTIX
 70
     0
  9
$DIMSOXD
 70
     0
  9
$DIMSAH
 70
     0
  9
$DIMBLK1
  1

  9
$DIMBLK2
  1

  9
$DIMSTYLE
  2
STANDARD_ACAD
  9
$DIMCLRD
 70
     0
  9
$DIMCLRE
 70
     0
  9
$DIMCLRT
 70
     0
  9
$DIMTFAC
 40
1.0
  9
$DIMGAP
 40
0.09
  9
$LUNITS
 70
     2
  9
$LUPREC
 70
     3
  9
$SKETCHINC
 40
0.1
  9
$FILLETRAD
 40
0.0
  9
$AUNITS
 70
     0
  9
$AUPREC
 70
     0
  9
$MENU
  1
.
  9
$ELEVATION
 40
0.0
  9
$PELEVATION
 40
0.0
  9
$THICKNESS
 40
0.0
  9
$LIMCHECK
 70
     0
  9
$CHAMFERA
 40
0.0
  9
$CHAMFERB
 40
0.0
  9
$SKPOLY
 70
     0
  9
$TDCREATE
 40
2460247.76925353
  9
$TDUPDATE
 40
2460247.769265173
  9
$TDINDWG
 40
0.0000000116
  9
$TDUSRTIMER
 40
0.0000000116
  9
$USRTIMER
 70
     1
  9
$ANGBASE
 50
0.0
  9
$ANGDIR
 70
     0
  9
$PDMODE
 70
     0
  9
$PDSIZE
 40
0.0
  9
$PLINEWID
 40
0.0
  9
$COORDS
 70
     1
  9
$SPLFRAME
 70
     0
  9
$SPLINETYPE
 70
     6
  9
$SPLINESEGS
 70
     8
  9
$ATTDIA
 70
     0
  9
$ATTREQ
 70
     1
  9
$HANDLING
 70
     1
  9
$HANDSEED
  5
A0
  9
$SURFTAB1
 70
     6
  9
$SURFTAB2
 70
     6
  9
$SURFTYPE
 70
     6
  9
$SURFU
 70
     6
  9
$SURFV
 70
     6
  9
$UCSNAME
  2

  9
$UCSORG
 10
0.0
 20
0.0
 30
0.0
  9
$UCSXDIR
 10
1.0
 20
0.0
 30
0.0
  9
$UCSYDIR
 10
0.0
 20
1.0
 30
0.0
  9
$PUCSNAME
  2

  9
$PUCSORG
 10
0.0
 20
0.0
 30
0.0
  9
$PUCSXDIR
 10
1.0
 20
0.0
 30
0.0
  9
$PUCSYDIR
 10
0.0
 20
1.0
 30
0.0
  9
$USERI1
 70
     0
  9
$USERI2
 70
     0
  9
$USERI3
 70
     0
  9
$USERI4
 70
     0
  9
$USERI5
 70
     0
  9
$USERR1
 40
0.0
  9
$USERR2
 40
0.0
  9
$USERR3
 40
0.0
  9
$USERR4
 40
0.0
  9
$USERR5
 40
0.0
  9
$WORLDVIEW
 70
     1
  9
$SHADEDGE
 70
     3
  9
$SHADEDIF
 70
    70
  9
$TILEMODE
 70
     1
  9
$MAXACTVP
 70
    64
  9
$PLIMCHECK
 70
     0
  9
$PEXTMIN
 10
1.000000000000000E+20
 20
1.000000000000000E+20
 30
1.000000000000000E+20
  9
$PEXTMAX
 10
-1.000000000000000E+20
 20
-1.000000000000000E+20
 30
-1.000000000000000E+20
  9
$PLIMMIN
 10
0.0
 20
0.0
  9
$PLIMMAX
 10
12.0
 20
9.0
  9
$UNITMODE
 70
     0
  9
$VISRETAIN
 70
     1
  9
$PLINEGEN
 70
     0
  9
$PSLTSCALE
 70
     1
  0
ENDSEC
  0
SECTION
  2
TABLES
  0
TABLE
  2
VPORT
 70
     1
  0
VPORT
  2
*ACTIVE
 70
     0
 10
0.0
 20
0.0
 11
1.0
 21
1.0
 12
10.42990654205607
 22
4.5
 13
0.0
 23
0.0
 14
0.5
 24
0.5
 15
0.5
 25
0.5
 16
0.0
 26
0.0
 36
1.0
 17
0.0
 27
0.0
 37
0.0
 40
9.0
 41
1.972972972850329
 42
50.0
 43
0.0
 44
0.0
 50
0.0
 51
0.0
 71
     0
 72
   100
 73
     1
 74
     3
 75
     0
 76
     0
 77
     0
 78
     0
  0
ENDTAB
  0
TABLE
  2
LTYPE
 70
     1
  0
LTYPE
  2
CONTINUOUS
 70
     0
  3
Solid line
 72
    65
 73
     0
 40
0.0
  0
ENDTAB
  0
TABLE
  2
LAYER
 70
     2
  0
LAYER
  2
0
 70
     0
 62
     7
  6
CONTINUOUS
  0
LAYER
  2
DEFAULT
 70
     0
 62
     7
  6
CONTINUOUS
  0
ENDTAB
  0
TABLE
  2
STYLE
 70
     1
  0
STYLE
  2
STANDARD
 70
     0
 40
0.0
 41
1.0
 50
0.0
 71
     0
 42
0.2
  3
txt
  4

  0
ENDTAB
  0
TABLE
  2
VIEW
 70
     0
  0
ENDTAB
  0
TABLE
  2
UCS
 70
     0
  0
ENDTAB
  0
TABLE
  2
APPID
 70
     2
  0
APPID
  2
ACAD
 70
     0
  0
APPID
  2
RHINO
 70
     0
  0
ENDTAB
  0
TABLE
  2
DIMSTYLE
 70
     1
  0
DIMSTYLE
  2
STANDARD_ACAD
 70
     0
  3

  4

  5

  6

  7

 40
1.0
 41
0.18
 42
0.0625
 43
0.38
 44
0.18
 45
0.0
 46
0.0
 47
0.0
 48
0.0
140
0.18
141
0.09
142
0.0
143
25.4
144
1.0
145
0.0
146
1.0
147
0.09
 71
     0
 72
     0
 73
     1
 74
     1
 75
     0
 76
     0
 77
     0
 78
     0
170
     0
171
     2
172
     0
173
     0
174
     0
175
     0
176
     0
177
     0
178
     0
  0
ENDTAB
  0
ENDSEC
  0
SECTION
  2
BLOCKS
  0
BLOCK
  8
0
  2
$MODEL_SPACE
 70
     0
 10
0.0
 20
0.0
 30
0.0
  3
$MODEL_SPACE
  1

  0
ENDBLK
  5
21
  8
0
  0
BLOCK
 67
     1
  8
0
  2
$PAPER_SPACE
 70
     0
 10
0.0
 20
0.0
 30
0.0
  3
$PAPER_SPACE
  1

  0
ENDBLK
  5
1D
 67
     1
  8
0
  0
ENDSEC
  0
SECTION
  2
ENTITIES
  0
CIRCLE
  5
60
  8
DEFAULT
 10
-1887.504369813279
 20
4426.196902977042
 30
553.0
 40
16.2500000000021
  0
CIRCLE
  5
61
  8
DEFAULT
 10
-1615.696902977043
 20
4698.004369813281
 30
553.0
 40
16.2500000000021
  0
CIRCLE
  5
62
  8
DEFAULT
 10
-1231.303097022962
 20
4698.004369813283
 30
553.0
 40
16.2500000000021
  0
CIRCLE
  5
63
  8
DEFAULT
 10
-959.4956301867228
 20
4426.196902977047
 30
553.0
 40
16.2500000000021
  0
CIRCLE
  5
64
  8
DEFAULT
 10
-959.4956301867207
 20
4041.803097022967
 30
553.0
 40
16.2500000000021
  0
CIRCLE
  5
65
  8
DEFAULT
 10
-1231.303097022957
 20
3769.995630186726
 30
553.0
 40
16.2500000000021
  0
CIRCLE
  5
66
  8
DEFAULT
 10
-1615.696902977039
 20
3769.995630186724
 30
553.0
 40
16.2500000000021
  0
CIRCLE
  5
67
  8
DEFAULT
 10
-1887.504369813277
 20
4041.80309702296
 30
553.0
 40
16.2500000000021
  0
ARC
  5
68
  8
DEFAULT
 10
-1887.504369813277
 20
4041.80309702296
 30
553.0
 40
16.25000000000117
 50
277.9508220310007
 51
127.0491779690079
  0
LINE
  5
69
  8
DEFAULT
 10
-1621.071340160696
 20
4710.979408952179
 30
553.0
 11
-1900.479408952177
 21
4431.571340160694
 31
553.0
  0
LINE
  5
6A
  8
DEFAULT
 10
-1900.479408952177
 20
4431.571340160694
 30
553.0
 11
-1900.479408952175
 21
4036.428659839307
 31
553.0
  0
LINE
  5
6B
  8
DEFAULT
 10
-1900.479408952175
 20
4036.428659839307
 30
553.0
 11
-1621.071340160692
 21
3757.020591047826
 31
553.0
  0
LINE
  5
6C
  8
DEFAULT
 10
-1621.071340160692
 20
3757.020591047826
 30
553.0
 11
-1225.928659839304
 21
3757.020591047828
 31
553.0
  0
LINE
  5
6D
  8
DEFAULT
 10
-1225.928659839304
 20
3757.020591047828
 30
553.0
 11
-946.5205910478234
 21
4036.428659839311
 31
553.0
  0
LINE
  5
6E
  8
DEFAULT
 10
-946.5205910478234
 20
4036.428659839311
 30
553.0
 11
-946.520591047825
 21
4431.571340160699
 31
553.0
  0
LINE
  5
6F
  8
DEFAULT
 10
-946.520591047825
 20
4431.571340160699
 30
553.0
 11
-1225.928659839308
 21
4710.979408952179
 31
553.0
  0
LINE
  5
70
  8
DEFAULT
 10
-1225.928659839308
 20
4710.979408952179
 30
553.0
 11
-1621.071340160696
 21
4710.979408952179
 31
553.0
  0
LINE
  5
71
  8
DEFAULT
 10
-1601.066784872545
 20
4662.684140266282
 30
553.0
 11
-1852.184140266279
 21
4411.566784872544
 31
553.0
  0
LINE
  5
72
  8
DEFAULT
 10
-1852.184140266279
 20
4411.566784872544
 30
553.0
 11
-1852.184140266278
 21
4056.433215127459
 31
553.0
  0
LINE
  5
73
  8
DEFAULT
 10
-1852.184140266278
 20
4056.433215127459
 30
553.0
 11
-1601.066784872541
 21
3805.315859733724
 31
553.0
  0
LINE
  5
74
  8
DEFAULT
 10
-1601.066784872541
 20
3805.315859733724
 30
553.0
 11
-1245.933215127455
 21
3805.315859733726
 31
553.0
  0
LINE
  5
75
  8
DEFAULT
 10
-1245.933215127455
 20
3805.315859733726
 30
553.0
 11
-994.8158597337208
 21
4056.433215127463
 31
553.0
  0
LINE
  5
76
  8
DEFAULT
 10
-994.8158597337208
 20
4056.433215127463
 30
553.0
 11
-994.8158597337222
 21
4411.566784872548
 31
553.0
  0
LINE
  5
77
  8
DEFAULT
 10
-994.8158597337222
 20
4411.566784872548
 30
553.0
 11
-1245.933215127459
 21
4662.684140266282
 31
553.0
  0
LINE
  5
78
  8
DEFAULT
 10
-1245.933215127459
 20
4662.684140266282
 30
553.0
 11
-1601.066784872545
 21
4662.684140266282
 31
553.0
  0
ARC
  5
79
  8
DEFAULT
 10
2496.868762706232
 20
3759.000000000001
 30
-18.0
 40
2.0
 50
142.9508220310165
 51
270.000000000013
210
0.0
220
0.0
230
-1.0
  0
LINE
  5
7A
  8
DEFAULT
 10
-2496.868762706233
 20
3757.000000000001
 30
18.0
 11
-2852.13123729377
 21
3757.0
 31
18.0
  0
ARC
  5
7B
  8
DEFAULT
 10
2852.131237293768
 20
3759.0
 30
-18.0
 40
2.0
 50
270.0000000000521
 51
37.04917796902001
210
0.0
220
0.0
230
-1.0
  0
ARC
  5
7C
  8
DEFAULT
 10
-2866.696902977038
 20
3769.995630186727
 30
18.0
 40
16.25000000000174
 50
322.9508220309793
 51
172.0491779690288
  0
ARC
  5
7D
  8
DEFAULT
 10
2884.77146862263
 20
3772.520026495409
 30
-18.0
 40
2.0
 50
187.9508220310254
 51
314.9999999999908
210
0.0
220
0.0
230
-1.0
  0
LINE
  5
7E
  8
DEFAULT
 10
-2886.185682185003
 20
3771.105812933035
 30
18.0
 11
-3137.394187066961
 21
4022.314317814998
 31
18.0
  0
ARC
  5
7F
  8
DEFAULT
 10
3135.979973504589
 20
4023.728531377371
 30
-18.0
 40
2.0
 50
314.9999999999816
 51
82.04917796901326
210
0.0
220
0.0
230
-1.0
  0
ARC
  5
80
  8
DEFAULT
 10
-3138.504369813277
 20
4041.803097022959
 30
18.0
 40
16.25000000000027
 50
277.9508220310011
 51
127.0491779690063
  0
ARC
  5
81
  8
DEFAULT
 10
3149.5
 20
4056.368762706232
 30
-18.0
 40
2.0
 50
232.9508220310165
 51
0.0000000000260551
210
0.0
220
0.0
230
-1.0
  0
LINE
  5
82
  8
DEFAULT
 10
-3151.5
 20
4056.368762706233
 30
18.0
 11
-3151.5
 21
4411.63123729377
 31
18.0
  0
ARC
  5
83
  8
DEFAULT
 10
3149.5
 20
4411.631237293769
 30
-18.0
 40
2.0
 50
0.0000000000260551
 51
127.0491779689757
210
0.0
220
0.0
230
-1.0
  0
ARC
  5
84
  8
DEFAULT
 10
-3138.504369813283
 20
4426.196902977043
 30
18.0
 40
16.2499999999994
 50
232.9508220310113
 51
82.04917796898553
  0
ARC
  5
85
  8
DEFAULT
 10
3135.979973504591
 20
4444.271468622629
 30
-18.0
 40
2.0
 50
277.9508220309721
 51
45.00000000000922
210
0.0
220
0.0
230
-1.0
  0
LINE
  5
86
  8
DEFAULT
 10
-3137.394187066964
 20
4445.685682185002
 30
18.0
 11
-2886.185682185004
 21
4696.894187066962
 31
18.0
  0
ARC
  5
87
  8
DEFAULT
 10
2884.77146862263
 20
4695.479973504591
 30
-18.0
 40
2.0
 50
44.99999999995395
 51
172.0491779690004
210
0.0
220
0.0
230
-1.0
  0
ARC
  5
88
  8
DEFAULT
 10
-2866.696902977038
 20
4698.004369813272
 30
18.0
 40
16.2500000000024
 50
187.9508220309725
 51
37.04917796902457
  0
ARC
  5
89
  8
DEFAULT
 10
2852.131237293768
 20
4709.0
 30
-18.0
 40
2.0
 50
322.9508220309982
 51
90.00000000001303
210
0.0
220
0.0
230
-1.0
  0
LINE
  5
8A
  8
DEFAULT
 10
-2852.131237293768
 20
4711.0
 30
18.0
 11
-2496.868762706233
 21
4711.000000000001
 31
18.0
  0
ARC
  5
8B
  8
DEFAULT
 10
2496.868762706231
 20
4709.000000000001
 30
-18.0
 40
2.0
 50
89.99999999997394
 51
217.0491779690018
210
0.0
220
0.0
230
-1.0
  0
ARC
  5
8C
  8
DEFAULT
 10
-2482.303097022957
 20
4698.004369813283
 30
18.0
 40
16.24999999999929
 50
142.9508220310113
 51
352.0491779689742
  0
ARC
  5
8D
  8
DEFAULT
 10
2464.22853137737
 20
4695.479973504589
 30
-18.0
 40
2.0
 50
7.950822030946235
 51
134.9999999999908
210
0.0
220
0.0
230
-1.0
  0
LINE
  5
8E
  8
DEFAULT
 10
-2462.814317814998
 20
4696.894187066962
 30
18.0
 11
-2211.605812933039
 21
4445.685682185003
 31
18.0
  0
ARC
  5
8F
  8
DEFAULT
 10
2213.020026495411
 20
4444.27146862263
 30
-18.0
 40
2.0
 50
134.9999999999908
 51
262.0491779690022
210
0.0
220
0.0
230
-1.0
  0
ARC
  5
90
  8
DEFAULT
 10
-2210.495630186717
 20
4426.196902977045
 30
18.0
 40
16.24999999999781
 50
97.95082203102012
 51
307.0491779689868
  0
ARC
  5
91
  8
DEFAULT
 10
2199.500000000001
 20
4411.631237293772
 30
-18.0
 40
2.0
 50
52.95082203099825
 51
180.0
210
0.0
220
0.0
230
-1.0
  0
LINE
  5
92
  8
DEFAULT
 10
-2197.500000000001
 20
4411.631237293772
 30
18.0
 11
-2197.5
 21
4056.368762706235
 31
18.0
  0
ARC
  5
93
  8
DEFAULT
 10
2199.5
 20
4056.368762706234
 30
-18.0
 40
2.0
 50
179.999999999987
 51
307.0491779690122
210
0.0
220
0.0
230
-1.0
  0
ARC
  5
94
  8
DEFAULT
 10
-2210.495630186722
 20
4041.803097022961
 30
18.0
 40
16.24999999999988
 50
52.95082203099849
 51
262.0491779690084
  0
ARC
  5
95
  8
DEFAULT
 10
2213.020026495408
 20
4023.728531377373
 30
-18.0
 40
2.0
 50
97.95082203098674
 51
224.9999999999724
210
0.0
220
0.0
230
-1.0
  0
LINE
  5
96
  8
DEFAULT
 10
-2211.605812933035
 20
4022.314317815
 30
18.0
 11
-2462.814317814997
 21
3771.105812933039
 31
18.0
  0
ARC
  5
97
  8
DEFAULT
 10
2464.22853137737
 20
3772.520026495411
 30
-18.0
 40
2.000000000000177
 50
224.9999999999816
 51
352.0491779690004
210
0.0
220
0.0
230
-1.0
  0
ARC
  5
98
  8
DEFAULT
 10
-2482.303097022959
 20
3769.995630186723
 30
18.0
 40
16.25000000000064
 50
7.950822030999294
 51
217.049177969004
  0
ENDSEC
  0
EOF
