  0
SECTION
  2
HEADER
  9
$ACADVER
  1
AC1009
  9
$DWGCODEPAGE
  3
ansi_1252
  9
$INSBASE
 10
0.0
 20
0.0
 30
0.0
  9
$EXTMIN
 10
-136.9952077865601
 20
848.0094876289368
 30
0.0094968844205141
  9
$EXTMAX
 10
-53.50479125976562
 20
944.2577743530273
 30
0.0095011545345187
  9
$LIMMIN
 10
0.0
 20
0.0
  9
$LIMMAX
 10
12.0
 20
9.0
  9
$ORTHOMODE
 70
     0
  9
$REGENMODE
 70
     1
  9
$FILLMODE
 70
     1
  9
$QTEXTMODE
 70
     0
  9
$MIRRTEXT
 70
     1
  9
$DRAGMODE
 70
     2
  9
$LTSCALE
 40
1.0
  9
$OSMODE
 70
    37
  9
$ATTMODE
 70
     1
  9
$TEXTSIZE
 40
0.2
  9
$TRACEWID
 40
0.05
  9
$TEXTSTYLE
  7
STANDARD
  9
$CLAYER
  8
CAP
  9
$CELTYPE
  6
BYLAYER
  9
$CECOLOR
 62
   256
  9
$DIMSCALE
 40
1.0
  9
$DIMASZ
 40
0.18
  9
$DIMEXO
 40
0.0625
  9
$DIMDLI
 40
0.38
  9
$DIMRND
 40
0.0
  9
$DIMDLE
 40
0.0
  9
$DIMEXE
 40
0.18
  9
$DIMTP
 40
0.0
  9
$DIMTM
 40
0.0
  9
$DIMTXT
 40
0.18
  9
$DIMCEN
 40
0.09
  9
$DIMTSZ
 40
0.0
  9
$DIMTOL
 70
     0
  9
$DIMLIM
 70
     0
  9
$DIMTIH
 70
     1
  9
$DIMTOH
 70
     1
  9
$DIMSE1
 70
     0
  9
$DIMSE2
 70
     0
  9
$DIMTAD
 70
     0
  9
$DIMZIN
 70
     0
  9
$DIMBLK
  1

  9
$DIMASO
 70
     1
  9
$DIMSHO
 70
     1
  9
$DIMPOST
  1

  9
$DIMAPOST
  1

  9
$DIMALT
 70
     0
  9
$DIMALTD
 70
     2
  9
$DIMALTF
 40
25.4
  9
$DIMLFAC
 40
1.0
  9
$DIMTOFL
 70
     0
  9
$DIMTVP
 40
0.0
  9
$DIMTIX
 70
     0
  9
$DIMSOXD
 70
     0
  9
$DIMSAH
 70
     0
  9
$DIMBLK1
  1

  9
$DIMBLK2
  1

  9
$DIMSTYLE
  2
STANDARD_ACAD
  9
$DIMCLRD
 70
     0
  9
$DIMCLRE
 70
     0
  9
$DIMCLRT
 70
     0
  9
$DIMTFAC
 40
1.0
  9
$DIMGAP
 40
0.09
  9
$LUNITS
 70
     2
  9
$LUPREC
 70
     3
  9
$SKETCHINC
 40
0.1
  9
$FILLETRAD
 40
0.0
  9
$AUNITS
 70
     0
  9
$AUPREC
 70
     0
  9
$MENU
  1
.
  9
$ELEVATION
 40
0.0
  9
$PELEVATION
 40
0.0
  9
$THICKNESS
 40
0.0
  9
$LIMCHECK
 70
     0
  9
$CHAMFERA
 40
0.0
  9
$CHAMFERB
 40
0.0
  9
$SKPOLY
 70
     0
  9
$TDCREATE
 40
2460284.729546227
  9
$TDUPDATE
 40
2460284.729565197
  9
$TDINDWG
 40
0.0000000116
  9
$TDUSRTIMER
 40
0.0000000116
  9
$USRTIMER
 70
     1
  9
$ANGBASE
 50
0.0
  9
$ANGDIR
 70
     0
  9
$PDMODE
 70
     0
  9
$PDSIZE
 40
0.0
  9
$PLINEWID
 40
0.0
  9
$COORDS
 70
     1
  9
$SPLFRAME
 70
     0
  9
$SPLINETYPE
 70
     6
  9
$SPLINESEGS
 70
     8
  9
$ATTDIA
 70
     0
  9
$ATTREQ
 70
     1
  9
$HANDLING
 70
     1
  9
$HANDSEED
  5
36D
  9
$SURFTAB1
 70
     6
  9
$SURFTAB2
 70
     6
  9
$SURFTYPE
 70
     6
  9
$SURFU
 70
     6
  9
$SURFV
 70
     6
  9
$UCSNAME
  2

  9
$UCSORG
 10
0.0
 20
0.0
 30
0.0
  9
$UCSXDIR
 10
1.0
 20
0.0
 30
0.0
  9
$UCSYDIR
 10
0.0
 20
1.0
 30
0.0
  9
$PUCSNAME
  2

  9
$PUCSORG
 10
0.0
 20
0.0
 30
0.0
  9
$PUCSXDIR
 10
1.0
 20
0.0
 30
0.0
  9
$PUCSYDIR
 10
0.0
 20
1.0
 30
0.0
  9
$USERI1
 70
     0
  9
$USERI2
 70
     0
  9
$USERI3
 70
     0
  9
$USERI4
 70
     0
  9
$USERI5
 70
     0
  9
$USERR1
 40
0.0
  9
$USERR2
 40
0.0
  9
$USERR3
 40
0.0
  9
$USERR4
 40
0.0
  9
$USERR5
 40
0.0
  9
$WORLDVIEW
 70
     1
  9
$SHADEDGE
 70
     3
  9
$SHADEDIF
 70
    70
  9
$TILEMODE
 70
     1
  9
$MAXACTVP
 70
    64
  9
$PLIMCHECK
 70
     0
  9
$PEXTMIN
 10
1.000000000000000E+20
 20
1.000000000000000E+20
 30
1.000000000000000E+20
  9
$PEXTMAX
 10
-1.000000000000000E+20
 20
-1.000000000000000E+20
 30
-1.000000000000000E+20
  9
$PLIMMIN
 10
0.0
 20
0.0
  9
$PLIMMAX
 10
12.0
 20
9.0
  9
$UNITMODE
 70
     0
  9
$VISRETAIN
 70
     1
  9
$PLINEGEN
 70
     0
  9
$PSLTSCALE
 70
     1
  0
ENDSEC
  0
SECTION
  2
TABLES
  0
TABLE
  2
VPORT
 70
     1
  0
VPORT
  2
*ACTIVE
 70
     0
 10
0.0
 20
0.0
 11
1.0
 21
1.0
 12
10.42990654205607
 22
4.5
 13
0.0
 23
0.0
 14
0.5
 24
0.5
 15
0.5
 25
0.5
 16
0.0
 26
0.0
 36
1.0
 17
0.0
 27
0.0
 37
0.0
 40
9.0
 41
1.972972972850329
 42
50.0
 43
0.0
 44
0.0
 50
0.0
 51
0.0
 71
     0
 72
   100
 73
     1
 74
     3
 75
     0
 76
     0
 77
     0
 78
     0
  0
ENDTAB
  0
TABLE
  2
LTYPE
 70
     1
  0
LTYPE
  2
CONTINUOUS
 70
     0
  3
Solid line
 72
    65
 73
     0
 40
0.0
  0
ENDTAB
  0
TABLE
  2
LAYER
 70
     2
  0
LAYER
  2
0
 70
     0
 62
     7
  6
CONTINUOUS
  0
LAYER
  2
CAP
 70
     0
 62
     7
  6
CONTINUOUS
  0
ENDTAB
  0
TABLE
  2
STYLE
 70
     1
  0
STYLE
  2
STANDARD
 70
     0
 40
0.0
 41
1.0
 50
0.0
 71
     0
 42
0.2
  3
txt
  4

  0
ENDTAB
  0
TABLE
  2
VIEW
 70
     0
  0
ENDTAB
  0
TABLE
  2
UCS
 70
     0
  0
ENDTAB
  0
TABLE
  2
APPID
 70
     2
  0
APPID
  2
ACAD
 70
     0
  0
APPID
  2
RHINO
 70
     0
  0
ENDTAB
  0
TABLE
  2
DIMSTYLE
 70
     1
  0
DIMSTYLE
  2
STANDARD_ACAD
 70
     0
  3

  4

  5

  6

  7

 40
1.0
 41
0.18
 42
0.0625
 43
0.38
 44
0.18
 45
0.0
 46
0.0
 47
0.0
 48
0.0
140
0.18
141
0.09
142
0.0
143
25.4
144
1.0
145
0.0
146
1.0
147
0.09
 71
     0
 72
     0
 73
     1
 74
     1
 75
     0
 76
     0
 77
     0
 78
     0
170
     0
171
     2
172
     0
173
     0
174
     0
175
     0
176
     0
177
     0
178
     0
  0
ENDTAB
  0
ENDSEC
  0
SECTION
  2
BLOCKS
  0
BLOCK
  8
0
  2
$MODEL_SPACE
 70
     0
 10
0.0
 20
0.0
 30
0.0
  3
$MODEL_SPACE
  1

  0
ENDBLK
  5
21
  8
0
  0
BLOCK
 67
     1
  8
0
  2
$PAPER_SPACE
 70
     0
 10
0.0
 20
0.0
 30
0.0
  3
$PAPER_SPACE
  1

  0
ENDBLK
  5
1D
 67
     1
  8
0
  0
ENDSEC
  0
SECTION
  2
ENTITIES
  0
LINE
  5
60
  8
CAP
 10
-55.55236053466797
 20
861.2909269332886
 30
0.0094974730163813
 11
-55.52408599853516
 21
861.1339616775513
 31
0.0094974664971232
  0
LINE
  5
61
  8
CAP
 10
-55.52408599853516
 20
861.1339616775513
 30
0.0094974664971232
 11
-55.50663757324219
 21
860.9734811782837
 31
0.0094974590465426
  0
LINE
  5
62
  8
CAP
 10
-55.50663757324219
 20
860.9734811782837
 30
0.0094974590465426
 11
-55.5
 21
860.8094854354858
 31
0.009497451595962
  0
LINE
  5
63
  8
CAP
 10
-55.5
 20
860.8094854354858
 30
0.009497451595962
 11
-55.50663757324219
 21
860.6454877853394
 31
0.009497445076704
  0
LINE
  5
64
  8
CAP
 10
-55.50663757324219
 20
860.6454877853394
 30
0.009497445076704
 11
-55.52408599853516
 21
860.4850072860718
 31
0.0094974376261234
  0
LINE
  5
65
  8
CAP
 10
-55.52408599853516
 20
860.4850072860718
 30
0.0094974376261234
 11
-55.55236053466797
 21
860.3280420303345
 31
0.0094974301755428
  0
LINE
  5
66
  8
CAP
 10
-55.55236053466797
 20
860.3280420303345
 30
0.0094974301755428
 11
-55.59145355224609
 21
860.1745920181274
 31
0.0094974236562848
  0
LINE
  5
67
  8
CAP
 10
-55.59145355224609
 20
860.1745920181274
 30
0.0094974236562848
 11
-55.64161682128906
 21
860.0241651535034
 31
0.0094974171370268
  0
LINE
  5
68
  8
CAP
 10
-55.64161682128906
 20
860.0241651535034
 30
0.0094974171370268
 11
-55.70341491699219
 21
859.8756551742554
 31
0.0094974106177688
  0
LINE
  5
69
  8
CAP
 10
-55.70341491699219
 20
859.8756551742554
 30
0.0094974106177688
 11
-55.77588653564453
 21
859.7309503555298
 31
0.0094974040985107
  0
LINE
  5
6A
  8
CAP
 10
-55.77588653564453
 20
859.7309503555298
 30
0.0094974040985107
 11
-55.85792541503906
 21
859.5922107696533
 31
0.0094973975792527
  0
LINE
  5
6B
  8
CAP
 10
-55.85792541503906
 20
859.5922107696533
 30
0.0094973975792527
 11
-55.94851684570312
 21
859.4614849090576
 31
0.0094973919913173
  0
LINE
  5
6C
  8
CAP
 10
-55.94851684570312
 20
859.4614849090576
 30
0.0094973919913173
 11
-56.04911804199219
 21
859.3370552062988
 31
0.0094973864033818
  0
LINE
  5
6D
  8
CAP
 10
-56.04911804199219
 20
859.3370552062988
 30
0.0094973864033818
 11
-56.15937042236328
 21
859.2188549041748
 31
0.009497381746769
  0
LINE
  5
6E
  8
CAP
 10
-56.15937042236328
 20
859.2188549041748
 30
0.009497381746769
 11
-56.27757263183594
 21
859.1085987091064
 31
0.0094973761588335
  0
LINE
  5
6F
  8
CAP
 10
-56.27757263183594
 20
859.1085987091064
 30
0.0094973761588335
 11
-56.40200042724609
 21
859.0080051422119
 31
0.0094973724335432
  0
LINE
  5
70
  8
CAP
 10
-56.40200042724609
 20
859.0080051422119
 30
0.0094973724335432
 11
-56.53272247314453
 21
858.9174127578735
 31
0.0094973677769303
  0
LINE
  5
71
  8
CAP
 10
-56.53272247314453
 20
858.9174127578735
 30
0.0094973677769303
 11
-56.67146301269531
 21
858.8353719711304
 31
0.00949736405164
  0
LINE
  5
72
  8
CAP
 10
-56.67146301269531
 20
858.8353719711304
 30
0.00949736405164
 11
-56.81616973876953
 21
858.7629022598267
 31
0.0094973612576723
  0
LINE
  5
73
  8
CAP
 10
-56.81616973876953
 20
858.7629022598267
 30
0.0094973612576723
 11
-56.96468353271484
 21
858.7011051177979
 31
0.0094973584637046
  0
LINE
  5
74
  8
CAP
 10
-56.96468353271484
 20
858.7011051177979
 30
0.0094973584637046
 11
-57.11536407470703
 21
858.650899887085
 31
0.0094973566010594
  0
LINE
  5
75
  8
CAP
 10
-57.11536407470703
 20
858.650899887085
 30
0.0094973566010594
 11
-57.27090454101562
 21
858.6114749908447
 31
0.0094973547384143
  0
LINE
  5
76
  8
CAP
 10
-57.27090454101562
 20
858.6114749908447
 30
0.0094973547384143
 11
-57.43012237548828
 21
858.5828447341919
 31
0.0094973528757691
  0
LINE
  5
77
  8
CAP
 10
-57.43012237548828
 20
858.5828447341919
 30
0.0094973528757691
 11
-57.59062194824219
 21
858.5653877258301
 31
0.0094973519444466
  0
LINE
  5
78
  8
CAP
 10
-57.59062194824219
 20
858.5653877258301
 30
0.0094973519444466
 11
-57.75
 21
858.5594844818115
 31
0.0094973519444466
  0
LINE
  5
79
  8
CAP
 10
-57.75
 20
858.5594844818115
 30
0.0094973519444466
 11
-57.90937805175781
 21
858.5653877258301
 31
0.0094973519444466
  0
LINE
  5
7A
  8
CAP
 10
-57.90937805175781
 20
858.5653877258301
 30
0.0094973519444466
 11
-58.06987762451172
 21
858.5828447341919
 31
0.0094973528757691
  0
LINE
  5
7B
  8
CAP
 10
-58.06987762451172
 20
858.5828447341919
 30
0.0094973528757691
 11
-58.22909545898438
 21
858.6114749908447
 31
0.0094973547384143
  0
LINE
  5
7C
  8
CAP
 10
-58.22909545898438
 20
858.6114749908447
 30
0.0094973547384143
 11
-58.38463592529297
 21
858.650899887085
 31
0.0094973566010594
  0
LINE
  5
7D
  8
CAP
 10
-58.38463592529297
 20
858.650899887085
 30
0.0094973566010594
 11
-58.53531646728516
 21
858.7011051177979
 31
0.0094973584637046
  0
LINE
  5
7E
  8
CAP
 10
-58.53531646728516
 20
858.7011051177979
 30
0.0094973584637046
 11
-58.68383026123047
 21
858.7629022598267
 31
0.0094973612576723
  0
LINE
  5
7F
  8
CAP
 10
-58.68383026123047
 20
858.7629022598267
 30
0.0094973612576723
 11
-58.82853698730469
 21
858.8353719711304
 31
0.00949736405164
  0
LINE
  5
80
  8
CAP
 10
-58.82853698730469
 20
858.8353719711304
 30
0.00949736405164
 11
-58.96727752685547
 21
858.9174127578735
 31
0.0094973677769303
  0
LINE
  5
81
  8
CAP
 10
-58.96727752685547
 20
858.9174127578735
 30
0.0094973677769303
 11
-59.09799957275391
 21
859.0080051422119
 31
0.0094973724335432
  0
LINE
  5
82
  8
CAP
 10
-59.09799957275391
 20
859.0080051422119
 30
0.0094973724335432
 11
-59.22242736816406
 21
859.1085987091064
 31
0.0094973761588335
  0
LINE
  5
83
  8
CAP
 10
-59.22242736816406
 20
859.1085987091064
 30
0.0094973761588335
 11
-59.34062957763672
 21
859.2188549041748
 31
0.009497381746769
  0
LINE
  5
84
  8
CAP
 10
-59.34062957763672
 20
859.2188549041748
 30
0.009497381746769
 11
-59.45088195800781
 21
859.3370552062988
 31
0.0094973864033818
  0
LINE
  5
85
  8
CAP
 10
-59.45088195800781
 20
859.3370552062988
 30
0.0094973864033818
 11
-59.55148315429688
 21
859.4614849090576
 31
0.0094973919913173
  0
LINE
  5
86
  8
CAP
 10
-59.55148315429688
 20
859.4614849090576
 30
0.0094973919913173
 11
-59.64207458496094
 21
859.5922107696533
 31
0.0094973975792527
  0
LINE
  5
87
  8
CAP
 10
-59.64207458496094
 20
859.5922107696533
 30
0.0094973975792527
 11
-59.72411346435547
 21
859.7309503555298
 31
0.0094974040985107
  0
LINE
  5
88
  8
CAP
 10
-59.72411346435547
 20
859.7309503555298
 30
0.0094974040985107
 11
-59.79658508300781
 21
859.8756551742554
 31
0.0094974106177688
  0
LINE
  5
89
  8
CAP
 10
-59.79658508300781
 20
859.8756551742554
 30
0.0094974106177688
 11
-59.85838317871094
 21
860.0241651535034
 31
0.0094974171370268
  0
LINE
  5
8A
  8
CAP
 10
-59.85838317871094
 20
860.0241651535034
 30
0.0094974171370268
 11
-59.90854644775391
 21
860.1745920181274
 31
0.0094974236562848
  0
LINE
  5
8B
  8
CAP
 10
-59.90854644775391
 20
860.1745920181274
 30
0.0094974236562848
 11
-59.94763946533203
 21
860.3280420303345
 31
0.0094974301755428
  0
LINE
  5
8C
  8
CAP
 10
-59.94763946533203
 20
860.3280420303345
 30
0.0094974301755428
 11
-59.97591400146484
 21
860.4850072860718
 31
0.0094974376261234
  0
LINE
  5
8D
  8
CAP
 10
-59.97591400146484
 20
860.4850072860718
 30
0.0094974376261234
 11
-59.99336242675781
 21
860.6454877853394
 31
0.009497445076704
  0
LINE
  5
8E
  8
CAP
 10
-59.99336242675781
 20
860.6454877853394
 30
0.009497445076704
 11
-60.0
 21
860.8094854354858
 31
0.009497451595962
  0
LINE
  5
8F
  8
CAP
 10
-60.0
 20
860.8094854354858
 30
0.009497451595962
 11
-59.99336242675781
 21
860.9734811782837
 31
0.0094974590465426
  0
LINE
  5
90
  8
CAP
 10
-59.99336242675781
 20
860.9734811782837
 30
0.0094974590465426
 11
-59.97591400146484
 21
861.1339616775513
 31
0.0094974664971232
  0
LINE
  5
91
  8
CAP
 10
-59.97591400146484
 20
861.1339616775513
 30
0.0094974664971232
 11
-59.94763946533203
 21
861.2909269332886
 31
0.0094974730163813
  0
LINE
  5
92
  8
CAP
 10
-59.94763946533203
 20
861.2909269332886
 30
0.0094974730163813
 11
-59.90854644775391
 21
861.4443769454956
 31
0.0094974804669619
  0
LINE
  5
93
  8
CAP
 10
-59.90854644775391
 20
861.4443769454956
 30
0.0094974804669619
 11
-59.85838317871094
 21
861.5948038101196
 31
0.0094974869862199
  0
LINE
  5
94
  8
CAP
 10
-59.85838317871094
 20
861.5948038101196
 30
0.0094974869862199
 11
-59.79658508300781
 21
861.7433137893677
 31
0.0094974935054779
  0
LINE
  5
95
  8
CAP
 10
-59.79658508300781
 20
861.7433137893677
 30
0.0094974935054779
 11
-59.72411346435547
 21
861.8880186080933
 31
0.0094975000247359
  0
LINE
  5
96
  8
CAP
 10
-59.72411346435547
 20
861.8880186080933
 30
0.0094975000247359
 11
-59.64207458496094
 21
862.026759147644
 31
0.0094975056126714
  0
LINE
  5
97
  8
CAP
 10
-59.64207458496094
 20
862.026759147644
 30
0.0094975056126714
 11
-59.55148315429688
 21
862.1574831008911
 31
0.0094975121319294
  0
LINE
  5
98
  8
CAP
 10
-59.55148315429688
 20
862.1574831008911
 30
0.0094975121319294
 11
-59.45088195800781
 21
862.2819147109985
 31
0.0094975177198648
  0
LINE
  5
99
  8
CAP
 10
-59.45088195800781
 20
862.2819147109985
 30
0.0094975177198648
 11
-59.34062957763672
 21
862.4001150131226
 31
0.0094975223764777
  0
LINE
  5
9A
  8
CAP
 10
-59.34062957763672
 20
862.4001150131226
 30
0.0094975223764777
 11
-59.22242736816406
 21
862.5103693008423
 31
0.0094975270330906
  0
LINE
  5
9B
  8
CAP
 10
-59.22242736816406
 20
862.5103693008423
 30
0.0094975270330906
 11
-59.09799957275391
 21
862.6109647750854
 31
0.0094975316897035
  0
LINE
  5
9C
  8
CAP
 10
-59.09799957275391
 20
862.6109647750854
 30
0.0094975316897035
 11
-58.96727752685547
 21
862.7015562057495
 31
0.0094975363463163
  0
LINE
  5
9D
  8
CAP
 10
-58.96727752685547
 20
862.7015562057495
 30
0.0094975363463163
 11
-58.82853698730469
 21
862.7835969924927
 31
0.0094975391402841
  0
LINE
  5
9E
  8
CAP
 10
-58.82853698730469
 20
862.7835969924927
 30
0.0094975391402841
 11
-58.68383026123047
 21
862.8560667037964
 31
0.0094975428655744
  0
LINE
  5
9F
  8
CAP
 10
-58.68383026123047
 20
862.8560667037964
 30
0.0094975428655744
 11
-58.53531646728516
 21
862.9178647994995
 31
0.0094975456595421
  0
LINE
  5
A0
  8
CAP
 10
-58.53531646728516
 20
862.9178647994995
 30
0.0094975456595421
 11
-58.38463592529297
 21
862.9680700302124
 31
0.0094975475221872
  0
LINE
  5
A1
  8
CAP
 10
-58.38463592529297
 20
862.9680700302124
 30
0.0094975475221872
 11
-58.22909545898438
 21
863.007493019104
 31
0.0094975493848324
  0
LINE
  5
A2
  8
CAP
 10
-58.22909545898438
 20
863.007493019104
 30
0.0094975493848324
 11
-58.06987762451172
 21
863.0361242294312
 31
0.009497550316155
  0
LINE
  5
A3
  8
CAP
 10
-58.06987762451172
 20
863.0361242294312
 30
0.009497550316155
 11
-57.90937805175781
 21
863.0535821914673
 31
0.0094975512474775
  0
LINE
  5
A4
  8
CAP
 10
-57.90937805175781
 20
863.0535821914673
 30
0.0094975512474775
 11
-57.75
 21
863.0594854354858
 31
0.0094975521788001
  0
LINE
  5
A5
  8
CAP
 10
-57.75
 20
863.0594854354858
 30
0.0094975521788001
 11
-57.59062194824219
 21
863.0535821914673
 31
0.0094975512474775
  0
LINE
  5
A6
  8
CAP
 10
-57.59062194824219
 20
863.0535821914673
 30
0.0094975512474775
 11
-57.43012237548828
 21
863.0361242294312
 31
0.009497550316155
  0
LINE
  5
A7
  8
CAP
 10
-57.43012237548828
 20
863.0361242294312
 30
0.009497550316155
 11
-57.27090454101562
 21
863.007493019104
 31
0.0094975493848324
  0
LINE
  5
A8
  8
CAP
 10
-57.27090454101562
 20
863.007493019104
 30
0.0094975493848324
 11
-57.11536407470703
 21
862.9680700302124
 31
0.0094975475221872
  0
LINE
  5
A9
  8
CAP
 10
-57.11536407470703
 20
862.9680700302124
 30
0.0094975475221872
 11
-56.96468353271484
 21
862.9178647994995
 31
0.0094975456595421
  0
LINE
  5
AA
  8
CAP
 10
-56.96468353271484
 20
862.9178647994995
 30
0.0094975456595421
 11
-56.81616973876953
 21
862.8560667037964
 31
0.0094975428655744
  0
LINE
  5
AB
  8
CAP
 10
-56.81616973876953
 20
862.8560667037964
 30
0.0094975428655744
 11
-56.67146301269531
 21
862.7835969924927
 31
0.0094975391402841
  0
LINE
  5
AC
  8
CAP
 10
-56.67146301269531
 20
862.7835969924927
 30
0.0094975391402841
 11
-56.53272247314453
 21
862.7015562057495
 31
0.0094975363463163
  0
LINE
  5
AD
  8
CAP
 10
-56.53272247314453
 20
862.7015562057495
 30
0.0094975363463163
 11
-56.40200042724609
 21
862.6109647750854
 31
0.0094975316897035
  0
LINE
  5
AE
  8
CAP
 10
-56.40200042724609
 20
862.6109647750854
 30
0.0094975316897035
 11
-56.27757263183594
 21
862.5103693008423
 31
0.0094975270330906
  0
LINE
  5
AF
  8
CAP
 10
-56.27757263183594
 20
862.5103693008423
 30
0.0094975270330906
 11
-56.15937042236328
 21
862.4001150131226
 31
0.0094975223764777
  0
LINE
  5
B0
  8
CAP
 10
-56.15937042236328
 20
862.4001150131226
 30
0.0094975223764777
 11
-56.04911804199219
 21
862.2819147109985
 31
0.0094975177198648
  0
LINE
  5
B1
  8
CAP
 10
-56.04911804199219
 20
862.2819147109985
 30
0.0094975177198648
 11
-55.94851684570312
 21
862.1574831008911
 31
0.0094975121319294
  0
LINE
  5
B2
  8
CAP
 10
-55.94851684570312
 20
862.1574831008911
 30
0.0094975121319294
 11
-55.85792541503906
 21
862.026759147644
 31
0.0094975056126714
  0
LINE
  5
B3
  8
CAP
 10
-55.85792541503906
 20
862.026759147644
 30
0.0094975056126714
 11
-55.77588653564453
 21
861.8880186080933
 31
0.0094975000247359
  0
LINE
  5
B4
  8
CAP
 10
-55.77588653564453
 20
861.8880186080933
 30
0.0094975000247359
 11
-55.70341491699219
 21
861.7433137893677
 31
0.0094974935054779
  0
LINE
  5
B5
  8
CAP
 10
-55.70341491699219
 20
861.7433137893677
 30
0.0094974935054779
 11
-55.64161682128906
 21
861.5948038101196
 31
0.0094974869862199
  0
LINE
  5
B6
  8
CAP
 10
-55.64161682128906
 20
861.5948038101196
 30
0.0094974869862199
 11
-55.59145355224609
 21
861.4443769454956
 31
0.0094974804669619
  0
LINE
  5
B7
  8
CAP
 10
-55.59145355224609
 20
861.4443769454956
 30
0.0094974804669619
 11
-55.55236053466797
 21
861.2909269332886
 31
0.0094974730163813
  0
LINE
  5
B8
  8
CAP
 10
-130.5523629188538
 20
861.2909269332886
 30
0.0094974730163813
 11
-130.5240888595581
 21
861.1339616775513
 31
0.0094974664971232
  0
LINE
  5
B9
  8
CAP
 10
-130.5240888595581
 20
861.1339616775513
 30
0.0094974664971232
 11
-130.5066347122192
 21
860.9734811782837
 31
0.0094974590465426
  0
LINE
  5
BA
  8
CAP
 10
-130.5066347122192
 20
860.9734811782837
 30
0.0094974590465426
 11
-130.5
 21
860.8094854354858
 31
0.009497451595962
  0
LINE
  5
BB
  8
CAP
 10
-130.5
 20
860.8094854354858
 30
0.009497451595962
 11
-130.5066347122192
 21
860.6454877853394
 31
0.009497445076704
  0
LINE
  5
BC
  8
CAP
 10
-130.5066347122192
 20
860.6454877853394
 30
0.009497445076704
 11
-130.5240888595581
 21
860.4850072860718
 31
0.0094974376261234
  0
LINE
  5
BD
  8
CAP
 10
-130.5240888595581
 20
860.4850072860718
 30
0.0094974376261234
 11
-130.5523629188538
 21
860.3280420303345
 31
0.0094974301755428
  0
LINE
  5
BE
  8
CAP
 10
-130.5523629188538
 20
860.3280420303345
 30
0.0094974301755428
 11
-130.5914559364319
 21
860.1745920181274
 31
0.0094974236562848
  0
LINE
  5
BF
  8
CAP
 10
-130.5914559364319
 20
860.1745920181274
 30
0.0094974236562848
 11
-130.6416201591492
 21
860.0241651535034
 31
0.0094974171370268
  0
LINE
  5
C0
  8
CAP
 10
-130.6416201591492
 20
860.0241651535034
 30
0.0094974171370268
 11
-130.703417301178
 21
859.8756551742554
 31
0.0094974106177688
  0
LINE
  5
C1
  8
CAP
 10
-130.703417301178
 20
859.8756551742554
 30
0.0094974106177688
 11
-130.7758874893188
 21
859.7309503555298
 31
0.0094974040985107
  0
LINE
  5
C2
  8
CAP
 10
-130.7758874893188
 20
859.7309503555298
 30
0.0094974040985107
 11
-130.857928276062
 21
859.5922107696533
 31
0.0094973975792527
  0
LINE
  5
C3
  8
CAP
 10
-130.857928276062
 20
859.5922107696533
 30
0.0094973975792527
 11
-130.9485201835632
 21
859.4614849090576
 31
0.0094973919913173
  0
LINE
  5
C4
  8
CAP
 10
-130.9485201835632
 20
859.4614849090576
 30
0.0094973919913173
 11
-131.0491147041321
 21
859.3370552062988
 31
0.0094973864033818
  0
LINE
  5
C5
  8
CAP
 10
-131.0491147041321
 20
859.3370552062988
 30
0.0094973864033818
 11
-131.1593699455261
 21
859.2188549041748
 31
0.009497381746769
  0
LINE
  5
C6
  8
CAP
 10
-131.1593699455261
 20
859.2188549041748
 30
0.009497381746769
 11
-131.2775707244873
 21
859.1085987091064
 31
0.0094973761588335
  0
LINE
  5
C7
  8
CAP
 10
-131.2775707244873
 20
859.1085987091064
 30
0.0094973761588335
 11
-131.4020009040833
 21
859.0080051422119
 31
0.0094973724335432
  0
LINE
  5
C8
  8
CAP
 10
-131.4020009040833
 20
859.0080051422119
 30
0.0094973724335432
 11
-131.5327258110046
 21
858.9174127578735
 31
0.0094973677769303
  0
LINE
  5
C9
  8
CAP
 10
-131.5327258110046
 20
858.9174127578735
 30
0.0094973677769303
 11
-131.6714653968811
 21
858.8353719711304
 31
0.00949736405164
  0
LINE
  5
CA
  8
CAP
 10
-131.6714653968811
 20
858.8353719711304
 30
0.00949736405164
 11
-131.8161706924438
 21
858.7629022598267
 31
0.0094973612576723
  0
LINE
  5
CB
  8
CAP
 10
-131.8161706924438
 20
858.7629022598267
 30
0.0094973612576723
 11
-131.9646797180176
 21
858.7011051177979
 31
0.0094973584637046
  0
LINE
  5
CC
  8
CAP
 10
-131.9646797180176
 20
858.7011051177979
 30
0.0094973584637046
 11
-132.1153631210327
 21
858.650899887085
 31
0.0094973566010594
  0
LINE
  5
CD
  8
CAP
 10
-132.1153631210327
 20
858.650899887085
 30
0.0094973566010594
 11
-132.2709064483643
 21
858.6114749908447
 31
0.0094973547384143
  0
LINE
  5
CE
  8
CAP
 10
-132.2709064483643
 20
858.6114749908447
 30
0.0094973547384143
 11
-132.4301247596741
 21
858.5828447341919
 31
0.0094973528757691
  0
LINE
  5
CF
  8
CAP
 10
-132.4301247596741
 20
858.5828447341919
 30
0.0094973528757691
 11
-132.590621471405
 21
858.5653877258301
 31
0.0094973519444466
  0
LINE
  5
D0
  8
CAP
 10
-132.590621471405
 20
858.5653877258301
 30
0.0094973519444466
 11
-132.75
 21
858.5594844818115
 31
0.0094973519444466
  0
LINE
  5
D1
  8
CAP
 10
-132.75
 20
858.5594844818115
 30
0.0094973519444466
 11
-132.909378528595
 21
858.5653877258301
 31
0.0094973519444466
  0
LINE
  5
D2
  8
CAP
 10
-132.909378528595
 20
858.5653877258301
 30
0.0094973519444466
 11
-133.0698752403259
 21
858.5828447341919
 31
0.0094973528757691
  0
LINE
  5
D3
  8
CAP
 10
-133.0698752403259
 20
858.5828447341919
 30
0.0094973528757691
 11
-133.2290935516357
 21
858.6114749908447
 31
0.0094973547384143
  0
LINE
  5
D4
  8
CAP
 10
-133.2290935516357
 20
858.6114749908447
 30
0.0094973547384143
 11
-133.3846368789673
 21
858.650899887085
 31
0.0094973566010594
  0
LINE
  5
D5
  8
CAP
 10
-133.3846368789673
 20
858.650899887085
 30
0.0094973566010594
 11
-133.5353202819824
 21
858.7011051177979
 31
0.0094973584637046
  0
LINE
  5
D6
  8
CAP
 10
-133.5353202819824
 20
858.7011051177979
 30
0.0094973584637046
 11
-133.6838293075562
 21
858.7629022598267
 31
0.0094973612576723
  0
LINE
  5
D7
  8
CAP
 10
-133.6838293075562
 20
858.7629022598267
 30
0.0094973612576723
 11
-133.8285346031189
 21
858.8353719711304
 31
0.00949736405164
  0
LINE
  5
D8
  8
CAP
 10
-133.8285346031189
 20
858.8353719711304
 30
0.00949736405164
 11
-133.9672741889954
 21
858.9174127578735
 31
0.0094973677769303
  0
LINE
  5
D9
  8
CAP
 10
-133.9672741889954
 20
858.9174127578735
 30
0.0094973677769303
 11
-134.0979990959167
 21
859.0080051422119
 31
0.0094973724335432
  0
LINE
  5
DA
  8
CAP
 10
-134.0979990959167
 20
859.0080051422119
 30
0.0094973724335432
 11
-134.2224292755127
 21
859.1085987091064
 31
0.0094973761588335
  0
LINE
  5
DB
  8
CAP
 10
-134.2224292755127
 20
859.1085987091064
 30
0.0094973761588335
 11
-134.3406295776367
 21
859.2188549041748
 31
0.009497381746769
  0
LINE
  5
DC
  8
CAP
 10
-134.3406295776367
 20
859.2188549041748
 30
0.009497381746769
 11
-134.4508857727051
 21
859.3370552062988
 31
0.0094973864033818
  0
LINE
  5
DD
  8
CAP
 10
-134.4508857727051
 20
859.3370552062988
 30
0.0094973864033818
 11
-134.5514793395996
 21
859.4614849090576
 31
0.0094973919913173
  0
LINE
  5
DE
  8
CAP
 10
-134.5514793395996
 20
859.4614849090576
 30
0.0094973919913173
 11
-134.642071723938
 21
859.5922107696533
 31
0.0094973975792527
  0
LINE
  5
DF
  8
CAP
 10
-134.642071723938
 20
859.5922107696533
 30
0.0094973975792527
 11
-134.7241125106812
 21
859.7309503555298
 31
0.0094974040985107
  0
LINE
  5
E0
  8
CAP
 10
-134.7241125106812
 20
859.7309503555298
 30
0.0094974040985107
 11
-134.7965822219849
 21
859.8756551742554
 31
0.0094974106177688
  0
LINE
  5
E1
  8
CAP
 10
-134.7965822219849
 20
859.8756551742554
 30
0.0094974106177688
 11
-134.858380317688
 21
860.0241651535034
 31
0.0094974171370268
  0
LINE
  5
E2
  8
CAP
 10
-134.858380317688
 20
860.0241651535034
 30
0.0094974171370268
 11
-134.908543586731
 21
860.1745920181274
 31
0.0094974236562848
  0
LINE
  5
E3
  8
CAP
 10
-134.908543586731
 20
860.1745920181274
 30
0.0094974236562848
 11
-134.9476375579834
 21
860.3280420303345
 31
0.0094974301755428
  0
LINE
  5
E4
  8
CAP
 10
-134.9476375579834
 20
860.3280420303345
 30
0.0094974301755428
 11
-134.9759111404419
 21
860.4850072860718
 31
0.0094974376261234
  0
LINE
  5
E5
  8
CAP
 10
-134.9759111404419
 20
860.4850072860718
 30
0.0094974376261234
 11
-134.9933652877808
 21
860.6454877853394
 31
0.009497445076704
  0
LINE
  5
E6
  8
CAP
 10
-134.9933652877808
 20
860.6454877853394
 30
0.009497445076704
 11
-135.0
 21
860.8094854354858
 31
0.009497451595962
  0
LINE
  5
E7
  8
CAP
 10
-135.0
 20
860.8094854354858
 30
0.009497451595962
 11
-134.9933652877808
 21
860.9734811782837
 31
0.0094974590465426
  0
LINE
  5
E8
  8
CAP
 10
-134.9933652877808
 20
860.9734811782837
 30
0.0094974590465426
 11
-134.9759111404419
 21
861.1339616775513
 31
0.0094974664971232
  0
LINE
  5
E9
  8
CAP
 10
-134.9759111404419
 20
861.1339616775513
 30
0.0094974664971232
 11
-134.9476375579834
 21
861.2909269332886
 31
0.0094974730163813
  0
LINE
  5
EA
  8
CAP
 10
-134.9476375579834
 20
861.2909269332886
 30
0.0094974730163813
 11
-134.908543586731
 21
861.4443769454956
 31
0.0094974804669619
  0
LINE
  5
EB
  8
CAP
 10
-134.908543586731
 20
861.4443769454956
 30
0.0094974804669619
 11
-134.858380317688
 21
861.5948038101196
 31
0.0094974869862199
  0
LINE
  5
EC
  8
CAP
 10
-134.858380317688
 20
861.5948038101196
 30
0.0094974869862199
 11
-134.7965822219849
 21
861.7433137893677
 31
0.0094974935054779
  0
LINE
  5
ED
  8
CAP
 10
-134.7965822219849
 20
861.7433137893677
 30
0.0094974935054779
 11
-134.7241125106812
 21
861.8880186080933
 31
0.0094975000247359
  0
LINE
  5
EE
  8
CAP
 10
-134.7241125106812
 20
861.8880186080933
 30
0.0094975000247359
 11
-134.642071723938
 21
862.026759147644
 31
0.0094975056126714
  0
LINE
  5
EF
  8
CAP
 10
-134.642071723938
 20
862.026759147644
 30
0.0094975056126714
 11
-134.5514793395996
 21
862.1574831008911
 31
0.0094975121319294
  0
LINE
  5
F0
  8
CAP
 10
-134.5514793395996
 20
862.1574831008911
 30
0.0094975121319294
 11
-134.4508857727051
 21
862.2819147109985
 31
0.0094975177198648
  0
LINE
  5
F1
  8
CAP
 10
-134.4508857727051
 20
862.2819147109985
 30
0.0094975177198648
 11
-134.3406295776367
 21
862.4001150131226
 31
0.0094975223764777
  0
LINE
  5
F2
  8
CAP
 10
-134.3406295776367
 20
862.4001150131226
 30
0.0094975223764777
 11
-134.2224292755127
 21
862.5103693008423
 31
0.0094975270330906
  0
LINE
  5
F3
  8
CAP
 10
-134.2224292755127
 20
862.5103693008423
 30
0.0094975270330906
 11
-134.0979990959167
 21
862.6109647750854
 31
0.0094975316897035
  0
LINE
  5
F4
  8
CAP
 10
-134.0979990959167
 20
862.6109647750854
 30
0.0094975316897035
 11
-133.9672741889954
 21
862.7015562057495
 31
0.0094975363463163
  0
LINE
  5
F5
  8
CAP
 10
-133.9672741889954
 20
862.7015562057495
 30
0.0094975363463163
 11
-133.8285346031189
 21
862.7835969924927
 31
0.0094975391402841
  0
LINE
  5
F6
  8
CAP
 10
-133.8285346031189
 20
862.7835969924927
 30
0.0094975391402841
 11
-133.6838293075562
 21
862.8560667037964
 31
0.0094975428655744
  0
LINE
  5
F7
  8
CAP
 10
-133.6838293075562
 20
862.8560667037964
 30
0.0094975428655744
 11
-133.5353202819824
 21
862.9178647994995
 31
0.0094975456595421
  0
LINE
  5
F8
  8
CAP
 10
-133.5353202819824
 20
862.9178647994995
 30
0.0094975456595421
 11
-133.3846368789673
 21
862.9680700302124
 31
0.0094975475221872
  0
LINE
  5
F9
  8
CAP
 10
-133.3846368789673
 20
862.9680700302124
 30
0.0094975475221872
 11
-133.2290935516357
 21
863.007493019104
 31
0.0094975493848324
  0
LINE
  5
FA
  8
CAP
 10
-133.2290935516357
 20
863.007493019104
 30
0.0094975493848324
 11
-133.0698752403259
 21
863.0361242294312
 31
0.009497550316155
  0
LINE
  5
FB
  8
CAP
 10
-133.0698752403259
 20
863.0361242294312
 30
0.009497550316155
 11
-132.909378528595
 21
863.0535821914673
 31
0.0094975512474775
  0
LINE
  5
FC
  8
CAP
 10
-132.909378528595
 20
863.0535821914673
 30
0.0094975512474775
 11
-132.75
 21
863.0594854354858
 31
0.0094975521788001
  0
LINE
  5
FD
  8
CAP
 10
-132.75
 20
863.0594854354858
 30
0.0094975521788001
 11
-132.590621471405
 21
863.0535821914673
 31
0.0094975512474775
  0
LINE
  5
FE
  8
CAP
 10
-132.590621471405
 20
863.0535821914673
 30
0.0094975512474775
 11
-132.4301247596741
 21
863.0361242294312
 31
0.009497550316155
  0
LINE
  5
FF
  8
CAP
 10
-132.4301247596741
 20
863.0361242294312
 30
0.009497550316155
 11
-132.2709064483643
 21
863.007493019104
 31
0.0094975493848324
  0
LINE
  5
100
  8
CAP
 10
-132.2709064483643
 20
863.007493019104
 30
0.0094975493848324
 11
-132.1153631210327
 21
862.9680700302124
 31
0.0094975475221872
  0
LINE
  5
101
  8
CAP
 10
-132.1153631210327
 20
862.9680700302124
 30
0.0094975475221872
 11
-131.9646797180176
 21
862.9178647994995
 31
0.0094975456595421
  0
LINE
  5
102
  8
CAP
 10
-131.9646797180176
 20
862.9178647994995
 30
0.0094975456595421
 11
-131.8161706924438
 21
862.8560667037964
 31
0.0094975428655744
  0
LINE
  5
103
  8
CAP
 10
-131.8161706924438
 20
862.8560667037964
 30
0.0094975428655744
 11
-131.6714653968811
 21
862.7835969924927
 31
0.0094975391402841
  0
LINE
  5
104
  8
CAP
 10
-131.6714653968811
 20
862.7835969924927
 30
0.0094975391402841
 11
-131.5327258110046
 21
862.7015562057495
 31
0.0094975363463163
  0
LINE
  5
105
  8
CAP
 10
-131.5327258110046
 20
862.7015562057495
 30
0.0094975363463163
 11
-131.4020009040833
 21
862.6109647750854
 31
0.0094975316897035
  0
LINE
  5
106
  8
CAP
 10
-131.4020009040833
 20
862.6109647750854
 30
0.0094975316897035
 11
-131.2775707244873
 21
862.5103693008423
 31
0.0094975270330906
  0
LINE
  5
107
  8
CAP
 10
-131.2775707244873
 20
862.5103693008423
 30
0.0094975270330906
 11
-131.1593699455261
 21
862.4001150131226
 31
0.0094975223764777
  0
LINE
  5
108
  8
CAP
 10
-131.1593699455261
 20
862.4001150131226
 30
0.0094975223764777
 11
-131.0491147041321
 21
862.2819147109985
 31
0.0094975177198648
  0
LINE
  5
109
  8
CAP
 10
-131.0491147041321
 20
862.2819147109985
 30
0.0094975177198648
 11
-130.9485201835632
 21
862.1574831008911
 31
0.0094975121319294
  0
LINE
  5
10A
  8
CAP
 10
-130.9485201835632
 20
862.1574831008911
 30
0.0094975121319294
 11
-130.857928276062
 21
862.026759147644
 31
0.0094975056126714
  0
LINE
  5
10B
  8
CAP
 10
-130.857928276062
 20
862.026759147644
 30
0.0094975056126714
 11
-130.7758874893188
 21
861.8880186080933
 31
0.0094975000247359
  0
LINE
  5
10C
  8
CAP
 10
-130.7758874893188
 20
861.8880186080933
 30
0.0094975000247359
 11
-130.703417301178
 21
861.7433137893677
 31
0.0094974935054779
  0
LINE
  5
10D
  8
CAP
 10
-130.703417301178
 20
861.7433137893677
 30
0.0094974935054779
 11
-130.6416201591492
 21
861.5948038101196
 31
0.0094974869862199
  0
LINE
  5
10E
  8
CAP
 10
-130.6416201591492
 20
861.5948038101196
 30
0.0094974869862199
 11
-130.5914559364319
 21
861.4443769454956
 31
0.0094974804669619
  0
LINE
  5
10F
  8
CAP
 10
-130.5914559364319
 20
861.4443769454956
 30
0.0094974804669619
 11
-130.5523629188538
 21
861.2909269332886
 31
0.0094974730163813
  0
LINE
  5
110
  8
CAP
 10
-55.55236053466797
 20
936.2909088134766
 30
0.0095008006319404
 11
-55.52408599853516
 21
936.1339416503906
 31
0.0095007941126823
  0
LINE
  5
111
  8
CAP
 10
-55.52408599853516
 20
936.1339416503906
 30
0.0095007941126823
 11
-55.50663757324219
 21
935.9734649658203
 31
0.0095007866621017
  0
LINE
  5
112
  8
CAP
 10
-55.50663757324219
 20
935.9734649658203
 30
0.0095007866621017
 11
-55.5
 21
935.8094635009766
 31
0.0095007792115211
  0
LINE
  5
113
  8
CAP
 10
-55.5
 20
935.8094635009766
 30
0.0095007792115211
 11
-55.50663757324219
 21
935.6454696655273
 31
0.0095007717609406
  0
LINE
  5
114
  8
CAP
 10
-55.50663757324219
 20
935.6454696655273
 30
0.0095007717609406
 11
-55.52408599853516
 21
935.484992980957
 31
0.0095007652416825
  0
LINE
  5
115
  8
CAP
 10
-55.52408599853516
 20
935.484992980957
 30
0.0095007652416825
 11
-55.55236053466797
 21
935.3280258178711
 31
0.0095007577911019
  0
LINE
  5
116
  8
CAP
 10
-55.55236053466797
 20
935.3280258178711
 30
0.0095007577911019
 11
-55.59145355224609
 21
935.1745758056641
 31
0.0095007512718439
  0
LINE
  5
117
  8
CAP
 10
-55.59145355224609
 20
935.1745758056641
 30
0.0095007512718439
 11
-55.64161682128906
 21
935.0241470336914
 31
0.0095007447525859
  0
LINE
  5
118
  8
CAP
 10
-55.64161682128906
 20
935.0241470336914
 30
0.0095007447525859
 11
-55.70341491699219
 21
934.8756408691406
 31
0.0095007382333279
  0
LINE
  5
119
  8
CAP
 10
-55.70341491699219
 20
934.8756408691406
 30
0.0095007382333279
 11
-55.77588653564453
 21
934.7309341430664
 31
0.0095007317140698
  0
LINE
  5
11A
  8
CAP
 10
-55.77588653564453
 20
934.7309341430664
 30
0.0095007317140698
 11
-55.85792541503906
 21
934.5921936035156
 31
0.0095007251948118
  0
LINE
  5
11B
  8
CAP
 10
-55.85792541503906
 20
934.5921936035156
 30
0.0095007251948118
 11
-55.94851684570312
 21
934.4614639282227
 31
0.0095007196068764
  0
LINE
  5
11C
  8
CAP
 10
-55.94851684570312
 20
934.4614639282227
 30
0.0095007196068764
 11
-56.04911804199219
 21
934.3370361328125
 31
0.0095007140189409
  0
LINE
  5
11D
  8
CAP
 10
-56.04911804199219
 20
934.3370361328125
 30
0.0095007140189409
 11
-56.15937042236328
 21
934.2188339233398
 31
0.0095007093623281
  0
LINE
  5
11E
  8
CAP
 10
-56.15937042236328
 20
934.2188339233398
 30
0.0095007093623281
 11
-56.27757263183594
 21
934.1085815429688
 31
0.0095007037743926
  0
LINE
  5
11F
  8
CAP
 10
-56.27757263183594
 20
934.1085815429688
 30
0.0095007037743926
 11
-56.40200042724609
 21
934.0079879760742
 31
0.0095006991177797
  0
LINE
  5
120
  8
CAP
 10
-56.40200042724609
 20
934.0079879760742
 30
0.0095006991177797
 11
-56.53272247314453
 21
933.9173965454102
 31
0.0095006953924894
  0
LINE
  5
121
  8
CAP
 10
-56.53272247314453
 20
933.9173965454102
 30
0.0095006953924894
 11
-56.67146301269531
 21
933.8353576660156
 31
0.0095006916671991
  0
LINE
  5
122
  8
CAP
 10
-56.67146301269531
 20
933.8353576660156
 30
0.0095006916671991
 11
-56.81616973876953
 21
933.7628860473633
 31
0.0095006888732314
  0
LINE
  5
123
  8
CAP
 10
-56.81616973876953
 20
933.7628860473633
 30
0.0095006888732314
 11
-56.96468353271484
 21
933.7010879516602
 31
0.0095006860792637
  0
LINE
  5
124
  8
CAP
 10
-56.96468353271484
 20
933.7010879516602
 30
0.0095006860792637
 11
-57.11536407470703
 21
933.65087890625
 31
0.009500683285296
  0
LINE
  5
125
  8
CAP
 10
-57.11536407470703
 20
933.65087890625
 30
0.009500683285296
 11
-57.27090454101562
 21
933.611457824707
 31
0.0095006823539734
  0
LINE
  5
126
  8
CAP
 10
-57.27090454101562
 20
933.611457824707
 30
0.0095006823539734
 11
-57.43012237548828
 21
933.5828247070312
 31
0.0095006804913282
  0
LINE
  5
127
  8
CAP
 10
-57.43012237548828
 20
933.5828247070312
 30
0.0095006804913282
 11
-57.59062194824219
 21
933.5653686523438
 31
0.0095006795600057
  0
LINE
  5
128
  8
CAP
 10
-57.59062194824219
 20
933.5653686523438
 30
0.0095006795600057
 11
-57.75
 21
933.5594635009766
 31
0.0095006795600057
  0
LINE
  5
129
  8
CAP
 10
-57.75
 20
933.5594635009766
 30
0.0095006795600057
 11
-57.90937805175781
 21
933.5653686523438
 31
0.0095006795600057
  0
LINE
  5
12A
  8
CAP
 10
-57.90937805175781
 20
933.5653686523438
 30
0.0095006795600057
 11
-58.06987762451172
 21
933.5828247070312
 31
0.0095006804913282
  0
LINE
  5
12B
  8
CAP
 10
-58.06987762451172
 20
933.5828247070312
 30
0.0095006804913282
 11
-58.22909545898438
 21
933.611457824707
 31
0.0095006823539734
  0
LINE
  5
12C
  8
CAP
 10
-58.22909545898438
 20
933.611457824707
 30
0.0095006823539734
 11
-58.38463592529297
 21
933.65087890625
 31
0.009500683285296
  0
LINE
  5
12D
  8
CAP
 10
-58.38463592529297
 20
933.65087890625
 30
0.009500683285296
 11
-58.53531646728516
 21
933.7010879516602
 31
0.0095006860792637
  0
LINE
  5
12E
  8
CAP
 10
-58.53531646728516
 20
933.7010879516602
 30
0.0095006860792637
 11
-58.68383026123047
 21
933.7628860473633
 31
0.0095006888732314
  0
LINE
  5
12F
  8
CAP
 10
-58.68383026123047
 20
933.7628860473633
 30
0.0095006888732314
 11
-58.82853698730469
 21
933.8353576660156
 31
0.0095006916671991
  0
LINE
  5
130
  8
CAP
 10
-58.82853698730469
 20
933.8353576660156
 30
0.0095006916671991
 11
-58.96727752685547
 21
933.9173965454102
 31
0.0095006953924894
  0
LINE
  5
131
  8
CAP
 10
-58.96727752685547
 20
933.9173965454102
 30
0.0095006953924894
 11
-59.09799957275391
 21
934.0079879760742
 31
0.0095006991177797
  0
LINE
  5
132
  8
CAP
 10
-59.09799957275391
 20
934.0079879760742
 30
0.0095006991177797
 11
-59.22242736816406
 21
934.1085815429688
 31
0.0095007037743926
  0
LINE
  5
133
  8
CAP
 10
-59.22242736816406
 20
934.1085815429688
 30
0.0095007037743926
 11
-59.34062957763672
 21
934.2188339233398
 31
0.0095007093623281
  0
LINE
  5
134
  8
CAP
 10
-59.34062957763672
 20
934.2188339233398
 30
0.0095007093623281
 11
-59.45088195800781
 21
934.3370361328125
 31
0.0095007140189409
  0
LINE
  5
135
  8
CAP
 10
-59.45088195800781
 20
934.3370361328125
 30
0.0095007140189409
 11
-59.55148315429688
 21
934.4614639282227
 31
0.0095007196068764
  0
LINE
  5
136
  8
CAP
 10
-59.55148315429688
 20
934.4614639282227
 30
0.0095007196068764
 11
-59.64207458496094
 21
934.5921936035156
 31
0.0095007251948118
  0
LINE
  5
137
  8
CAP
 10
-59.64207458496094
 20
934.5921936035156
 30
0.0095007251948118
 11
-59.72411346435547
 21
934.7309341430664
 31
0.0095007317140698
  0
LINE
  5
138
  8
CAP
 10
-59.72411346435547
 20
934.7309341430664
 30
0.0095007317140698
 11
-59.79658508300781
 21
934.8756408691406
 31
0.0095007382333279
  0
LINE
  5
139
  8
CAP
 10
-59.79658508300781
 20
934.8756408691406
 30
0.0095007382333279
 11
-59.85838317871094
 21
935.0241470336914
 31
0.0095007447525859
  0
LINE
  5
13A
  8
CAP
 10
-59.85838317871094
 20
935.0241470336914
 30
0.0095007447525859
 11
-59.90854644775391
 21
935.1745758056641
 31
0.0095007512718439
  0
LINE
  5
13B
  8
CAP
 10
-59.90854644775391
 20
935.1745758056641
 30
0.0095007512718439
 11
-59.94763946533203
 21
935.3280258178711
 31
0.0095007577911019
  0
LINE
  5
13C
  8
CAP
 10
-59.94763946533203
 20
935.3280258178711
 30
0.0095007577911019
 11
-59.97591400146484
 21
935.484992980957
 31
0.0095007652416825
  0
LINE
  5
13D
  8
CAP
 10
-59.97591400146484
 20
935.484992980957
 30
0.0095007652416825
 11
-59.99336242675781
 21
935.6454696655273
 31
0.0095007717609406
  0
LINE
  5
13E
  8
CAP
 10
-59.99336242675781
 20
935.6454696655273
 30
0.0095007717609406
 11
-60.0
 21
935.8094635009766
 31
0.0095007792115211
  0
LINE
  5
13F
  8
CAP
 10
-60.0
 20
935.8094635009766
 30
0.0095007792115211
 11
-59.99336242675781
 21
935.9734649658203
 31
0.0095007866621017
  0
LINE
  5
140
  8
CAP
 10
-59.99336242675781
 20
935.9734649658203
 30
0.0095007866621017
 11
-59.97591400146484
 21
936.1339416503906
 31
0.0095007941126823
  0
LINE
  5
141
  8
CAP
 10
-59.97591400146484
 20
936.1339416503906
 30
0.0095007941126823
 11
-59.94763946533203
 21
936.2909088134766
 31
0.0095008006319404
  0
LINE
  5
142
  8
CAP
 10
-59.94763946533203
 20
936.2909088134766
 30
0.0095008006319404
 11
-59.90854644775391
 21
936.4443588256836
 31
0.009500808082521
  0
LINE
  5
143
  8
CAP
 10
-59.90854644775391
 20
936.4443588256836
 30
0.009500808082521
 11
-59.85838317871094
 21
936.5947875976562
 31
0.009500814601779
  0
LINE
  5
144
  8
CAP
 10
-59.85838317871094
 20
936.5947875976562
 30
0.009500814601779
 11
-59.79658508300781
 21
936.743293762207
 31
0.009500821121037
  0
LINE
  5
145
  8
CAP
 10
-59.79658508300781
 20
936.743293762207
 30
0.009500821121037
 11
-59.72411346435547
 21
936.8880004882812
 31
0.009500827640295
  0
LINE
  5
146
  8
CAP
 10
-59.72411346435547
 20
936.8880004882812
 30
0.009500827640295
 11
-59.64207458496094
 21
937.026741027832
 31
0.0095008332282305
  0
LINE
  5
147
  8
CAP
 10
-59.64207458496094
 20
937.026741027832
 30
0.0095008332282305
 11
-59.55148315429688
 21
937.1574630737305
 31
0.0095008397474885
  0
LINE
  5
148
  8
CAP
 10
-59.55148315429688
 20
937.1574630737305
 30
0.0095008397474885
 11
-59.45088195800781
 21
937.2818984985352
 31
0.0095008444041014
  0
LINE
  5
149
  8
CAP
 10
-59.45088195800781
 20
937.2818984985352
 30
0.0095008444041014
 11
-59.34062957763672
 21
937.4000930786133
 31
0.0095008499920368
  0
LINE
  5
14A
  8
CAP
 10
-59.34062957763672
 20
937.4000930786133
 30
0.0095008499920368
 11
-59.22242736816406
 21
937.5103530883789
 31
0.0095008546486497
  0
LINE
  5
14B
  8
CAP
 10
-59.22242736816406
 20
937.5103530883789
 30
0.0095008546486497
 11
-59.09799957275391
 21
937.6109466552734
 31
0.0095008593052626
  0
LINE
  5
14C
  8
CAP
 10
-59.09799957275391
 20
937.6109466552734
 30
0.0095008593052626
 11
-58.96727752685547
 21
937.7015380859375
 31
0.0095008630305529
  0
LINE
  5
14D
  8
CAP
 10
-58.96727752685547
 20
937.7015380859375
 30
0.0095008630305529
 11
-58.82853698730469
 21
937.783576965332
 31
0.0095008667558432
  0
LINE
  5
14E
  8
CAP
 10
-58.82853698730469
 20
937.783576965332
 30
0.0095008667558432
 11
-58.68383026123047
 21
937.8560485839844
 31
0.0095008704811335
  0
LINE
  5
14F
  8
CAP
 10
-58.68383026123047
 20
937.8560485839844
 30
0.0095008704811335
 11
-58.53531646728516
 21
937.9178466796875
 31
0.0095008732751012
  0
LINE
  5
150
  8
CAP
 10
-58.53531646728516
 20
937.9178466796875
 30
0.0095008732751012
 11
-58.38463592529297
 21
937.9680480957031
 31
0.0095008751377463
  0
LINE
  5
151
  8
CAP
 10
-58.38463592529297
 20
937.9680480957031
 30
0.0095008751377463
 11
-58.22909545898438
 21
938.0074768066406
 31
0.0095008770003915
  0
LINE
  5
152
  8
CAP
 10
-58.22909545898438
 20
938.0074768066406
 30
0.0095008770003915
 11
-58.06987762451172
 21
938.0361099243164
 31
0.0095008779317141
  0
LINE
  5
153
  8
CAP
 10
-58.06987762451172
 20
938.0361099243164
 30
0.0095008779317141
 11
-57.90937805175781
 21
938.0535659790039
 31
0.0095008788630366
  0
LINE
  5
154
  8
CAP
 10
-57.90937805175781
 20
938.0535659790039
 30
0.0095008788630366
 11
-57.75
 21
938.0594635009766
 31
0.0095008788630366
  0
LINE
  5
155
  8
CAP
 10
-57.75
 20
938.0594635009766
 30
0.0095008788630366
 11
-57.59062194824219
 21
938.0535659790039
 31
0.0095008788630366
  0
LINE
  5
156
  8
CAP
 10
-57.59062194824219
 20
938.0535659790039
 30
0.0095008788630366
 11
-57.43012237548828
 21
938.0361099243164
 31
0.0095008779317141
  0
LINE
  5
157
  8
CAP
 10
-57.43012237548828
 20
938.0361099243164
 30
0.0095008779317141
 11
-57.27090454101562
 21
938.0074768066406
 31
0.0095008770003915
  0
LINE
  5
158
  8
CAP
 10
-57.27090454101562
 20
938.0074768066406
 30
0.0095008770003915
 11
-57.11536407470703
 21
937.9680480957031
 31
0.0095008751377463
  0
LINE
  5
159
  8
CAP
 10
-57.11536407470703
 20
937.9680480957031
 30
0.0095008751377463
 11
-56.96468353271484
 21
937.9178466796875
 31
0.0095008732751012
  0
LINE
  5
15A
  8
CAP
 10
-56.96468353271484
 20
937.9178466796875
 30
0.0095008732751012
 11
-56.81616973876953
 21
937.8560485839844
 31
0.0095008704811335
  0
LINE
  5
15B
  8
CAP
 10
-56.81616973876953
 20
937.8560485839844
 30
0.0095008704811335
 11
-56.67146301269531
 21
937.783576965332
 31
0.0095008667558432
  0
LINE
  5
15C
  8
CAP
 10
-56.67146301269531
 20
937.783576965332
 30
0.0095008667558432
 11
-56.53272247314453
 21
937.7015380859375
 31
0.0095008630305529
  0
LINE
  5
15D
  8
CAP
 10
-56.53272247314453
 20
937.7015380859375
 30
0.0095008630305529
 11
-56.40200042724609
 21
937.6109466552734
 31
0.0095008593052626
  0
LINE
  5
15E
  8
CAP
 10
-56.40200042724609
 20
937.6109466552734
 30
0.0095008593052626
 11
-56.27757263183594
 21
937.5103530883789
 31
0.0095008546486497
  0
LINE
  5
15F
  8
CAP
 10
-56.27757263183594
 20
937.5103530883789
 30
0.0095008546486497
 11
-56.15937042236328
 21
937.4000930786133
 31
0.0095008499920368
  0
LINE
  5
160
  8
CAP
 10
-56.15937042236328
 20
937.4000930786133
 30
0.0095008499920368
 11
-56.04911804199219
 21
937.2818984985352
 31
0.0095008444041014
  0
LINE
  5
161
  8
CAP
 10
-56.04911804199219
 20
937.2818984985352
 30
0.0095008444041014
 11
-55.94851684570312
 21
937.1574630737305
 31
0.0095008397474885
  0
LINE
  5
162
  8
CAP
 10
-55.94851684570312
 20
937.1574630737305
 30
0.0095008397474885
 11
-55.85792541503906
 21
937.026741027832
 31
0.0095008332282305
  0
LINE
  5
163
  8
CAP
 10
-55.85792541503906
 20
937.026741027832
 30
0.0095008332282305
 11
-55.77588653564453
 21
936.8880004882812
 31
0.009500827640295
  0
LINE
  5
164
  8
CAP
 10
-55.77588653564453
 20
936.8880004882812
 30
0.009500827640295
 11
-55.70341491699219
 21
936.743293762207
 31
0.009500821121037
  0
LINE
  5
165
  8
CAP
 10
-55.70341491699219
 20
936.743293762207
 30
0.009500821121037
 11
-55.64161682128906
 21
936.5947875976562
 31
0.009500814601779
  0
LINE
  5
166
  8
CAP
 10
-55.64161682128906
 20
936.5947875976562
 30
0.009500814601779
 11
-55.59145355224609
 21
936.4443588256836
 31
0.009500808082521
  0
LINE
  5
167
  8
CAP
 10
-55.59145355224609
 20
936.4443588256836
 30
0.009500808082521
 11
-55.55236053466797
 21
936.2909088134766
 31
0.0095008006319404
  0
LINE
  5
168
  8
CAP
 10
-130.5523629188538
 20
936.2909088134766
 30
0.0095008006319404
 11
-130.5240888595581
 21
936.1339416503906
 31
0.0095007941126823
  0
LINE
  5
169
  8
CAP
 10
-130.5240888595581
 20
936.1339416503906
 30
0.0095007941126823
 11
-130.5066347122192
 21
935.9734649658203
 31
0.0095007866621017
  0
LINE
  5
16A
  8
CAP
 10
-130.5066347122192
 20
935.9734649658203
 30
0.0095007866621017
 11
-130.5
 21
935.8094635009766
 31
0.0095007792115211
  0
LINE
  5
16B
  8
CAP
 10
-130.5
 20
935.8094635009766
 30
0.0095007792115211
 11
-130.5066347122192
 21
935.6454696655273
 31
0.0095007717609406
  0
LINE
  5
16C
  8
CAP
 10
-130.5066347122192
 20
935.6454696655273
 30
0.0095007717609406
 11
-130.5240888595581
 21
935.484992980957
 31
0.0095007652416825
  0
LINE
  5
16D
  8
CAP
 10
-130.5240888595581
 20
935.484992980957
 30
0.0095007652416825
 11
-130.5523629188538
 21
935.3280258178711
 31
0.0095007577911019
  0
LINE
  5
16E
  8
CAP
 10
-130.5523629188538
 20
935.3280258178711
 30
0.0095007577911019
 11
-130.5914559364319
 21
935.1745758056641
 31
0.0095007512718439
  0
LINE
  5
16F
  8
CAP
 10
-130.5914559364319
 20
935.1745758056641
 30
0.0095007512718439
 11
-130.6416201591492
 21
935.0241470336914
 31
0.0095007447525859
  0
LINE
  5
170
  8
CAP
 10
-130.6416201591492
 20
935.0241470336914
 30
0.0095007447525859
 11
-130.703417301178
 21
934.8756408691406
 31
0.0095007382333279
  0
LINE
  5
171
  8
CAP
 10
-130.703417301178
 20
934.8756408691406
 30
0.0095007382333279
 11
-130.7758874893188
 21
934.7309341430664
 31
0.0095007317140698
  0
LINE
  5
172
  8
CAP
 10
-130.7758874893188
 20
934.7309341430664
 30
0.0095007317140698
 11
-130.857928276062
 21
934.5921936035156
 31
0.0095007251948118
  0
LINE
  5
173
  8
CAP
 10
-130.857928276062
 20
934.5921936035156
 30
0.0095007251948118
 11
-130.9485201835632
 21
934.4614639282227
 31
0.0095007196068764
  0
LINE
  5
174
  8
CAP
 10
-130.9485201835632
 20
934.4614639282227
 30
0.0095007196068764
 11
-131.0491147041321
 21
934.3370361328125
 31
0.0095007140189409
  0
LINE
  5
175
  8
CAP
 10
-131.0491147041321
 20
934.3370361328125
 30
0.0095007140189409
 11
-131.1593699455261
 21
934.2188339233398
 31
0.0095007093623281
  0
LINE
  5
176
  8
CAP
 10
-131.1593699455261
 20
934.2188339233398
 30
0.0095007093623281
 11
-131.2775707244873
 21
934.1085815429688
 31
0.0095007037743926
  0
LINE
  5
177
  8
CAP
 10
-131.2775707244873
 20
934.1085815429688
 30
0.0095007037743926
 11
-131.4020009040833
 21
934.0079879760742
 31
0.0095006991177797
  0
LINE
  5
178
  8
CAP
 10
-131.4020009040833
 20
934.0079879760742
 30
0.0095006991177797
 11
-131.5327258110046
 21
933.9173965454102
 31
0.0095006953924894
  0
LINE
  5
179
  8
CAP
 10
-131.5327258110046
 20
933.9173965454102
 30
0.0095006953924894
 11
-131.6714653968811
 21
933.8353576660156
 31
0.0095006916671991
  0
LINE
  5
17A
  8
CAP
 10
-131.6714653968811
 20
933.8353576660156
 30
0.0095006916671991
 11
-131.8161706924438
 21
933.7628860473633
 31
0.0095006888732314
  0
LINE
  5
17B
  8
CAP
 10
-131.8161706924438
 20
933.7628860473633
 30
0.0095006888732314
 11
-131.9646797180176
 21
933.7010879516602
 31
0.0095006860792637
  0
LINE
  5
17C
  8
CAP
 10
-131.9646797180176
 20
933.7010879516602
 30
0.0095006860792637
 11
-132.1153631210327
 21
933.65087890625
 31
0.009500683285296
  0
LINE
  5
17D
  8
CAP
 10
-132.1153631210327
 20
933.65087890625
 30
0.009500683285296
 11
-132.2709064483643
 21
933.611457824707
 31
0.0095006823539734
  0
LINE
  5
17E
  8
CAP
 10
-132.2709064483643
 20
933.611457824707
 30
0.0095006823539734
 11
-132.4301247596741
 21
933.5828247070312
 31
0.0095006804913282
  0
LINE
  5
17F
  8
CAP
 10
-132.4301247596741
 20
933.5828247070312
 30
0.0095006804913282
 11
-132.590621471405
 21
933.5653686523438
 31
0.0095006795600057
  0
LINE
  5
180
  8
CAP
 10
-132.590621471405
 20
933.5653686523438
 30
0.0095006795600057
 11
-132.75
 21
933.5594635009766
 31
0.0095006795600057
  0
LINE
  5
181
  8
CAP
 10
-132.75
 20
933.5594635009766
 30
0.0095006795600057
 11
-132.909378528595
 21
933.5653686523438
 31
0.0095006795600057
  0
LINE
  5
182
  8
CAP
 10
-132.909378528595
 20
933.5653686523438
 30
0.0095006795600057
 11
-133.0698752403259
 21
933.5828247070312
 31
0.0095006804913282
  0
LINE
  5
183
  8
CAP
 10
-133.0698752403259
 20
933.5828247070312
 30
0.0095006804913282
 11
-133.2290935516357
 21
933.611457824707
 31
0.0095006823539734
  0
LINE
  5
184
  8
CAP
 10
-133.2290935516357
 20
933.611457824707
 30
0.0095006823539734
 11
-133.3846368789673
 21
933.65087890625
 31
0.009500683285296
  0
LINE
  5
185
  8
CAP
 10
-133.3846368789673
 20
933.65087890625
 30
0.009500683285296
 11
-133.5353202819824
 21
933.7010879516602
 31
0.0095006860792637
  0
LINE
  5
186
  8
CAP
 10
-133.5353202819824
 20
933.7010879516602
 30
0.0095006860792637
 11
-133.6838293075562
 21
933.7628860473633
 31
0.0095006888732314
  0
LINE
  5
187
  8
CAP
 10
-133.6838293075562
 20
933.7628860473633
 30
0.0095006888732314
 11
-133.8285346031189
 21
933.8353576660156
 31
0.0095006916671991
  0
LINE
  5
188
  8
CAP
 10
-133.8285346031189
 20
933.8353576660156
 30
0.0095006916671991
 11
-133.9672741889954
 21
933.9173965454102
 31
0.0095006953924894
  0
LINE
  5
189
  8
CAP
 10
-133.9672741889954
 20
933.9173965454102
 30
0.0095006953924894
 11
-134.0979990959167
 21
934.0079879760742
 31
0.0095006991177797
  0
LINE
  5
18A
  8
CAP
 10
-134.0979990959167
 20
934.0079879760742
 30
0.0095006991177797
 11
-134.2224292755127
 21
934.1085815429688
 31
0.0095007037743926
  0
LINE
  5
18B
  8
CAP
 10
-134.2224292755127
 20
934.1085815429688
 30
0.0095007037743926
 11
-134.3406295776367
 21
934.2188339233398
 31
0.0095007093623281
  0
LINE
  5
18C
  8
CAP
 10
-134.3406295776367
 20
934.2188339233398
 30
0.0095007093623281
 11
-134.4508857727051
 21
934.3370361328125
 31
0.0095007140189409
  0
LINE
  5
18D
  8
CAP
 10
-134.4508857727051
 20
934.3370361328125
 30
0.0095007140189409
 11
-134.5514793395996
 21
934.4614639282227
 31
0.0095007196068764
  0
LINE
  5
18E
  8
CAP
 10
-134.5514793395996
 20
934.4614639282227
 30
0.0095007196068764
 11
-134.642071723938
 21
934.5921936035156
 31
0.0095007251948118
  0
LINE
  5
18F
  8
CAP
 10
-134.642071723938
 20
934.5921936035156
 30
0.0095007251948118
 11
-134.7241125106812
 21
934.7309341430664
 31
0.0095007317140698
  0
LINE
  5
190
  8
CAP
 10
-134.7241125106812
 20
934.7309341430664
 30
0.0095007317140698
 11
-134.7965822219849
 21
934.8756408691406
 31
0.0095007382333279
  0
LINE
  5
191
  8
CAP
 10
-134.7965822219849
 20
934.8756408691406
 30
0.0095007382333279
 11
-134.858380317688
 21
935.0241470336914
 31
0.0095007447525859
  0
LINE
  5
192
  8
CAP
 10
-134.858380317688
 20
935.0241470336914
 30
0.0095007447525859
 11
-134.908543586731
 21
935.1745758056641
 31
0.0095007512718439
  0
LINE
  5
193
  8
CAP
 10
-134.908543586731
 20
935.1745758056641
 30
0.0095007512718439
 11
-134.9476375579834
 21
935.3280258178711
 31
0.0095007577911019
  0
LINE
  5
194
  8
CAP
 10
-134.9476375579834
 20
935.3280258178711
 30
0.0095007577911019
 11
-134.9759111404419
 21
935.484992980957
 31
0.0095007652416825
  0
LINE
  5
195
  8
CAP
 10
-134.9759111404419
 20
935.484992980957
 30
0.0095007652416825
 11
-134.9933652877808
 21
935.6454696655273
 31
0.0095007717609406
  0
LINE
  5
196
  8
CAP
 10
-134.9933652877808
 20
935.6454696655273
 30
0.0095007717609406
 11
-135.0
 21
935.8094635009766
 31
0.0095007792115211
  0
LINE
  5
197
  8
CAP
 10
-135.0
 20
935.8094635009766
 30
0.0095007792115211
 11
-134.9933652877808
 21
935.9734649658203
 31
0.0095007866621017
  0
LINE
  5
198
  8
CAP
 10
-134.9933652877808
 20
935.9734649658203
 30
0.0095007866621017
 11
-134.9759111404419
 21
936.1339416503906
 31
0.0095007941126823
  0
LINE
  5
199
  8
CAP
 10
-134.9759111404419
 20
936.1339416503906
 30
0.0095007941126823
 11
-134.9476375579834
 21
936.2909088134766
 31
0.0095008006319404
  0
LINE
  5
19A
  8
CAP
 10
-134.9476375579834
 20
936.2909088134766
 30
0.0095008006319404
 11
-134.908543586731
 21
936.4443588256836
 31
0.009500808082521
  0
LINE
  5
19B
  8
CAP
 10
-134.908543586731
 20
936.4443588256836
 30
0.009500808082521
 11
-134.858380317688
 21
936.5947875976562
 31
0.009500814601779
  0
LINE
  5
19C
  8
CAP
 10
-134.858380317688
 20
936.5947875976562
 30
0.009500814601779
 11
-134.7965822219849
 21
936.743293762207
 31
0.009500821121037
  0
LINE
  5
19D
  8
CAP
 10
-134.7965822219849
 20
936.743293762207
 30
0.009500821121037
 11
-134.7241125106812
 21
936.8880004882812
 31
0.009500827640295
  0
LINE
  5
19E
  8
CAP
 10
-134.7241125106812
 20
936.8880004882812
 30
0.009500827640295
 11
-134.642071723938
 21
937.026741027832
 31
0.0095008332282305
  0
LINE
  5
19F
  8
CAP
 10
-134.642071723938
 20
937.026741027832
 30
0.0095008332282305
 11
-134.5514793395996
 21
937.1574630737305
 31
0.0095008397474885
  0
LINE
  5
1A0
  8
CAP
 10
-134.5514793395996
 20
937.1574630737305
 30
0.0095008397474885
 11
-134.4508857727051
 21
937.2818984985352
 31
0.0095008444041014
  0
LINE
  5
1A1
  8
CAP
 10
-134.4508857727051
 20
937.2818984985352
 30
0.0095008444041014
 11
-134.3406295776367
 21
937.4000930786133
 31
0.0095008499920368
  0
LINE
  5
1A2
  8
CAP
 10
-134.3406295776367
 20
937.4000930786133
 30
0.0095008499920368
 11
-134.2224292755127
 21
937.5103530883789
 31
0.0095008546486497
  0
LINE
  5
1A3
  8
CAP
 10
-134.2224292755127
 20
937.5103530883789
 30
0.0095008546486497
 11
-134.0979990959167
 21
937.6109466552734
 31
0.0095008593052626
  0
LINE
  5
1A4
  8
CAP
 10
-134.0979990959167
 20
937.6109466552734
 30
0.0095008593052626
 11
-133.9672741889954
 21
937.7015380859375
 31
0.0095008630305529
  0
LINE
  5
1A5
  8
CAP
 10
-133.9672741889954
 20
937.7015380859375
 30
0.0095008630305529
 11
-133.8285346031189
 21
937.783576965332
 31
0.0095008667558432
  0
LINE
  5
1A6
  8
CAP
 10
-133.8285346031189
 20
937.783576965332
 30
0.0095008667558432
 11
-133.6838293075562
 21
937.8560485839844
 31
0.0095008704811335
  0
LINE
  5
1A7
  8
CAP
 10
-133.6838293075562
 20
937.8560485839844
 30
0.0095008704811335
 11
-133.5353202819824
 21
937.9178466796875
 31
0.0095008732751012
  0
LINE
  5
1A8
  8
CAP
 10
-133.5353202819824
 20
937.9178466796875
 30
0.0095008732751012
 11
-133.3846368789673
 21
937.9680480957031
 31
0.0095008751377463
  0
LINE
  5
1A9
  8
CAP
 10
-133.3846368789673
 20
937.9680480957031
 30
0.0095008751377463
 11
-133.2290935516357
 21
938.0074768066406
 31
0.0095008770003915
  0
LINE
  5
1AA
  8
CAP
 10
-133.2290935516357
 20
938.0074768066406
 30
0.0095008770003915
 11
-133.0698752403259
 21
938.0361099243164
 31
0.0095008779317141
  0
LINE
  5
1AB
  8
CAP
 10
-133.0698752403259
 20
938.0361099243164
 30
0.0095008779317141
 11
-132.909378528595
 21
938.0535659790039
 31
0.0095008788630366
  0
LINE
  5
1AC
  8
CAP
 10
-132.909378528595
 20
938.0535659790039
 30
0.0095008788630366
 11
-132.75
 21
938.0594635009766
 31
0.0095008788630366
  0
LINE
  5
1AD
  8
CAP
 10
-132.75
 20
938.0594635009766
 30
0.0095008788630366
 11
-132.590621471405
 21
938.0535659790039
 31
0.0095008788630366
  0
LINE
  5
1AE
  8
CAP
 10
-132.590621471405
 20
938.0535659790039
 30
0.0095008788630366
 11
-132.4301247596741
 21
938.0361099243164
 31
0.0095008779317141
  0
LINE
  5
1AF
  8
CAP
 10
-132.4301247596741
 20
938.0361099243164
 30
0.0095008779317141
 11
-132.2709064483643
 21
938.0074768066406
 31
0.0095008770003915
  0
LINE
  5
1B0
  8
CAP
 10
-132.2709064483643
 20
938.0074768066406
 30
0.0095008770003915
 11
-132.1153631210327
 21
937.9680480957031
 31
0.0095008751377463
  0
LINE
  5
1B1
  8
CAP
 10
-132.1153631210327
 20
937.9680480957031
 30
0.0095008751377463
 11
-131.9646797180176
 21
937.9178466796875
 31
0.0095008732751012
  0
LINE
  5
1B2
  8
CAP
 10
-131.9646797180176
 20
937.9178466796875
 30
0.0095008732751012
 11
-131.8161706924438
 21
937.8560485839844
 31
0.0095008704811335
  0
LINE
  5
1B3
  8
CAP
 10
-131.8161706924438
 20
937.8560485839844
 30
0.0095008704811335
 11
-131.6714653968811
 21
937.783576965332
 31
0.0095008667558432
  0
LINE
  5
1B4
  8
CAP
 10
-131.6714653968811
 20
937.783576965332
 30
0.0095008667558432
 11
-131.5327258110046
 21
937.7015380859375
 31
0.0095008630305529
  0
LINE
  5
1B5
  8
CAP
 10
-131.5327258110046
 20
937.7015380859375
 30
0.0095008630305529
 11
-131.4020009040833
 21
937.6109466552734
 31
0.0095008593052626
  0
LINE
  5
1B6
  8
CAP
 10
-131.4020009040833
 20
937.6109466552734
 30
0.0095008593052626
 11
-131.2775707244873
 21
937.5103530883789
 31
0.0095008546486497
  0
LINE
  5
1B7
  8
CAP
 10
-131.2775707244873
 20
937.5103530883789
 30
0.0095008546486497
 11
-131.1593699455261
 21
937.4000930786133
 31
0.0095008499920368
  0
LINE
  5
1B8
  8
CAP
 10
-131.1593699455261
 20
937.4000930786133
 30
0.0095008499920368
 11
-131.0491147041321
 21
937.2818984985352
 31
0.0095008444041014
  0
LINE
  5
1B9
  8
CAP
 10
-131.0491147041321
 20
937.2818984985352
 30
0.0095008444041014
 11
-130.9485201835632
 21
937.1574630737305
 31
0.0095008397474885
  0
LINE
  5
1BA
  8
CAP
 10
-130.9485201835632
 20
937.1574630737305
 30
0.0095008397474885
 11
-130.857928276062
 21
937.026741027832
 31
0.0095008332282305
  0
LINE
  5
1BB
  8
CAP
 10
-130.857928276062
 20
937.026741027832
 30
0.0095008332282305
 11
-130.7758874893188
 21
936.8880004882812
 31
0.009500827640295
  0
LINE
  5
1BC
  8
CAP
 10
-130.7758874893188
 20
936.8880004882812
 30
0.009500827640295
 11
-130.703417301178
 21
936.743293762207
 31
0.009500821121037
  0
LINE
  5
1BD
  8
CAP
 10
-130.703417301178
 20
936.743293762207
 30
0.009500821121037
 11
-130.6416201591492
 21
936.5947875976562
 31
0.009500814601779
  0
LINE
  5
1BE
  8
CAP
 10
-130.6416201591492
 20
936.5947875976562
 30
0.009500814601779
 11
-130.5914559364319
 21
936.4443588256836
 31
0.009500808082521
  0
LINE
  5
1BF
  8
CAP
 10
-130.5914559364319
 20
936.4443588256836
 30
0.009500808082521
 11
-130.5523629188538
 21
936.2909088134766
 31
0.0095008006319404
  0
LINE
  5
1C0
  8
CAP
 10
-70.15216064453125
 20
944.2577743530273
 30
0.0095011545345187
 11
-70.39606475830078
 21
944.2562408447266
 31
0.0095011545345187
  0
LINE
  5
1C1
  8
CAP
 10
-70.39606475830078
 20
944.2562408447266
 30
0.0095011545345187
 11
-70.63859558105469
 21
944.2398834228516
 31
0.0095011536031961
  0
LINE
  5
1C2
  8
CAP
 10
-70.63859558105469
 20
944.2398834228516
 30
0.0095011536031961
 11
-70.87715148925781
 21
944.2086944580078
 31
0.009501151740551
  0
LINE
  5
1C3
  8
CAP
 10
-70.87715148925781
 20
944.2086944580078
 30
0.009501151740551
 11
-71.11442565917969
 21
944.1621170043945
 31
0.0095011498779058
  0
LINE
  5
1C4
  8
CAP
 10
-71.11442565917969
 20
944.1621170043945
 30
0.0095011498779058
 11
-71.35018920898438
 21
944.1005172729492
 31
0.0095011470839381
  0
LINE
  5
1C5
  8
CAP
 10
-71.35018920898438
 20
944.1005172729492
 30
0.0095011470839381
 11
-71.58175659179688
 21
944.0246810913086
 31
0.0095011442899704
  0
LINE
  5
1C6
  8
CAP
 10
-71.58175659179688
 20
944.0246810913086
 30
0.0095011442899704
 11
-71.80647277832031
 21
943.9353942871094
 31
0.0095011396333575
  0
LINE
  5
1C7
  8
CAP
 10
-71.80647277832031
 20
943.9353942871094
 30
0.0095011396333575
 11
-72.02392578125
 21
943.8324813842773
 31
0.0095011359080672
  0
LINE
  5
1C8
  8
CAP
 10
-72.02392578125
 20
943.8324813842773
 30
0.0095011359080672
 11
-72.2366943359375
 21
943.7149505615234
 31
0.0095011303201318
  0
LINE
  5
1C9
  8
CAP
 10
-72.2366943359375
 20
943.7149505615234
 30
0.0095011303201318
 11
-72.44258880615234
 21
943.5842056274414
 31
0.0095011247321963
  0
LINE
  5
1CA
  8
CAP
 10
-72.44258880615234
 20
943.5842056274414
 30
0.0095011247321963
 11
-72.63926696777344
 21
943.4417266845703
 31
0.0095011182129383
  0
LINE
  5
1CB
  8
CAP
 10
-72.63926696777344
 20
943.4417266845703
 30
0.0095011182129383
 11
-72.82471466064453
 21
943.2887191772461
 31
0.0095011116936803
  0
LINE
  5
1CC
  8
CAP
 10
-72.82471466064453
 20
943.2887191772461
 30
0.0095011116936803
 11
-73.00127410888672
 21
943.1230850219727
 31
0.0095011042430997
  0
LINE
  5
1CD
  8
CAP
 10
-73.00127410888672
 20
943.1230850219727
 30
0.0095011042430997
 11
-73.16845321655273
 21
942.945686340332
 31
0.0095010958611965
  0
LINE
  5
1CE
  8
CAP
 10
-73.16845321655273
 20
942.945686340332
 30
0.0095010958611965
 11
-73.32438659667969
 21
942.7585983276367
 31
0.0095010874792933
  0
LINE
  5
1CF
  8
CAP
 10
-73.32438659667969
 20
942.7585983276367
 30
0.0095010874792933
 11
-73.46721267700195
 21
942.5638961791992
 31
0.0095010790973902
  0
LINE
  5
1D0
  8
CAP
 10
-73.46721267700195
 20
942.5638961791992
 30
0.0095010790973902
 11
-73.59695434570312
 21
942.360954284668
 31
0.0095010697841644
  0
LINE
  5
1D1
  8
CAP
 10
-73.59695434570312
 20
942.360954284668
 30
0.0095010697841644
 11
-73.71498107910156
 21
942.1480865478516
 31
0.0095010604709387
  0
LINE
  5
1D2
  8
CAP
 10
-73.71498107910156
 20
942.1480865478516
 30
0.0095010604709387
 11
-73.8200912475586
 21
941.9279327392578
 31
0.0095010511577129
  0
LINE
  5
1D3
  8
CAP
 10
-73.8200912475586
 20
941.9279327392578
 30
0.0095010511577129
 11
-73.91104888916016
 21
941.703125
 31
0.0095010409131646
  0
LINE
  5
1D4
  8
CAP
 10
-73.91104888916016
 20
941.703125
 30
0.0095010409131646
 11
-73.98682022094727
 21
941.4759140014648
 31
0.0095010306686163
  0
LINE
  5
1D5
  8
CAP
 10
-73.98682022094727
 20
941.4759140014648
 30
0.0095010306686163
 11
-74.04810333251953
 21
941.2447814941406
 31
0.009501020424068
  0
LINE
  5
1D6
  8
CAP
 10
-74.04810333251953
 20
941.2447814941406
 30
0.009501020424068
 11
-74.09514236450195
 21
941.0092086791992
 31
0.0095010101795197
  0
LINE
  5
1D7
  8
CAP
 10
-74.09514236450195
 20
941.0092086791992
 30
0.0095010101795197
 11
-74.1279411315918
 21
940.7691879272461
 31
0.0095009999349713
  0
LINE
  5
1D8
  8
CAP
 10
-74.1279411315918
 20
940.7691879272461
 30
0.0095009999349713
 11
-74.1464958190918
 21
940.5247192382812
 31
0.0095009887591004
  0
LINE
  5
1D9
  8
CAP
 10
-74.1464958190918
 20
940.5247192382812
 30
0.0095009887591004
 11
-74.15658187866211
 21
940.3884429931641
 31
0.0095009822398424
  0
LINE
  5
1DA
  8
CAP
 10
-74.15658187866211
 20
940.3884429931641
 30
0.0095009822398424
 11
-74.17740249633789
 21
940.2495422363281
 31
0.009500976651907
  0
LINE
  5
1DB
  8
CAP
 10
-74.17740249633789
 20
940.2495422363281
 30
0.009500976651907
 11
-74.20817565917969
 21
940.1084976196289
 31
0.0095009701326489
  0
LINE
  5
1DC
  8
CAP
 10
-74.20817565917969
 20
940.1084976196289
 30
0.0095009701326489
 11
-74.2522087097168
 21
939.963134765625
 31
0.0095009636133909
  0
LINE
  5
1DD
  8
CAP
 10
-74.2522087097168
 20
939.963134765625
 30
0.0095009636133909
 11
-74.3101692199707
 21
939.8122100830078
 31
0.0095009570941329
  0
LINE
  5
1DE
  8
CAP
 10
-74.3101692199707
 20
939.8122100830078
 30
0.0095009570941329
 11
-74.38568878173828
 21
939.6582565307617
 31
0.0095009505748749
  0
LINE
  5
1DF
  8
CAP
 10
-74.38568878173828
 20
939.6582565307617
 30
0.0095009505748749
 11
-74.47928237915039
 21
939.5013580322266
 31
0.0095009431242943
  0
LINE
  5
1E0
  8
CAP
 10
-74.47928237915039
 20
939.5013580322266
 30
0.0095009431242943
 11
-74.59481430053711
 21
939.3458633422852
 31
0.0095009366050363
  0
LINE
  5
1E1
  8
CAP
 10
-74.59481430053711
 20
939.3458633422852
 30
0.0095009366050363
 11
-74.73269653320312
 21
939.1923217773438
 31
0.0095009291544557
  0
LINE
  5
1E2
  8
CAP
 10
-74.73269653320312
 20
939.1923217773438
 30
0.0095009291544557
 11
-74.8969955444336
 21
939.0467147827148
 31
0.0095009235665202
  0
LINE
  5
1E3
  8
CAP
 10
-74.8969955444336
 20
939.0467147827148
 30
0.0095009235665202
 11
-75.08808898925781
 21
938.9106521606445
 31
0.0095009170472622
  0
LINE
  5
1E4
  8
CAP
 10
-75.08808898925781
 20
938.9106521606445
 30
0.0095009170472622
 11
-75.30984878540039
 21
938.7923965454102
 31
0.0095009114593267
  0
LINE
  5
1E5
  8
CAP
 10
-75.30984878540039
 20
938.7923965454102
 30
0.0095009114593267
 11
-75.56085586547852
 21
938.6961212158203
 31
0.0095009077340364
  0
LINE
  5
1E6
  8
CAP
 10
-75.56085586547852
 20
938.6961212158203
 30
0.0095009077340364
 11
-75.83898544311523
 21
938.6362762451172
 31
0.0095009049400687
  0
LINE
  5
1E7
  8
CAP
 10
-75.83898544311523
 20
938.6362762451172
 30
0.0095009049400687
 11
-75.9883918762207
 21
938.6187515258789
 31
0.0095009040087461
  0
LINE
  5
1E8
  8
CAP
 10
-75.9883918762207
 20
938.6187515258789
 30
0.0095009040087461
 11
-76.14470291137695
 21
938.6094665527344
 31
0.0095009040087461
  0
LINE
  5
1E9
  8
CAP
 10
-76.14470291137695
 20
938.6094665527344
 30
0.0095009040087461
 11
-87.0999984741211
 21
938.6094665527344
 31
0.0095009040087461
  0
LINE
  5
1EA
  8
CAP
 10
-87.0999984741211
 20
938.6094665527344
 30
0.0095009040087461
 11
-87.0999984741211
 21
937.6094665527344
 31
0.0095008593052626
  0
LINE
  5
1EB
  8
CAP
 10
-87.0999984741211
 20
937.6094665527344
 30
0.0095008593052626
 11
-88.5999984741211
 21
937.6094665527344
 31
0.0095008593052626
  0
LINE
  5
1EC
  8
CAP
 10
-88.5999984741211
 20
937.6094665527344
 30
0.0095008593052626
 11
-88.5999984741211
 21
936.6094665527344
 31
0.009500814601779
  0
LINE
  5
1ED
  8
CAP
 10
-88.5999984741211
 20
936.6094665527344
 30
0.009500814601779
 11
-88.6102409362793
 21
936.5101547241211
 31
0.0095008108764887
  0
LINE
  5
1EE
  8
CAP
 10
-88.6102409362793
 20
936.5101547241211
 30
0.0095008108764887
 11
-88.6380615234375
 21
936.4181213378906
 31
0.0095008062198758
  0
LINE
  5
1EF
  8
CAP
 10
-88.6380615234375
 20
936.4181213378906
 30
0.0095008062198758
 11
-88.68449401855469
 21
936.3318328857422
 31
0.0095008024945855
  0
LINE
  5
1F0
  8
CAP
 10
-88.68449401855469
 20
936.3318328857422
 30
0.0095008024945855
 11
-88.74644470214844
 21
936.2559127807617
 31
0.0095007997006178
  0
LINE
  5
1F1
  8
CAP
 10
-88.74644470214844
 20
936.2559127807617
 30
0.0095007997006178
 11
-88.82236862182617
 21
936.193962097168
 31
0.0095007969066501
  0
LINE
  5
1F2
  8
CAP
 10
-88.82236862182617
 20
936.193962097168
 30
0.0095007969066501
 11
-88.90865707397461
 21
936.1475296020508
 31
0.0095007941126823
  0
LINE
  5
1F3
  8
CAP
 10
-88.90865707397461
 20
936.1475296020508
 30
0.0095007941126823
 11
-89.00068664550781
 21
936.1197052001953
 31
0.0095007931813598
  0
LINE
  5
1F4
  8
CAP
 10
-89.00068664550781
 20
936.1197052001953
 30
0.0095007931813598
 11
-89.0999984741211
 21
936.1094665527344
 31
0.0095007931813598
  0
LINE
  5
1F5
  8
CAP
 10
-89.0999984741211
 20
936.1094665527344
 30
0.0095007931813598
 11
-101.5999984741211
 21
936.1094665527344
 31
0.0095007931813598
  0
LINE
  5
1F6
  8
CAP
 10
-101.5999984741211
 20
936.1094665527344
 30
0.0095007931813598
 11
-101.6993103027344
 21
936.1197052001953
 31
0.0095007931813598
  0
LINE
  5
1F7
  8
CAP
 10
-101.6993103027344
 20
936.1197052001953
 30
0.0095007931813598
 11
-101.7913436889648
 21
936.1475296020508
 31
0.0095007941126823
  0
LINE
  5
1F8
  8
CAP
 10
-101.7913436889648
 20
936.1475296020508
 30
0.0095007941126823
 11
-101.8776321411133
 21
936.193962097168
 31
0.0095007969066501
  0
LINE
  5
1F9
  8
CAP
 10
-101.8776321411133
 20
936.193962097168
 30
0.0095007969066501
 11
-101.9535522460938
 21
936.2559127807617
 31
0.0095007997006178
  0
LINE
  5
1FA
  8
CAP
 10
-101.9535522460938
 20
936.2559127807617
 30
0.0095007997006178
 11
-102.0155067443848
 21
936.3318328857422
 31
0.0095008024945855
  0
LINE
  5
1FB
  8
CAP
 10
-102.0155067443848
 20
936.3318328857422
 30
0.0095008024945855
 11
-102.061939239502
 21
936.4181213378906
 31
0.0095008062198758
  0
LINE
  5
1FC
  8
CAP
 10
-102.061939239502
 20
936.4181213378906
 30
0.0095008062198758
 11
-102.0897598266602
 21
936.5101547241211
 31
0.0095008108764887
  0
LINE
  5
1FD
  8
CAP
 10
-102.0897598266602
 20
936.5101547241211
 30
0.0095008108764887
 11
-102.0999984741211
 21
936.6094665527344
 31
0.009500814601779
  0
LINE
  5
1FE
  8
CAP
 10
-102.0999984741211
 20
936.6094665527344
 30
0.009500814601779
 11
-102.0999984741211
 21
937.6094665527344
 31
0.0095008593052626
  0
LINE
  5
1FF
  8
CAP
 10
-102.0999984741211
 20
937.6094665527344
 30
0.0095008593052626
 11
-103.5999984741211
 21
937.6094665527344
 31
0.0095008593052626
  0
LINE
  5
200
  8
CAP
 10
-103.5999984741211
 20
937.6094665527344
 30
0.0095008593052626
 11
-103.5999984741211
 21
938.6094665527344
 31
0.0095009040087461
  0
LINE
  5
201
  8
CAP
 10
-103.5999984741211
 20
938.6094665527344
 30
0.0095009040087461
 11
-114.3552989959717
 21
938.6094665527344
 31
0.0095009040087461
  0
LINE
  5
202
  8
CAP
 10
-114.3552989959717
 20
938.6094665527344
 30
0.0095009040087461
 11
-114.5116081237793
 21
938.6187515258789
 31
0.0095009040087461
  0
LINE
  5
203
  8
CAP
 10
-114.5116081237793
 20
938.6187515258789
 30
0.0095009040087461
 11
-114.6610145568848
 21
938.6362762451172
 31
0.0095009049400687
  0
LINE
  5
204
  8
CAP
 10
-114.6610145568848
 20
938.6362762451172
 30
0.0095009049400687
 11
-114.9391441345215
 21
938.6961212158203
 31
0.0095009077340364
  0
LINE
  5
205
  8
CAP
 10
-114.9391441345215
 20
938.6961212158203
 30
0.0095009077340364
 11
-115.1901512145996
 21
938.7923965454102
 31
0.0095009114593267
  0
LINE
  5
206
  8
CAP
 10
-115.1901512145996
 20
938.7923965454102
 30
0.0095009114593267
 11
-115.4119129180908
 21
938.9106521606445
 31
0.0095009170472622
  0
LINE
  5
207
  8
CAP
 10
-115.4119129180908
 20
938.9106521606445
 30
0.0095009170472622
 11
-115.6030044555664
 21
939.0467147827148
 31
0.0095009235665202
  0
LINE
  5
208
  8
CAP
 10
-115.6030044555664
 20
939.0467147827148
 30
0.0095009235665202
 11
-115.7673034667969
 21
939.1923217773438
 31
0.0095009291544557
  0
LINE
  5
209
  8
CAP
 10
-115.7673034667969
 20
939.1923217773438
 30
0.0095009291544557
 11
-115.9051856994629
 21
939.3458633422852
 31
0.0095009366050363
  0
LINE
  5
20A
  8
CAP
 10
-115.9051856994629
 20
939.3458633422852
 30
0.0095009366050363
 11
-116.0207176208496
 21
939.5013580322266
 31
0.0095009431242943
  0
LINE
  5
20B
  8
CAP
 10
-116.0207176208496
 20
939.5013580322266
 30
0.0095009431242943
 11
-116.1143112182617
 21
939.6582565307617
 31
0.0095009505748749
  0
LINE
  5
20C
  8
CAP
 10
-116.1143112182617
 20
939.6582565307617
 30
0.0095009505748749
 11
-116.1898307800293
 21
939.8122100830078
 31
0.0095009570941329
  0
LINE
  5
20D
  8
CAP
 10
-116.1898307800293
 20
939.8122100830078
 30
0.0095009570941329
 11
-116.2477912902832
 21
939.963134765625
 31
0.0095009636133909
  0
LINE
  5
20E
  8
CAP
 10
-116.2477912902832
 20
939.963134765625
 30
0.0095009636133909
 11
-116.2918243408203
 21
940.1084976196289
 31
0.0095009701326489
  0
LINE
  5
20F
  8
CAP
 10
-116.2918243408203
 20
940.1084976196289
 30
0.0095009701326489
 11
-116.3225975036621
 21
940.2495422363281
 31
0.009500976651907
  0
LINE
  5
210
  8
CAP
 10
-116.3225975036621
 20
940.2495422363281
 30
0.009500976651907
 11
-116.3434181213379
 21
940.3884429931641
 31
0.0095009822398424
  0
LINE
  5
211
  8
CAP
 10
-116.3434181213379
 20
940.3884429931641
 30
0.0095009822398424
 11
-116.3535022735596
 21
940.5247192382812
 31
0.0095009887591004
  0
LINE
  5
212
  8
CAP
 10
-116.3535022735596
 20
940.5247192382812
 30
0.0095009887591004
 11
-116.3720588684082
 21
940.7691879272461
 31
0.0095009999349713
  0
LINE
  5
213
  8
CAP
 10
-116.3720588684082
 20
940.7691879272461
 30
0.0095009999349713
 11
-116.404857635498
 21
941.0092086791992
 31
0.0095010101795197
  0
LINE
  5
214
  8
CAP
 10
-116.404857635498
 20
941.0092086791992
 30
0.0095010101795197
 11
-116.4518966674805
 21
941.2447814941406
 31
0.009501020424068
  0
LINE
  5
215
  8
CAP
 10
-116.4518966674805
 20
941.2447814941406
 30
0.009501020424068
 11
-116.5131797790527
 21
941.4759140014648
 31
0.0095010306686163
  0
LINE
  5
216
  8
CAP
 10
-116.5131797790527
 20
941.4759140014648
 30
0.0095010306686163
 11
-116.5889530181885
 21
941.703125
 31
0.0095010409131646
  0
LINE
  5
217
  8
CAP
 10
-116.5889530181885
 20
941.703125
 30
0.0095010409131646
 11
-116.6799087524414
 21
941.9279327392578
 31
0.0095010511577129
  0
LINE
  5
218
  8
CAP
 10
-116.6799087524414
 20
941.9279327392578
 30
0.0095010511577129
 11
-116.7850189208984
 21
942.1480865478516
 31
0.0095010604709387
  0
LINE
  5
219
  8
CAP
 10
-116.7850189208984
 20
942.1480865478516
 30
0.0095010604709387
 11
-116.9030456542969
 21
942.360954284668
 31
0.0095010697841644
  0
LINE
  5
21A
  8
CAP
 10
-116.9030456542969
 20
942.360954284668
 30
0.0095010697841644
 11
-117.032787322998
 21
942.5638961791992
 31
0.0095010790973902
  0
LINE
  5
21B
  8
CAP
 10
-117.032787322998
 20
942.5638961791992
 30
0.0095010790973902
 11
-117.1756134033203
 21
942.7585983276367
 31
0.0095010874792933
  0
LINE
  5
21C
  8
CAP
 10
-117.1756134033203
 20
942.7585983276367
 30
0.0095010874792933
 11
-117.3315467834473
 21
942.945686340332
 31
0.0095010958611965
  0
LINE
  5
21D
  8
CAP
 10
-117.3315467834473
 20
942.945686340332
 30
0.0095010958611965
 11
-117.4987258911133
 21
943.1230850219727
 31
0.0095011042430997
  0
LINE
  5
21E
  8
CAP
 10
-117.4987258911133
 20
943.1230850219727
 30
0.0095011042430997
 11
-117.6752872467041
 21
943.2887191772461
 31
0.0095011116936803
  0
LINE
  5
21F
  8
CAP
 10
-117.6752872467041
 20
943.2887191772461
 30
0.0095011116936803
 11
-117.8607330322266
 21
943.4417266845703
 31
0.0095011182129383
  0
LINE
  5
220
  8
CAP
 10
-117.8607330322266
 20
943.4417266845703
 30
0.0095011182129383
 11
-118.0574111938477
 21
943.5842056274414
 31
0.0095011247321963
  0
LINE
  5
221
  8
CAP
 10
-118.0574111938477
 20
943.5842056274414
 30
0.0095011247321963
 11
-118.2633094787598
 21
943.7149505615234
 31
0.0095011303201318
  0
LINE
  5
222
  8
CAP
 10
-118.2633094787598
 20
943.7149505615234
 30
0.0095011303201318
 11
-118.47607421875
 21
943.8324813842773
 31
0.0095011359080672
  0
LINE
  5
223
  8
CAP
 10
-118.47607421875
 20
943.8324813842773
 30
0.0095011359080672
 11
-118.693531036377
 21
943.9353942871094
 31
0.0095011396333575
  0
LINE
  5
224
  8
CAP
 10
-118.693531036377
 20
943.9353942871094
 30
0.0095011396333575
 11
-118.9182434082031
 21
944.0246810913086
 31
0.0095011442899704
  0
LINE
  5
225
  8
CAP
 10
-118.9182434082031
 20
944.0246810913086
 30
0.0095011442899704
 11
-119.1498165130615
 21
944.1005172729492
 31
0.0095011470839381
  0
LINE
  5
226
  8
CAP
 10
-119.1498165130615
 20
944.1005172729492
 30
0.0095011470839381
 11
-119.3855781555176
 21
944.1621170043945
 31
0.0095011498779058
  0
LINE
  5
227
  8
CAP
 10
-119.3855781555176
 20
944.1621170043945
 30
0.0095011498779058
 11
-119.6228542327881
 21
944.2086944580078
 31
0.009501151740551
  0
LINE
  5
228
  8
CAP
 10
-119.6228542327881
 20
944.2086944580078
 30
0.009501151740551
 11
-119.8614101409912
 21
944.2398834228516
 31
0.0095011536031961
  0
LINE
  5
229
  8
CAP
 10
-119.8614101409912
 20
944.2398834228516
 30
0.0095011536031961
 11
-120.1039352416992
 21
944.2562408447266
 31
0.0095011545345187
  0
LINE
  5
22A
  8
CAP
 10
-120.1039352416992
 20
944.2562408447266
 30
0.0095011545345187
 11
-120.3478412628174
 21
944.2577743530273
 31
0.0095011545345187
  0
LINE
  5
22B
  8
CAP
 10
-120.3478412628174
 20
944.2577743530273
 30
0.0095011545345187
 11
-120.5903453826904
 21
944.2444534301758
 31
0.0095011536031961
  0
LINE
  5
22C
  8
CAP
 10
-120.5903453826904
 20
944.2444534301758
 30
0.0095011536031961
 11
-120.8291110992432
 21
944.2161865234375
 31
0.0095011526718736
  0
LINE
  5
22D
  8
CAP
 10
-120.8291110992432
 20
944.2161865234375
 30
0.0095011526718736
 11
-121.0672454833984
 21
944.172492980957
 31
0.0095011508092284
  0
LINE
  5
22E
  8
CAP
 10
-121.0672454833984
 20
944.172492980957
 30
0.0095011508092284
 11
-121.3038597106934
 21
944.1138305664062
 31
0.0095011480152607
  0
LINE
  5
22F
  8
CAP
 10
-121.3038597106934
 20
944.1138305664062
 30
0.0095011480152607
 11
-121.5362634658813
 21
944.0409317016602
 31
0.0095011442899704
  0
LINE
  5
230
  8
CAP
 10
-121.5362634658813
 20
944.0409317016602
 30
0.0095011442899704
 11
-121.7617692947388
 21
943.9545364379883
 31
0.0095011405646801
  0
LINE
  5
231
  8
CAP
 10
-121.7617692947388
 20
943.9545364379883
 30
0.0095011405646801
 11
-121.9806938171387
 21
943.8541793823242
 31
0.0095011368393898
  0
LINE
  5
232
  8
CAP
 10
-121.9806938171387
 20
943.8541793823242
 30
0.0095011368393898
 11
-122.1950836181641
 21
943.7392196655273
 31
0.0095011312514544
  0
LINE
  5
233
  8
CAP
 10
-122.1950836181641
 20
943.7392196655273
 30
0.0095011312514544
 11
-122.4025993347168
 21
943.6110687255859
 31
0.0095011256635189
  0
LINE
  5
234
  8
CAP
 10
-122.4025993347168
 20
943.6110687255859
 30
0.0095011256635189
 11
-122.6008558273315
 21
943.4711685180664
 31
0.0095011191442609
  0
LINE
  5
235
  8
CAP
 10
-122.6008558273315
 20
943.4711685180664
 30
0.0095011191442609
 11
-122.7878513336182
 21
943.3207321166992
 31
0.0095011126250029
  0
LINE
  5
236
  8
CAP
 10
-122.7878513336182
 20
943.3207321166992
 30
0.0095011126250029
 11
-122.9649353027344
 21
943.158935546875
 31
0.0095011051744223
  0
LINE
  5
237
  8
CAP
 10
-122.9649353027344
 20
943.158935546875
 30
0.0095011051744223
 11
-123.1325836181641
 21
942.9855041503906
 31
0.0095010977238417
  0
LINE
  5
238
  8
CAP
 10
-123.1325836181641
 20
942.9855041503906
 30
0.0095010977238417
 11
-123.2907953262329
 21
942.8004302978516
 31
0.0095010893419385
  0
LINE
  5
239
  8
CAP
 10
-123.2907953262329
 20
942.8004302978516
 30
0.0095010893419385
 11
-123.4395713806152
 21
942.6037139892578
 31
0.0095010809600353
  0
LINE
  5
23A
  8
CAP
 10
-123.4395713806152
 20
942.6037139892578
 30
0.0095010809600353
 11
-125.8856773376465
 21
939.1272506713867
 31
0.0095009263604879
  0
LINE
  5
23B
  8
CAP
 10
-125.8856773376465
 20
939.1272506713867
 30
0.0095009263604879
 11
-125.9601249694824
 21
939.0132598876953
 31
0.0095009217038751
  0
LINE
  5
23C
  8
CAP
 10
-125.9601249694824
 20
939.0132598876953
 30
0.0095009217038751
 11
-126.0262613296509
 21
938.8954849243164
 31
0.0095009161159396
  0
LINE
  5
23D
  8
CAP
 10
-126.0262613296509
 20
938.8954849243164
 30
0.0095009161159396
 11
-126.0841102600098
 21
938.7738571166992
 31
0.0095009114593267
  0
LINE
  5
23E
  8
CAP
 10
-126.0841102600098
 20
938.7738571166992
 30
0.0095009114593267
 11
-126.1338329315186
 21
938.6478576660156
 31
0.0095009058713913
  0
LINE
  5
23F
  8
CAP
 10
-126.1338329315186
 20
938.6478576660156
 30
0.0095009058713913
 11
-126.1749773025513
 21
938.5189208984375
 31
0.0095008993521333
  0
LINE
  5
240
  8
CAP
 10
-126.1749773025513
 20
938.5189208984375
 30
0.0095008993521333
 11
-126.2070913314819
 21
938.3884735107422
 31
0.0095008937641978
  0
LINE
  5
241
  8
CAP
 10
-126.2070913314819
 20
938.3884735107422
 30
0.0095008937641978
 11
-126.2303333282471
 21
938.2560043334961
 31
0.0095008881762624
  0
LINE
  5
242
  8
CAP
 10
-126.2303333282471
 20
938.2560043334961
 30
0.0095008881762624
 11
-126.2447299957275
 21
938.1214447021484
 31
0.0095008816570044
  0
LINE
  5
243
  8
CAP
 10
-126.2447299957275
 20
938.1214447021484
 30
0.0095008816570044
 11
-126.2756605148315
 21
937.9258193969727
 31
0.0095008732751012
  0
LINE
  5
244
  8
CAP
 10
-126.2756605148315
 20
937.9258193969727
 30
0.0095008732751012
 11
-126.3357515335083
 21
937.7424850463867
 31
0.009500864893198
  0
LINE
  5
245
  8
CAP
 10
-126.3357515335083
 20
937.7424850463867
 30
0.009500864893198
 11
-126.4263734817505
 21
937.5692672729492
 31
0.0095008574426174
  0
LINE
  5
246
  8
CAP
 10
-126.4263734817505
 20
937.5692672729492
 30
0.0095008574426174
 11
-126.543417930603
 21
937.4126815795898
 31
0.0095008509233594
  0
LINE
  5
247
  8
CAP
 10
-126.543417930603
 20
937.4126815795898
 30
0.0095008509233594
 11
-126.6847724914551
 21
937.2776412963867
 31
0.0095008444041014
  0
LINE
  5
248
  8
CAP
 10
-126.6847724914551
 20
937.2776412963867
 30
0.0095008444041014
 11
-126.8458251953125
 21
937.1668243408203
 31
0.0095008397474885
  0
LINE
  5
249
  8
CAP
 10
-126.8458251953125
 20
937.1668243408203
 30
0.0095008397474885
 11
-127.0230016708374
 21
937.0842056274414
 31
0.0095008360221982
  0
LINE
  5
24A
  8
CAP
 10
-127.0230016708374
 20
937.0842056274414
 30
0.0095008360221982
 11
-127.2110719680786
 21
937.0308456420898
 31
0.0095008332282305
  0
LINE
  5
24B
  8
CAP
 10
-127.2110719680786
 20
937.0308456420898
 30
0.0095008332282305
 11
-127.4053821563721
 21
937.0093612670898
 31
0.0095008322969079
  0
LINE
  5
24C
  8
CAP
 10
-127.4053821563721
 20
937.0093612670898
 30
0.0095008322969079
 11
-127.6006326675415
 21
937.0190887451172
 31
0.0095008332282305
  0
LINE
  5
24D
  8
CAP
 10
-127.6006326675415
 20
937.0190887451172
 30
0.0095008332282305
 11
-127.791579246521
 21
937.0610046386719
 31
0.0095008350908756
  0
LINE
  5
24E
  8
CAP
 10
-127.791579246521
 20
937.0610046386719
 30
0.0095008350908756
 11
-127.9734153747559
 21
937.1327972412109
 31
0.0095008378848433
  0
LINE
  5
24F
  8
CAP
 10
-127.9734153747559
 20
937.1327972412109
 30
0.0095008378848433
 11
-128.138768196106
 21
937.2322006225586
 31
0.0095008425414562
  0
LINE
  5
250
  8
CAP
 10
-128.138768196106
 20
937.2322006225586
 30
0.0095008425414562
 11
-128.290096282959
 21
937.3599700927734
 31
0.0095008481293917
  0
LINE
  5
251
  8
CAP
 10
-128.290096282959
 20
937.3599700927734
 30
0.0095008481293917
 11
-129.7447962760925
 21
938.8146667480469
 31
0.0095009123906493
  0
LINE
  5
252
  8
CAP
 10
-129.7447962760925
 20
938.8146667480469
 30
0.0095009123906493
 11
-130.1330490112305
 21
939.1575622558594
 31
0.0095009282231331
  0
LINE
  5
253
  8
CAP
 10
-130.1330490112305
 20
939.1575622558594
 30
0.0095009282231331
 11
-130.5521507263184
 21
939.4470291137695
 31
0.0095009412616491
  0
LINE
  5
254
  8
CAP
 10
-130.5521507263184
 20
939.4470291137695
 30
0.0095009412616491
 11
-131.0052795410156
 21
939.6843719482422
 31
0.0095009515061975
  0
LINE
  5
255
  8
CAP
 10
-131.0052795410156
 20
939.6843719482422
 30
0.0095009515061975
 11
-131.4867453575134
 21
939.8672485351562
 31
0.0095009598881006
  0
LINE
  5
256
  8
CAP
 10
-131.4867453575134
 20
939.8672485351562
 30
0.0095009598881006
 11
-131.9829473495483
 21
939.9893341064453
 31
0.0095009645447135
  0
LINE
  5
257
  8
CAP
 10
-131.9829473495483
 20
939.9893341064453
 30
0.0095009645447135
 11
-132.4946227073669
 21
940.0515518188477
 31
0.0095009673386812
  0
LINE
  5
258
  8
CAP
 10
-132.4946227073669
 20
940.0515518188477
 30
0.0095009673386812
 11
-133.0053772926331
 21
940.0515518188477
 31
0.0095009673386812
  0
LINE
  5
259
  8
CAP
 10
-133.0053772926331
 20
940.0515518188477
 30
0.0095009673386812
 11
-133.5170526504517
 21
939.9893341064453
 31
0.0095009645447135
  0
LINE
  5
25A
  8
CAP
 10
-133.5170526504517
 20
939.9893341064453
 30
0.0095009645447135
 11
-134.0132546424866
 21
939.8672485351562
 31
0.0095009598881006
  0
LINE
  5
25B
  8
CAP
 10
-134.0132546424866
 20
939.8672485351562
 30
0.0095009598881006
 11
-134.4947204589844
 21
939.6843719482422
 31
0.0095009515061975
  0
LINE
  5
25C
  8
CAP
 10
-134.4947204589844
 20
939.6843719482422
 30
0.0095009515061975
 11
-134.9480133056641
 21
939.4468994140625
 31
0.0095009412616491
  0
LINE
  5
25D
  8
CAP
 10
-134.9480133056641
 20
939.4468994140625
 30
0.0095009412616491
 11
-135.370964050293
 21
939.1544799804688
 31
0.0095009282231331
  0
LINE
  5
25E
  8
CAP
 10
-135.370964050293
 20
939.1544799804688
 30
0.0095009282231331
 11
-135.7552042007446
 21
938.8146667480469
 31
0.0095009123906493
  0
LINE
  5
25F
  8
CAP
 10
-135.7552042007446
 20
938.8146667480469
 30
0.0095009123906493
 11
-136.0950174331665
 21
938.4304275512695
 31
0.009500895626843
  0
LINE
  5
260
  8
CAP
 10
-136.0950174331665
 20
938.4304275512695
 30
0.009500895626843
 11
-136.387433052063
 21
938.0074768066406
 31
0.0095008770003915
  0
LINE
  5
261
  8
CAP
 10
-136.387433052063
 20
938.0074768066406
 30
0.0095008770003915
 11
-136.6249074935913
 21
937.5541839599609
 31
0.0095008565112948
  0
LINE
  5
262
  8
CAP
 10
-136.6249074935913
 20
937.5541839599609
 30
0.0095008565112948
 11
-136.8077850341797
 21
937.0727233886719
 31
0.0095008350908756
  0
LINE
  5
263
  8
CAP
 10
-136.8077850341797
 20
937.0727233886719
 30
0.0095008350908756
 11
-136.9298639297485
 21
936.5765228271484
 31
0.0095008136704564
  0
LINE
  5
264
  8
CAP
 10
-136.9298639297485
 20
936.5765228271484
 30
0.0095008136704564
 11
-136.9920854568481
 21
936.0648422241211
 31
0.009500790387392
  0
LINE
  5
265
  8
CAP
 10
-136.9920854568481
 20
936.0648422241211
 30
0.009500790387392
 11
-136.9920854568481
 21
935.5540924072266
 31
0.0095007680356503
  0
LINE
  5
266
  8
CAP
 10
-136.9920854568481
 20
935.5540924072266
 30
0.0095007680356503
 11
-136.9298639297485
 21
935.0424118041992
 31
0.0095007456839085
  0
LINE
  5
267
  8
CAP
 10
-136.9298639297485
 20
935.0424118041992
 30
0.0095007456839085
 11
-136.8077850341797
 21
934.5462112426758
 31
0.0095007233321667
  0
LINE
  5
268
  8
CAP
 10
-136.8077850341797
 20
934.5462112426758
 30
0.0095007233321667
 11
-136.6249074935913
 21
934.0647430419922
 31
0.0095007019117475
  0
LINE
  5
269
  8
CAP
 10
-136.6249074935913
 20
934.0647430419922
 30
0.0095007019117475
 11
-136.3875589370728
 21
933.6116180419922
 31
0.0095006823539734
  0
LINE
  5
26A
  8
CAP
 10
-136.3875589370728
 20
933.6116180419922
 30
0.0095006823539734
 11
-136.0980968475342
 21
933.192512512207
 31
0.0095006637275219
  0
LINE
  5
26B
  8
CAP
 10
-136.0980968475342
 20
933.192512512207
 30
0.0095006637275219
 11
-135.7552042007446
 21
932.8042602539062
 31
0.009500646032393
  0
LINE
  5
26C
  8
CAP
 10
-135.7552042007446
 20
932.8042602539062
 30
0.009500646032393
 11
-128.5931453704834
 21
925.642204284668
 31
0.009500328451395
  0
LINE
  5
26D
  8
CAP
 10
-128.5931453704834
 20
925.642204284668
 30
0.009500328451395
 11
-128.06374168396
 21
925.0574111938477
 31
0.0095003023743629
  0
LINE
  5
26E
  8
CAP
 10
-128.06374168396
 20
925.0574111938477
 30
0.0095003023743629
 11
-127.5982427597046
 21
924.4299087524414
 31
0.0095002744346857
  0
LINE
  5
26F
  8
CAP
 10
-127.5982427597046
 20
924.4299087524414
 30
0.0095002744346857
 11
-127.1948747634888
 21
923.7563934326172
 31
0.0095002446323633
  0
LINE
  5
270
  8
CAP
 10
-127.1948747634888
 20
923.7563934326172
 30
0.0095002446323633
 11
-126.8589639663696
 21
923.0468292236328
 31
0.0095002129673958
  0
LINE
  5
271
  8
CAP
 10
-126.8589639663696
 20
923.0468292236328
 30
0.0095002129673958
 11
-126.5947427749634
 21
922.3075561523438
 31
0.0095001803711057
  0
LINE
  5
272
  8
CAP
 10
-126.5947427749634
 20
922.3075561523438
 30
0.0095001803711057
 11
-126.4037179946899
 21
921.5460815429688
 31
0.009500146843493
  0
LINE
  5
273
  8
CAP
 10
-126.4037179946899
 20
921.5460815429688
 30
0.009500146843493
 11
-126.2891674041748
 21
920.7732162475586
 31
0.0095001123845577
  0
LINE
  5
274
  8
CAP
 10
-126.2891674041748
 20
920.7732162475586
 30
0.0095001123845577
 11
-126.25
 21
919.9853591918945
 31
0.0095000769942999
  0
LINE
  5
275
  8
CAP
 10
-126.25
 20
919.9853591918945
 30
0.0095000769942999
 11
-126.25
 21
876.6335983276367
 31
0.0094981538131833
  0
LINE
  5
276
  8
CAP
 10
-126.25
 20
876.6335983276367
 30
0.0094981538131833
 11
-126.2891674041748
 21
875.8457412719727
 31
0.009498119354248
  0
LINE
  5
277
  8
CAP
 10
-126.2891674041748
 20
875.8457412719727
 30
0.009498119354248
 11
-126.4037179946899
 21
875.0728759765625
 31
0.0094980848953128
  0
LINE
  5
278
  8
CAP
 10
-126.4037179946899
 20
875.0728759765625
 30
0.0094980848953128
 11
-126.5947427749634
 21
874.3114013671875
 31
0.0094980513677001
  0
LINE
  5
279
  8
CAP
 10
-126.5947427749634
 20
874.3114013671875
 30
0.0094980513677001
 11
-126.8589639663696
 21
873.5721282958984
 31
0.0094980178400874
  0
LINE
  5
27A
  8
CAP
 10
-126.8589639663696
 20
873.5721282958984
 30
0.0094980178400874
 11
-127.1948747634888
 21
872.8625526428223
 31
0.0094979871064425
  0
LINE
  5
27B
  8
CAP
 10
-127.1948747634888
 20
872.8625526428223
 30
0.0094979871064425
 11
-127.5982427597046
 21
872.1890335083008
 31
0.0094979563727975
  0
LINE
  5
27C
  8
CAP
 10
-127.5982427597046
 20
872.1890335083008
 30
0.0094979563727975
 11
-128.06374168396
 21
871.5615386962891
 31
0.0094979293644428
  0
LINE
  5
27D
  8
CAP
 10
-128.06374168396
 20
871.5615386962891
 30
0.0094979293644428
 11
-128.5931453704834
 21
870.9767456054688
 31
0.0094979032874107
  0
LINE
  5
27E
  8
CAP
 10
-128.5931453704834
 20
870.9767456054688
 30
0.0094979032874107
 11
-135.7552042007446
 21
863.8146867752075
 31
0.0094975857064128
  0
LINE
  5
27F
  8
CAP
 10
-135.7552042007446
 20
863.8146867752075
 30
0.0094975857064128
 11
-136.0926237106323
 21
863.4335336685181
 31
0.0094975680112839
  0
LINE
  5
280
  8
CAP
 10
-136.0926237106323
 20
863.4335336685181
 30
0.0094975680112839
 11
-136.3786096572876
 21
863.0220899581909
 31
0.009497550316155
  0
LINE
  5
281
  8
CAP
 10
-136.3786096572876
 20
863.0220899581909
 30
0.009497550316155
 11
-136.6144943237305
 21
862.5772523880005
 31
0.0094975307583809
  0
LINE
  5
282
  8
CAP
 10
-136.6144943237305
 20
862.5772523880005
 30
0.0094975307583809
 11
-136.7975053787231
 21
862.1054830551147
 31
0.0094975093379617
  0
LINE
  5
283
  8
CAP
 10
-136.7975053787231
 20
862.1054830551147
 30
0.0094975093379617
 11
-136.9220085144043
 21
861.6181783676147
 31
0.0094974879175425
  0
LINE
  5
284
  8
CAP
 10
-136.9220085144043
 20
861.6181783676147
 30
0.0094974879175425
 11
-136.9887857437134
 21
861.1161375045776
 31
0.0094974655658007
  0
LINE
  5
285
  8
CAP
 10
-136.9887857437134
 20
861.1161375045776
 30
0.0094974655658007
 11
-136.9952077865601
 21
860.6136236190796
 31
0.0094974432140589
  0
LINE
  5
286
  8
CAP
 10
-136.9952077865601
 20
860.6136236190796
 30
0.0094974432140589
 11
-136.9417972564697
 21
860.1097993850708
 31
0.0094974208623171
  0
LINE
  5
287
  8
CAP
 10
-136.9417972564697
 20
860.1097993850708
 30
0.0094974208623171
 11
-136.8299379348755
 21
859.6200132369995
 31
0.0094973994418979
  0
LINE
  5
288
  8
CAP
 10
-136.8299379348755
 20
859.6200132369995
 30
0.0094973994418979
 11
-136.6593370437622
 21
859.1429853439331
 31
0.0094973780214787
  0
LINE
  5
289
  8
CAP
 10
-136.6593370437622
 20
859.1429853439331
 30
0.0094973780214787
 11
-136.435432434082
 21
858.693133354187
 31
0.0094973584637046
  0
LINE
  5
28A
  8
CAP
 10
-136.435432434082
 20
858.693133354187
 30
0.0094973584637046
 11
-136.1573915481567
 21
858.2699317932129
 31
0.0094973389059305
  0
LINE
  5
28B
  8
CAP
 10
-136.1573915481567
 20
858.2699317932129
 30
0.0094973389059305
 11
-135.8337745666504
 21
857.8850612640381
 31
0.0094973221421242
  0
LINE
  5
28C
  8
CAP
 10
-135.8337745666504
 20
857.8850612640381
 30
0.0094973221421242
 11
-135.4642219543457
 21
857.5395784378052
 31
0.009497307240963
  0
LINE
  5
28D
  8
CAP
 10
-135.4642219543457
 20
857.5395784378052
 30
0.009497307240963
 11
-135.0587825775146
 21
857.2412977218628
 31
0.0094972932711244
  0
LINE
  5
28E
  8
CAP
 10
-135.0587825775146
 20
857.2412977218628
 30
0.0094972932711244
 11
-134.6227731704712
 21
856.9948320388794
 31
0.009497283026576
  0
LINE
  5
28F
  8
CAP
 10
-134.6227731704712
 20
856.9948320388794
 30
0.009497283026576
 11
-134.1536402702332
 21
856.7979650497437
 31
0.0094972737133503
  0
LINE
  5
290
  8
CAP
 10
-134.1536402702332
 20
856.7979650497437
 30
0.0094972737133503
 11
-133.7991795539856
 21
856.6474418640137
 31
0.0094972671940923
  0
LINE
  5
291
  8
CAP
 10
-133.7991795539856
 20
856.6474418640137
 30
0.0094972671940923
 11
-133.4717354774475
 21
856.4566946029663
 31
0.0094972588121891
  0
LINE
  5
292
  8
CAP
 10
-133.4717354774475
 20
856.4566946029663
 30
0.0094972588121891
 11
-133.1689920425415
 21
856.2236948013306
 31
0.0094972485676408
  0
LINE
  5
293
  8
CAP
 10
-133.1689920425415
 20
856.2236948013306
 30
0.0094972485676408
 11
-132.8978991508484
 21
855.9545278549194
 31
0.0094972364604473
  0
LINE
  5
294
  8
CAP
 10
-132.8978991508484
 20
855.9545278549194
 30
0.0094972364604473
 11
-132.6636781692505
 21
855.6527280807495
 31
0.0094972234219313
  0
LINE
  5
295
  8
CAP
 10
-132.6636781692505
 20
855.6527280807495
 30
0.0094972234219313
 11
-132.4692049026489
 21
855.3239088058472
 31
0.0094972085207701
  0
LINE
  5
296
  8
CAP
 10
-132.4692049026489
 20
855.3239088058472
 30
0.0094972085207701
 11
-132.3186388015747
 21
854.972806930542
 31
0.0094971926882863
  0
LINE
  5
297
  8
CAP
 10
-132.3186388015747
 20
854.972806930542
 30
0.0094971926882863
 11
-132.2133483886719
 21
854.6055793762207
 31
0.0094971768558025
  0
LINE
  5
298
  8
CAP
 10
-132.2133483886719
 20
854.6055793762207
 30
0.0094971768558025
 11
-132.1564331054688
 21
854.2309265136719
 31
0.0094971600919962
  0
LINE
  5
299
  8
CAP
 10
-132.1564331054688
 20
854.2309265136719
 30
0.0094971600919962
 11
-132.1468601226807
 21
853.8459482192993
 31
0.0094971433281898
  0
LINE
  5
29A
  8
CAP
 10
-132.1468601226807
 20
853.8459482192993
 30
0.0094971433281898
 11
-132.1486806869507
 21
853.601863861084
 31
0.009497132152319
  0
LINE
  5
29B
  8
CAP
 10
-132.1486806869507
 20
853.601863861084
 30
0.009497132152319
 11
-132.135880947113
 21
853.3605861663818
 31
0.0094971219077706
  0
LINE
  5
29C
  8
CAP
 10
-132.135880947113
 20
853.3605861663818
 30
0.0094971219077706
 11
-132.1084609031677
 21
853.1221141815186
 31
0.0094971107318997
  0
LINE
  5
29D
  8
CAP
 10
-132.1084609031677
 20
853.1221141815186
 30
0.0094971107318997
 11
-132.0663824081421
 21
852.886326789856
 31
0.0094971004873514
  0
LINE
  5
29E
  8
CAP
 10
-132.0663824081421
 20
852.886326789856
 30
0.0094971004873514
 11
-132.0092091560364
 21
852.6518316268921
 31
0.0094970902428031
  0
LINE
  5
29F
  8
CAP
 10
-132.0092091560364
 20
852.6518316268921
 30
0.0094970902428031
 11
-131.9374551773071
 21
852.4202699661255
 31
0.0094970799982548
  0
LINE
  5
2A0
  8
CAP
 10
-131.9374551773071
 20
852.4202699661255
 30
0.0094970799982548
 11
-131.8519439697266
 21
852.1942672729492
 31
0.0094970697537065
  0
LINE
  5
2A1
  8
CAP
 10
-131.8519439697266
 20
852.1942672729492
 30
0.0094970697537065
 11
-131.7530670166016
 21
851.9754343032837
 31
0.0094970604404807
  0
LINE
  5
2A2
  8
CAP
 10
-131.7530670166016
 20
851.9754343032837
 30
0.0094970604404807
 11
-131.6399178504944
 21
851.7616453170776
 31
0.0094970501959324
  0
LINE
  5
2A3
  8
CAP
 10
-131.6399178504944
 20
851.7616453170776
 30
0.0094970501959324
 11
-131.5136337280273
 21
851.554708480835
 31
0.0094970418140292
  0
LINE
  5
2A4
  8
CAP
 10
-131.5136337280273
 20
851.554708480835
 30
0.0094970418140292
 11
-131.3756141662598
 21
851.3569984436035
 31
0.0094970325008035
  0
LINE
  5
2A5
  8
CAP
 10
-131.3756141662598
 20
851.3569984436035
 30
0.0094970325008035
 11
-131.2258081436157
 21
851.1688613891602
 31
0.0094970241189003
  0
LINE
  5
2A6
  8
CAP
 10
-131.2258081436157
 20
851.1688613891602
 30
0.0094970241189003
 11
-131.0634498596191
 21
850.9890193939209
 31
0.0094970166683197
  0
LINE
  5
2A7
  8
CAP
 10
-131.0634498596191
 20
850.9890193939209
 30
0.0094970166683197
 11
-130.8904004096985
 21
850.8194146156311
 31
0.0094970082864165
  0
LINE
  5
2A8
  8
CAP
 10
-130.8904004096985
 20
850.8194146156311
 30
0.0094970082864165
 11
-130.7085094451904
 21
850.6619997024536
 31
0.0094970017671585
  0
LINE
  5
2A9
  8
CAP
 10
-130.7085094451904
 20
850.6619997024536
 30
0.0094970017671585
 11
-130.5165276527405
 21
850.5159449577332
 31
0.0094969952479005
  0
LINE
  5
2AA
  8
CAP
 10
-130.5165276527405
 20
850.5159449577332
 30
0.0094969952479005
 11
-130.3148112297058
 21
850.3812184333801
 31
0.009496989659965
  0
LINE
  5
2AB
  8
CAP
 10
-130.3148112297058
 20
850.3812184333801
 30
0.009496989659965
 11
-130.1056823730469
 21
850.2593393325806
 31
0.0094969840720296
  0
LINE
  5
2AC
  8
CAP
 10
-130.1056823730469
 20
850.2593393325806
 30
0.0094969840720296
 11
-129.8909120559692
 21
850.1515378952026
 31
0.0094969794154167
  0
LINE
  5
2AD
  8
CAP
 10
-129.8909120559692
 20
850.1515378952026
 30
0.0094969794154167
 11
-129.6684317588806
 21
850.0568056106567
 31
0.0094969747588038
  0
LINE
  5
2AE
  8
CAP
 10
-129.6684317588806
 20
850.0568056106567
 30
0.0094969747588038
 11
-129.4397983551025
 21
849.9756054878235
 31
0.0094969710335135
  0
LINE
  5
2AF
  8
CAP
 10
-129.4397983551025
 20
849.9756054878235
 30
0.0094969710335135
 11
-129.2075605392456
 21
849.908881187439
 31
0.0094969682395458
  0
LINE
  5
2B0
  8
CAP
 10
-129.2075605392456
 20
849.908881187439
 30
0.0094969682395458
 11
-128.9733066558838
 21
849.8572192192078
 31
0.0094969663769007
  0
LINE
  5
2B1
  8
CAP
 10
-128.9733066558838
 20
849.8572192192078
 30
0.0094969663769007
 11
-128.7356882095337
 21
849.8201217651367
 31
0.0094969645142555
  0
LINE
  5
2B2
  8
CAP
 10
-128.7356882095337
 20
849.8201217651367
 30
0.0094969645142555
 11
-128.4945859909058
 21
849.7975444793701
 31
0.0094969635829329
  0
LINE
  5
2B3
  8
CAP
 10
-128.4945859909058
 20
849.7975444793701
 30
0.0094969635829329
 11
-128.25
 21
849.7894868850708
 31
0.0094969626516104
  0
LINE
  5
2B4
  8
CAP
 10
-128.25
 20
849.7894868850708
 30
0.0094969626516104
 11
-127.0500001907349
 21
849.7894868850708
 31
0.0094969626516104
  0
LINE
  5
2B5
  8
CAP
 10
-127.0500001907349
 20
849.7894868850708
 30
0.0094969626516104
 11
-126.9096717834473
 21
849.7769289016724
 31
0.0094969626516104
  0
LINE
  5
2B6
  8
CAP
 10
-126.9096717834473
 20
849.7769289016724
 30
0.0094969626516104
 11
-126.7766923904419
 21
849.7413234710693
 31
0.0094969607889652
  0
LINE
  5
2B7
  8
CAP
 10
-126.7766923904419
 20
849.7413234710693
 30
0.0094969607889652
 11
-126.6498041152954
 21
849.6820292472839
 31
0.0094969579949975
  0
LINE
  5
2B8
  8
CAP
 10
-126.6498041152954
 20
849.6820292472839
 30
0.0094969579949975
 11
-126.5361309051514
 21
849.6025128364563
 31
0.0094969552010298
  0
LINE
  5
2B9
  8
CAP
 10
-126.5361309051514
 20
849.6025128364563
 30
0.0094969552010298
 11
-126.4369745254517
 21
849.5033559799194
 31
0.0094969505444169
  0
LINE
  5
2BA
  8
CAP
 10
-126.4369745254517
 20
849.5033559799194
 30
0.0094969505444169
 11
-126.357458114624
 21
849.3896827697754
 31
0.0094969449564815
  0
LINE
  5
2BB
  8
CAP
 10
-126.357458114624
 20
849.3896827697754
 30
0.0094969449564815
 11
-126.2981634140015
 21
849.2627949714661
 31
0.009496939368546
  0
LINE
  5
2BC
  8
CAP
 10
-126.2981634140015
 20
849.2627949714661
 30
0.009496939368546
 11
-126.2625579833984
 21
849.1298155784607
 31
0.0094969337806106
  0
LINE
  5
2BD
  8
CAP
 10
-126.2625579833984
 20
849.1298155784607
 30
0.0094969337806106
 11
-126.25
 21
848.9894871711731
 31
0.0094969272613525
  0
LINE
  5
2BE
  8
CAP
 10
-126.25
 20
848.9894871711731
 30
0.0094969272613525
 11
-126.25
 21
848.8094868659973
 31
0.0094969198107719
  0
LINE
  5
2BF
  8
CAP
 10
-126.25
 20
848.8094868659973
 30
0.0094969198107719
 11
-126.2374420166016
 21
848.6691584587097
 31
0.0094969132915139
  0
LINE
  5
2C0
  8
CAP
 10
-126.2374420166016
 20
848.6691584587097
 30
0.0094969132915139
 11
-126.2018365859985
 21
848.5361795425415
 31
0.0094969077035785
  0
LINE
  5
2C1
  8
CAP
 10
-126.2018365859985
 20
848.5361795425415
 30
0.0094969077035785
 11
-126.142541885376
 21
848.4092917442322
 31
0.009496902115643
  0
LINE
  5
2C2
  8
CAP
 10
-126.142541885376
 20
848.4092917442322
 30
0.009496902115643
 11
-126.0630254745483
 21
848.2956185340881
 31
0.0094968965277076
  0
LINE
  5
2C3
  8
CAP
 10
-126.0630254745483
 20
848.2956185340881
 30
0.0094968965277076
 11
-125.9638690948486
 21
848.1964616775513
 31
0.0094968928024173
  0
LINE
  5
2C4
  8
CAP
 10
-125.9638690948486
 20
848.1964616775513
 30
0.0094968928024173
 11
-125.8501958847046
 21
848.1169452667236
 31
0.009496889077127
  0
LINE
  5
2C5
  8
CAP
 10
-125.8501958847046
 20
848.1169452667236
 30
0.009496889077127
 11
-125.7233076095581
 21
848.0576510429382
 31
0.0094968862831593
  0
LINE
  5
2C6
  8
CAP
 10
-125.7233076095581
 20
848.0576510429382
 30
0.0094968862831593
 11
-125.5903282165527
 21
848.0220456123352
 31
0.0094968844205141
  0
LINE
  5
2C7
  8
CAP
 10
-125.5903282165527
 20
848.0220456123352
 30
0.0094968844205141
 11
-125.4499998092651
 21
848.0094876289368
 31
0.0094968844205141
  0
LINE
  5
2C8
  8
CAP
 10
-125.4499998092651
 20
848.0094876289368
 30
0.0094968844205141
 11
-65.05000305175781
 21
848.0094876289368
 31
0.0094968844205141
  0
LINE
  5
2C9
  8
CAP
 10
-65.05000305175781
 20
848.0094876289368
 30
0.0094968844205141
 11
-64.90966796875
 21
848.0220456123352
 31
0.0094968844205141
  0
LINE
  5
2CA
  8
CAP
 10
-64.90966796875
 20
848.0220456123352
 30
0.0094968844205141
 11
-64.77668762207031
 21
848.0576510429382
 31
0.0094968862831593
  0
LINE
  5
2CB
  8
CAP
 10
-64.77668762207031
 20
848.0576510429382
 30
0.0094968862831593
 11
-64.6498031616211
 21
848.1169452667236
 31
0.009496889077127
  0
LINE
  5
2CC
  8
CAP
 10
-64.6498031616211
 20
848.1169452667236
 30
0.009496889077127
 11
-64.5361328125
 21
848.1964616775513
 31
0.0094968928024173
  0
LINE
  5
2CD
  8
CAP
 10
-64.5361328125
 20
848.1964616775513
 30
0.0094968928024173
 11
-64.43697357177734
 21
848.2956185340881
 31
0.0094968965277076
  0
LINE
  5
2CE
  8
CAP
 10
-64.43697357177734
 20
848.2956185340881
 30
0.0094968965277076
 11
-64.35745239257812
 21
848.4092917442322
 31
0.009496902115643
  0
LINE
  5
2CF
  8
CAP
 10
-64.35745239257812
 20
848.4092917442322
 30
0.009496902115643
 11
-64.29816436767578
 21
848.5361795425415
 31
0.0094969077035785
  0
LINE
  5
2D0
  8
CAP
 10
-64.29816436767578
 20
848.5361795425415
 30
0.0094969077035785
 11
-64.26255798339844
 21
848.6691584587097
 31
0.0094969132915139
  0
LINE
  5
2D1
  8
CAP
 10
-64.26255798339844
 20
848.6691584587097
 30
0.0094969132915139
 11
-64.25
 21
848.8094868659973
 31
0.0094969198107719
  0
LINE
  5
2D2
  8
CAP
 10
-64.25
 20
848.8094868659973
 30
0.0094969198107719
 11
-64.25
 21
848.9894871711731
 31
0.0094969272613525
  0
LINE
  5
2D3
  8
CAP
 10
-64.25
 20
848.9894871711731
 30
0.0094969272613525
 11
-64.23744201660156
 21
849.1298155784607
 31
0.0094969337806106
  0
LINE
  5
2D4
  8
CAP
 10
-64.23744201660156
 20
849.1298155784607
 30
0.0094969337806106
 11
-64.20183563232422
 21
849.2627949714661
 31
0.009496939368546
  0
LINE
  5
2D5
  8
CAP
 10
-64.20183563232422
 20
849.2627949714661
 30
0.009496939368546
 11
-64.14254760742188
 21
849.3896827697754
 31
0.0094969449564815
  0
LINE
  5
2D6
  8
CAP
 10
-64.14254760742188
 20
849.3896827697754
 30
0.0094969449564815
 11
-64.06302642822266
 21
849.5033559799194
 31
0.0094969505444169
  0
LINE
  5
2D7
  8
CAP
 10
-64.06302642822266
 20
849.5033559799194
 30
0.0094969505444169
 11
-63.9638671875
 21
849.6025128364563
 31
0.0094969552010298
  0
LINE
  5
2D8
  8
CAP
 10
-63.9638671875
 20
849.6025128364563
 30
0.0094969552010298
 11
-63.85019683837891
 21
849.6820292472839
 31
0.0094969579949975
  0
LINE
  5
2D9
  8
CAP
 10
-63.85019683837891
 20
849.6820292472839
 30
0.0094969579949975
 11
-63.72331237792969
 21
849.7413234710693
 31
0.0094969607889652
  0
LINE
  5
2DA
  8
CAP
 10
-63.72331237792969
 20
849.7413234710693
 30
0.0094969607889652
 11
-63.59033203125
 21
849.7769289016724
 31
0.0094969626516104
  0
LINE
  5
2DB
  8
CAP
 10
-63.59033203125
 20
849.7769289016724
 30
0.0094969626516104
 11
-63.44999694824219
 21
849.7894868850708
 31
0.0094969626516104
  0
LINE
  5
2DC
  8
CAP
 10
-63.44999694824219
 20
849.7894868850708
 30
0.0094969626516104
 11
-62.25
 21
849.7894868850708
 31
0.0094969626516104
  0
LINE
  5
2DD
  8
CAP
 10
-62.25
 20
849.7894868850708
 30
0.0094969626516104
 11
-62.00541687011719
 21
849.7975444793701
 31
0.0094969635829329
  0
LINE
  5
2DE
  8
CAP
 10
-62.00541687011719
 20
849.7975444793701
 30
0.0094969635829329
 11
-61.76431274414062
 21
849.8201217651367
 31
0.0094969645142555
  0
LINE
  5
2DF
  8
CAP
 10
-61.76431274414062
 20
849.8201217651367
 30
0.0094969645142555
 11
-61.52669525146484
 21
849.8572192192078
 31
0.0094969663769007
  0
LINE
  5
2E0
  8
CAP
 10
-61.52669525146484
 20
849.8572192192078
 30
0.0094969663769007
 11
-61.29244232177734
 21
849.908881187439
 31
0.0094969682395458
  0
LINE
  5
2E1
  8
CAP
 10
-61.29244232177734
 20
849.908881187439
 30
0.0094969682395458
 11
-61.06020355224609
 21
849.9756054878235
 31
0.0094969710335135
  0
LINE
  5
2E2
  8
CAP
 10
-61.06020355224609
 20
849.9756054878235
 30
0.0094969710335135
 11
-60.83156585693359
 21
850.0568056106567
 31
0.0094969747588038
  0
LINE
  5
2E3
  8
CAP
 10
-60.83156585693359
 20
850.0568056106567
 30
0.0094969747588038
 11
-60.60908508300781
 21
850.1515378952026
 31
0.0094969794154167
  0
LINE
  5
2E4
  8
CAP
 10
-60.60908508300781
 20
850.1515378952026
 30
0.0094969794154167
 11
-60.39431762695312
 21
850.2593393325806
 31
0.0094969840720296
  0
LINE
  5
2E5
  8
CAP
 10
-60.39431762695312
 20
850.2593393325806
 30
0.0094969840720296
 11
-60.18518829345703
 21
850.3812184333801
 31
0.009496989659965
  0
LINE
  5
2E6
  8
CAP
 10
-60.18518829345703
 20
850.3812184333801
 30
0.009496989659965
 11
-59.98347473144531
 21
850.5159449577332
 31
0.0094969952479005
  0
LINE
  5
2E7
  8
CAP
 10
-59.98347473144531
 20
850.5159449577332
 30
0.0094969952479005
 11
-59.79148864746094
 21
850.6619997024536
 31
0.0094970017671585
  0
LINE
  5
2E8
  8
CAP
 10
-59.79148864746094
 20
850.6619997024536
 30
0.0094970017671585
 11
-59.60959625244141
 21
850.8194146156311
 31
0.0094970082864165
  0
LINE
  5
2E9
  8
CAP
 10
-59.60959625244141
 20
850.8194146156311
 30
0.0094970082864165
 11
-59.43654632568359
 21
850.9890193939209
 31
0.0094970166683197
  0
LINE
  5
2EA
  8
CAP
 10
-59.43654632568359
 20
850.9890193939209
 30
0.0094970166683197
 11
-59.27419281005859
 21
851.1688613891602
 31
0.0094970241189003
  0
LINE
  5
2EB
  8
CAP
 10
-59.27419281005859
 20
851.1688613891602
 30
0.0094970241189003
 11
-59.1243896484375
 21
851.3569984436035
 31
0.0094970325008035
  0
LINE
  5
2EC
  8
CAP
 10
-59.1243896484375
 20
851.3569984436035
 30
0.0094970325008035
 11
-58.98636627197266
 21
851.554708480835
 31
0.0094970418140292
  0
LINE
  5
2ED
  8
CAP
 10
-58.98636627197266
 20
851.554708480835
 30
0.0094970418140292
 11
-58.86008453369141
 21
851.7616453170776
 31
0.0094970501959324
  0
LINE
  5
2EE
  8
CAP
 10
-58.86008453369141
 20
851.7616453170776
 30
0.0094970501959324
 11
-58.74693298339844
 21
851.9754343032837
 31
0.0094970604404807
  0
LINE
  5
2EF
  8
CAP
 10
-58.74693298339844
 20
851.9754343032837
 30
0.0094970604404807
 11
-58.64805603027344
 21
852.1942672729492
 31
0.0094970697537065
  0
LINE
  5
2F0
  8
CAP
 10
-58.64805603027344
 20
852.1942672729492
 30
0.0094970697537065
 11
-58.56254577636719
 21
852.4202699661255
 31
0.0094970799982548
  0
LINE
  5
2F1
  8
CAP
 10
-58.56254577636719
 20
852.4202699661255
 30
0.0094970799982548
 11
-58.49079132080078
 21
852.6518316268921
 31
0.0094970902428031
  0
LINE
  5
2F2
  8
CAP
 10
-58.49079132080078
 20
852.6518316268921
 30
0.0094970902428031
 11
-58.43361663818359
 21
852.886326789856
 31
0.0094971004873514
  0
LINE
  5
2F3
  8
CAP
 10
-58.43361663818359
 20
852.886326789856
 30
0.0094971004873514
 11
-58.39154052734375
 21
853.1221141815186
 31
0.0094971107318997
  0
LINE
  5
2F4
  8
CAP
 10
-58.39154052734375
 20
853.1221141815186
 30
0.0094971107318997
 11
-58.36412048339844
 21
853.3605861663818
 31
0.0094971219077706
  0
LINE
  5
2F5
  8
CAP
 10
-58.36412048339844
 20
853.3605861663818
 30
0.0094971219077706
 11
-58.351318359375
 21
853.601863861084
 31
0.009497132152319
  0
LINE
  5
2F6
  8
CAP
 10
-58.351318359375
 20
853.601863861084
 30
0.009497132152319
 11
-58.35314178466797
 21
853.8459482192993
 31
0.0094971433281898
  0
LINE
  5
2F7
  8
CAP
 10
-58.35314178466797
 20
853.8459482192993
 30
0.0094971433281898
 11
-58.34356689453125
 21
854.2309265136719
 31
0.0094971600919962
  0
LINE
  5
2F8
  8
CAP
 10
-58.34356689453125
 20
854.2309265136719
 30
0.0094971600919962
 11
-58.28665161132812
 21
854.6055793762207
 31
0.0094971768558025
  0
LINE
  5
2F9
  8
CAP
 10
-58.28665161132812
 20
854.6055793762207
 30
0.0094971768558025
 11
-58.18135833740234
 21
854.972806930542
 31
0.0094971926882863
  0
LINE
  5
2FA
  8
CAP
 10
-58.18135833740234
 20
854.972806930542
 30
0.0094971926882863
 11
-58.03079223632812
 21
855.3239088058472
 31
0.0094972085207701
  0
LINE
  5
2FB
  8
CAP
 10
-58.03079223632812
 20
855.3239088058472
 30
0.0094972085207701
 11
-57.83631896972656
 21
855.6527280807495
 31
0.0094972234219313
  0
LINE
  5
2FC
  8
CAP
 10
-57.83631896972656
 20
855.6527280807495
 30
0.0094972234219313
 11
-57.60210418701172
 21
855.9545278549194
 31
0.0094972364604473
  0
LINE
  5
2FD
  8
CAP
 10
-57.60210418701172
 20
855.9545278549194
 30
0.0094972364604473
 11
-57.33100891113281
 21
856.2236948013306
 31
0.0094972485676408
  0
LINE
  5
2FE
  8
CAP
 10
-57.33100891113281
 20
856.2236948013306
 30
0.0094972485676408
 11
-57.02826690673828
 21
856.4566946029663
 31
0.0094972588121891
  0
LINE
  5
2FF
  8
CAP
 10
-57.02826690673828
 20
856.4566946029663
 30
0.0094972588121891
 11
-56.70082092285156
 21
856.6474418640137
 31
0.0094972671940923
  0
LINE
  5
300
  8
CAP
 10
-56.70082092285156
 20
856.6474418640137
 30
0.0094972671940923
 11
-56.34635925292969
 21
856.7979650497437
 31
0.0094972737133503
  0
LINE
  5
301
  8
CAP
 10
-56.34635925292969
 20
856.7979650497437
 30
0.0094972737133503
 11
-55.87722778320312
 21
856.9948320388794
 31
0.009497283026576
  0
LINE
  5
302
  8
CAP
 10
-55.87722778320312
 20
856.9948320388794
 30
0.009497283026576
 11
-55.44121551513672
 21
857.2412977218628
 31
0.0094972932711244
  0
LINE
  5
303
  8
CAP
 10
-55.44121551513672
 20
857.2412977218628
 30
0.0094972932711244
 11
-55.03578186035156
 21
857.5395784378052
 31
0.009497307240963
  0
LINE
  5
304
  8
CAP
 10
-55.03578186035156
 20
857.5395784378052
 30
0.009497307240963
 11
-54.66622161865234
 21
857.8850612640381
 31
0.0094973221421242
  0
LINE
  5
305
  8
CAP
 10
-54.66622161865234
 20
857.8850612640381
 30
0.0094973221421242
 11
-54.34260559082031
 21
858.2699317932129
 31
0.0094973389059305
  0
LINE
  5
306
  8
CAP
 10
-54.34260559082031
 20
858.2699317932129
 30
0.0094973389059305
 11
-54.06456756591797
 21
858.693133354187
 31
0.0094973584637046
  0
LINE
  5
307
  8
CAP
 10
-54.06456756591797
 20
858.693133354187
 30
0.0094973584637046
 11
-53.84066009521484
 21
859.1429853439331
 31
0.0094973780214787
  0
LINE
  5
308
  8
CAP
 10
-53.84066009521484
 20
859.1429853439331
 30
0.0094973780214787
 11
-53.67005920410156
 21
859.6200132369995
 31
0.0094973994418979
  0
LINE
  5
309
  8
CAP
 10
-53.67005920410156
 20
859.6200132369995
 30
0.0094973994418979
 11
-53.55820465087891
 21
860.1097993850708
 31
0.0094974208623171
  0
LINE
  5
30A
  8
CAP
 10
-53.55820465087891
 20
860.1097993850708
 30
0.0094974208623171
 11
-53.50479125976562
 21
860.6136236190796
 31
0.0094974432140589
  0
LINE
  5
30B
  8
CAP
 10
-53.50479125976562
 20
860.6136236190796
 30
0.0094974432140589
 11
-53.51121520996094
 21
861.1161375045776
 31
0.0094974655658007
  0
LINE
  5
30C
  8
CAP
 10
-53.51121520996094
 20
861.1161375045776
 30
0.0094974655658007
 11
-53.57798767089844
 21
861.6181783676147
 31
0.0094974879175425
  0
LINE
  5
30D
  8
CAP
 10
-53.57798767089844
 20
861.6181783676147
 30
0.0094974879175425
 11
-53.70249176025391
 21
862.1054830551147
 31
0.0094975093379617
  0
LINE
  5
30E
  8
CAP
 10
-53.70249176025391
 20
862.1054830551147
 30
0.0094975093379617
 11
-53.88550567626953
 21
862.5772523880005
 31
0.0094975307583809
  0
LINE
  5
30F
  8
CAP
 10
-53.88550567626953
 20
862.5772523880005
 30
0.0094975307583809
 11
-54.12139129638672
 21
863.0220899581909
 31
0.009497550316155
  0
LINE
  5
310
  8
CAP
 10
-54.12139129638672
 20
863.0220899581909
 30
0.009497550316155
 11
-54.40737915039062
 21
863.4335336685181
 31
0.0094975680112839
  0
LINE
  5
311
  8
CAP
 10
-54.40737915039062
 20
863.4335336685181
 30
0.0094975680112839
 11
-54.74479675292969
 21
863.8146867752075
 31
0.0094975857064128
  0
LINE
  5
312
  8
CAP
 10
-54.74479675292969
 20
863.8146867752075
 30
0.0094975857064128
 11
-61.90685272216797
 21
870.9767456054688
 31
0.0094979032874107
  0
LINE
  5
313
  8
CAP
 10
-61.90685272216797
 20
870.9767456054688
 30
0.0094979032874107
 11
-62.43626403808594
 21
871.5615386962891
 31
0.0094979293644428
  0
LINE
  5
314
  8
CAP
 10
-62.43626403808594
 20
871.5615386962891
 30
0.0094979293644428
 11
-62.90175628662109
 21
872.1890335083008
 31
0.0094979563727975
  0
LINE
  5
315
  8
CAP
 10
-62.90175628662109
 20
872.1890335083008
 30
0.0094979563727975
 11
-63.30513000488281
 21
872.8625526428223
 31
0.0094979871064425
  0
LINE
  5
316
  8
CAP
 10
-63.30513000488281
 20
872.8625526428223
 30
0.0094979871064425
 11
-63.64103698730469
 21
873.5721282958984
 31
0.0094980178400874
  0
LINE
  5
317
  8
CAP
 10
-63.64103698730469
 20
873.5721282958984
 30
0.0094980178400874
 11
-63.90525817871094
 21
874.3114013671875
 31
0.0094980513677001
  0
LINE
  5
318
  8
CAP
 10
-63.90525817871094
 20
874.3114013671875
 30
0.0094980513677001
 11
-64.09628295898438
 21
875.0728759765625
 31
0.0094980848953128
  0
LINE
  5
319
  8
CAP
 10
-64.09628295898438
 20
875.0728759765625
 30
0.0094980848953128
 11
-64.21083068847656
 21
875.8457412719727
 31
0.009498119354248
  0
LINE
  5
31A
  8
CAP
 10
-64.21083068847656
 20
875.8457412719727
 30
0.009498119354248
 11
-64.25
 21
876.6335983276367
 31
0.0094981538131833
  0
LINE
  5
31B
  8
CAP
 10
-64.25
 20
876.6335983276367
 30
0.0094981538131833
 11
-64.25
 21
919.9853591918945
 31
0.0095000769942999
  0
LINE
  5
31C
  8
CAP
 10
-64.25
 20
919.9853591918945
 30
0.0095000769942999
 11
-64.21083068847656
 21
920.7732162475586
 31
0.0095001123845577
  0
LINE
  5
31D
  8
CAP
 10
-64.21083068847656
 20
920.7732162475586
 30
0.0095001123845577
 11
-64.09628295898438
 21
921.5460815429688
 31
0.009500146843493
  0
LINE
  5
31E
  8
CAP
 10
-64.09628295898438
 20
921.5460815429688
 30
0.009500146843493
 11
-63.90525817871094
 21
922.3075561523438
 31
0.0095001803711057
  0
LINE
  5
31F
  8
CAP
 10
-63.90525817871094
 20
922.3075561523438
 30
0.0095001803711057
 11
-63.64103698730469
 21
923.0468292236328
 31
0.0095002129673958
  0
LINE
  5
320
  8
CAP
 10
-63.64103698730469
 20
923.0468292236328
 30
0.0095002129673958
 11
-63.30513000488281
 21
923.7563934326172
 31
0.0095002446323633
  0
LINE
  5
321
  8
CAP
 10
-63.30513000488281
 20
923.7563934326172
 30
0.0095002446323633
 11
-62.90175628662109
 21
924.4299087524414
 31
0.0095002744346857
  0
LINE
  5
322
  8
CAP
 10
-62.90175628662109
 20
924.4299087524414
 30
0.0095002744346857
 11
-62.43626403808594
 21
925.0574111938477
 31
0.0095003023743629
  0
LINE
  5
323
  8
CAP
 10
-62.43626403808594
 20
925.0574111938477
 30
0.0095003023743629
 11
-61.90685272216797
 21
925.642204284668
 31
0.009500328451395
  0
LINE
  5
324
  8
CAP
 10
-61.90685272216797
 20
925.642204284668
 30
0.009500328451395
 11
-54.74479675292969
 21
932.8042602539062
 31
0.009500646032393
  0
LINE
  5
325
  8
CAP
 10
-54.74479675292969
 20
932.8042602539062
 30
0.009500646032393
 11
-54.40190124511719
 21
933.192512512207
 31
0.0095006637275219
  0
LINE
  5
326
  8
CAP
 10
-54.40190124511719
 20
933.192512512207
 30
0.0095006637275219
 11
-54.11244201660156
 21
933.6116180419922
 31
0.0095006823539734
  0
LINE
  5
327
  8
CAP
 10
-54.11244201660156
 20
933.6116180419922
 30
0.0095006823539734
 11
-53.87509155273438
 21
934.0647430419922
 31
0.0095007019117475
  0
LINE
  5
328
  8
CAP
 10
-53.87509155273438
 20
934.0647430419922
 30
0.0095007019117475
 11
-53.69221496582031
 21
934.5462112426758
 31
0.0095007233321667
  0
LINE
  5
329
  8
CAP
 10
-53.69221496582031
 20
934.5462112426758
 30
0.0095007233321667
 11
-53.57013702392578
 21
935.0424118041992
 31
0.0095007456839085
  0
LINE
  5
32A
  8
CAP
 10
-53.57013702392578
 20
935.0424118041992
 30
0.0095007456839085
 11
-53.50791168212891
 21
935.5540924072266
 31
0.0095007680356503
  0
LINE
  5
32B
  8
CAP
 10
-53.50791168212891
 20
935.5540924072266
 30
0.0095007680356503
 11
-53.50791168212891
 21
936.0648422241211
 31
0.009500790387392
  0
LINE
  5
32C
  8
CAP
 10
-53.50791168212891
 20
936.0648422241211
 30
0.009500790387392
 11
-53.57013702392578
 21
936.5765228271484
 31
0.0095008136704564
  0
LINE
  5
32D
  8
CAP
 10
-53.57013702392578
 20
936.5765228271484
 30
0.0095008136704564
 11
-53.69221496582031
 21
937.0727233886719
 31
0.0095008350908756
  0
LINE
  5
32E
  8
CAP
 10
-53.69221496582031
 20
937.0727233886719
 30
0.0095008350908756
 11
-53.87509155273438
 21
937.5541839599609
 31
0.0095008565112948
  0
LINE
  5
32F
  8
CAP
 10
-53.87509155273438
 20
937.5541839599609
 30
0.0095008565112948
 11
-54.11256408691406
 21
938.0074768066406
 31
0.0095008770003915
  0
LINE
  5
330
  8
CAP
 10
-54.11256408691406
 20
938.0074768066406
 30
0.0095008770003915
 11
-54.40498352050781
 21
938.4304275512695
 31
0.009500895626843
  0
LINE
  5
331
  8
CAP
 10
-54.40498352050781
 20
938.4304275512695
 30
0.009500895626843
 11
-54.74479675292969
 21
938.8146667480469
 31
0.0095009123906493
  0
LINE
  5
332
  8
CAP
 10
-54.74479675292969
 20
938.8146667480469
 30
0.0095009123906493
 11
-55.12903594970703
 21
939.1544799804688
 31
0.0095009282231331
  0
LINE
  5
333
  8
CAP
 10
-55.12903594970703
 20
939.1544799804688
 30
0.0095009282231331
 11
-55.55198669433594
 21
939.4468994140625
 31
0.0095009412616491
  0
LINE
  5
334
  8
CAP
 10
-55.55198669433594
 20
939.4468994140625
 30
0.0095009412616491
 11
-56.00527954101562
 21
939.6843719482422
 31
0.0095009515061975
  0
LINE
  5
335
  8
CAP
 10
-56.00527954101562
 20
939.6843719482422
 30
0.0095009515061975
 11
-56.48674774169922
 21
939.8672485351562
 31
0.0095009598881006
  0
LINE
  5
336
  8
CAP
 10
-56.48674774169922
 20
939.8672485351562
 30
0.0095009598881006
 11
-56.98294830322266
 21
939.9893341064453
 31
0.0095009645447135
  0
LINE
  5
337
  8
CAP
 10
-56.98294830322266
 20
939.9893341064453
 30
0.0095009645447135
 11
-57.49462127685547
 21
940.0515518188477
 31
0.0095009673386812
  0
LINE
  5
338
  8
CAP
 10
-57.49462127685547
 20
940.0515518188477
 30
0.0095009673386812
 11
-58.00537872314453
 21
940.0515518188477
 31
0.0095009673386812
  0
LINE
  5
339
  8
CAP
 10
-58.00537872314453
 20
940.0515518188477
 30
0.0095009673386812
 11
-58.51705169677734
 21
939.9893341064453
 31
0.0095009645447135
  0
LINE
  5
33A
  8
CAP
 10
-58.51705169677734
 20
939.9893341064453
 30
0.0095009645447135
 11
-59.01325225830078
 21
939.8672485351562
 31
0.0095009598881006
  0
LINE
  5
33B
  8
CAP
 10
-59.01325225830078
 20
939.8672485351562
 30
0.0095009598881006
 11
-59.49472045898438
 21
939.6843719482422
 31
0.0095009515061975
  0
LINE
  5
33C
  8
CAP
 10
-59.49472045898438
 20
939.6843719482422
 30
0.0095009515061975
 11
-59.94785308837891
 21
939.4470291137695
 31
0.0095009412616491
  0
LINE
  5
33D
  8
CAP
 10
-59.94785308837891
 20
939.4470291137695
 30
0.0095009412616491
 11
-60.36695098876953
 21
939.1575622558594
 31
0.0095009282231331
  0
LINE
  5
33E
  8
CAP
 10
-60.36695098876953
 20
939.1575622558594
 30
0.0095009282231331
 11
-60.75520324707031
 21
938.8146667480469
 31
0.0095009123906493
  0
LINE
  5
33F
  8
CAP
 10
-60.75520324707031
 20
938.8146667480469
 30
0.0095009123906493
 11
-62.20989990234375
 21
937.3599700927734
 31
0.0095008481293917
  0
LINE
  5
340
  8
CAP
 10
-62.20989990234375
 20
937.3599700927734
 30
0.0095008481293917
 11
-62.36123657226562
 21
937.2322006225586
 31
0.0095008425414562
  0
LINE
  5
341
  8
CAP
 10
-62.36123657226562
 20
937.2322006225586
 30
0.0095008425414562
 11
-62.52658081054688
 21
937.1327972412109
 31
0.0095008378848433
  0
LINE
  5
342
  8
CAP
 10
-62.52658081054688
 20
937.1327972412109
 30
0.0095008378848433
 11
-62.70841979980469
 21
937.0610046386719
 31
0.0095008350908756
  0
LINE
  5
343
  8
CAP
 10
-62.70841979980469
 20
937.0610046386719
 30
0.0095008350908756
 11
-62.89936828613281
 21
937.0190887451172
 31
0.0095008332282305
  0
LINE
  5
344
  8
CAP
 10
-62.89936828613281
 20
937.0190887451172
 30
0.0095008332282305
 11
-63.09461975097656
 21
937.0093612670898
 31
0.0095008322969079
  0
LINE
  5
345
  8
CAP
 10
-63.09461975097656
 20
937.0093612670898
 30
0.0095008322969079
 11
-63.28892517089844
 21
937.0308456420898
 31
0.0095008332282305
  0
LINE
  5
346
  8
CAP
 10
-63.28892517089844
 20
937.0308456420898
 30
0.0095008332282305
 11
-63.47699737548828
 21
937.0842056274414
 31
0.0095008360221982
  0
LINE
  5
347
  8
CAP
 10
-63.47699737548828
 20
937.0842056274414
 30
0.0095008360221982
 11
-63.6541748046875
 21
937.1668243408203
 31
0.0095008397474885
  0
LINE
  5
348
  8
CAP
 10
-63.6541748046875
 20
937.1668243408203
 30
0.0095008397474885
 11
-63.81523132324219
 21
937.2776412963867
 31
0.0095008444041014
  0
LINE
  5
349
  8
CAP
 10
-63.81523132324219
 20
937.2776412963867
 30
0.0095008444041014
 11
-63.95658111572266
 21
937.4126815795898
 31
0.0095008509233594
  0
LINE
  5
34A
  8
CAP
 10
-63.95658111572266
 20
937.4126815795898
 30
0.0095008509233594
 11
-64.07362365722656
 21
937.5692672729492
 31
0.0095008574426174
  0
LINE
  5
34B
  8
CAP
 10
-64.07362365722656
 20
937.5692672729492
 30
0.0095008574426174
 11
-64.16424560546875
 21
937.7424850463867
 31
0.009500864893198
  0
LINE
  5
34C
  8
CAP
 10
-64.16424560546875
 20
937.7424850463867
 30
0.009500864893198
 11
-64.22433471679688
 21
937.9258193969727
 31
0.0095008732751012
  0
LINE
  5
34D
  8
CAP
 10
-64.22433471679688
 20
937.9258193969727
 30
0.0095008732751012
 11
-64.25526428222656
 21
938.1214447021484
 31
0.0095008816570044
  0
LINE
  5
34E
  8
CAP
 10
-64.25526428222656
 20
938.1214447021484
 30
0.0095008816570044
 11
-64.26966857910156
 21
938.2560043334961
 31
0.0095008881762624
  0
LINE
  5
34F
  8
CAP
 10
-64.26966857910156
 20
938.2560043334961
 30
0.0095008881762624
 11
-64.29290771484375
 21
938.3884735107422
 31
0.0095008937641978
  0
LINE
  5
350
  8
CAP
 10
-64.29290771484375
 20
938.3884735107422
 30
0.0095008937641978
 11
-64.32502746582031
 21
938.5189208984375
 31
0.0095008993521333
  0
LINE
  5
351
  8
CAP
 10
-64.32502746582031
 20
938.5189208984375
 30
0.0095008993521333
 11
-64.36616516113281
 21
938.6478576660156
 31
0.0095009058713913
  0
LINE
  5
352
  8
CAP
 10
-64.36616516113281
 20
938.6478576660156
 30
0.0095009058713913
 11
-64.4158935546875
 21
938.7738571166992
 31
0.0095009114593267
  0
LINE
  5
353
  8
CAP
 10
-64.4158935546875
 20
938.7738571166992
 30
0.0095009114593267
 11
-64.47373962402344
 21
938.8954849243164
 31
0.0095009161159396
  0
LINE
  5
354
  8
CAP
 10
-64.47373962402344
 20
938.8954849243164
 30
0.0095009161159396
 11
-64.53987121582031
 21
939.0132598876953
 31
0.0095009217038751
  0
LINE
  5
355
  8
CAP
 10
-64.53987121582031
 20
939.0132598876953
 30
0.0095009217038751
 11
-64.61431884765625
 21
939.1272506713867
 31
0.0095009263604879
  0
LINE
  5
356
  8
CAP
 10
-64.61431884765625
 20
939.1272506713867
 30
0.0095009263604879
 11
-67.0604248046875
 21
942.6037139892578
 31
0.0095010809600353
  0
LINE
  5
357
  8
CAP
 10
-67.0604248046875
 20
942.6037139892578
 30
0.0095010809600353
 11
-67.2092056274414
 21
942.8004302978516
 31
0.0095010893419385
  0
LINE
  5
358
  8
CAP
 10
-67.2092056274414
 20
942.8004302978516
 30
0.0095010893419385
 11
-67.36741638183594
 21
942.9855041503906
 31
0.0095010977238417
  0
LINE
  5
359
  8
CAP
 10
-67.36741638183594
 20
942.9855041503906
 30
0.0095010977238417
 11
-67.53506469726562
 21
943.158935546875
 31
0.0095011051744223
  0
LINE
  5
35A
  8
CAP
 10
-67.53506469726562
 20
943.158935546875
 30
0.0095011051744223
 11
-67.71214294433594
 21
943.3207321166992
 31
0.0095011126250029
  0
LINE
  5
35B
  8
CAP
 10
-67.71214294433594
 20
943.3207321166992
 30
0.0095011126250029
 11
-67.89913940429688
 21
943.4711685180664
 31
0.0095011191442609
  0
LINE
  5
35C
  8
CAP
 10
-67.89913940429688
 20
943.4711685180664
 30
0.0095011191442609
 11
-68.09739685058594
 21
943.6110687255859
 31
0.0095011256635189
  0
LINE
  5
35D
  8
CAP
 10
-68.09739685058594
 20
943.6110687255859
 30
0.0095011256635189
 11
-68.30491638183594
 21
943.7392196655273
 31
0.0095011312514544
  0
LINE
  5
35E
  8
CAP
 10
-68.30491638183594
 20
943.7392196655273
 30
0.0095011312514544
 11
-68.51930236816406
 21
943.8541793823242
 31
0.0095011368393898
  0
LINE
  5
35F
  8
CAP
 10
-68.51930236816406
 20
943.8541793823242
 30
0.0095011368393898
 11
-68.73823547363281
 21
943.9545364379883
 31
0.0095011405646801
  0
LINE
  5
360
  8
CAP
 10
-68.73823547363281
 20
943.9545364379883
 30
0.0095011405646801
 11
-68.96373748779297
 21
944.0409317016602
 31
0.0095011442899704
  0
LINE
  5
361
  8
CAP
 10
-68.96373748779297
 20
944.0409317016602
 30
0.0095011442899704
 11
-69.19613647460938
 21
944.1138305664062
 31
0.0095011480152607
  0
LINE
  5
362
  8
CAP
 10
-69.19613647460938
 20
944.1138305664062
 30
0.0095011480152607
 11
-69.43275451660156
 21
944.172492980957
 31
0.0095011508092284
  0
LINE
  5
363
  8
CAP
 10
-69.43275451660156
 20
944.172492980957
 30
0.0095011508092284
 11
-69.67089080810547
 21
944.2161865234375
 31
0.0095011526718736
  0
LINE
  5
364
  8
CAP
 10
-69.67089080810547
 20
944.2161865234375
 30
0.0095011526718736
 11
-69.90965270996094
 21
944.2444534301758
 31
0.0095011536031961
  0
LINE
  5
365
  8
CAP
 10
-69.90965270996094
 20
944.2444534301758
 30
0.0095011536031961
 11
-70.15216064453125
 21
944.2577743530273
 31
0.0095011545345187
  0
ENDSEC
  0
EOF
